<svg width="315" height="181" viewBox="0 0 315 181" fill="none" xmlns="http://www.w3.org/2000/svg">
<g clip-path="url(#clip0_1210_443)">
<path d="M25.6163 180.477C16.6338 180.485 8.61266 175.111 5.56728 167.045C-0.963263 149.681 -6.71681 117.516 18.8522 82.725C47.1245 44.2561 103.682 4.48722 143.464 0.413088C205.786 -5.96627 223.206 63.3883 251.169 79.5273C275.33 93.4714 310.318 114.381 314.892 158.083C316.07 169.27 307.523 179.25 295.804 180.374C295.099 180.442 294.391 180.475 293.682 180.476L25.6163 180.477Z" fill="#F3F5FD"/>
<path d="M28.7327 179.308C23.3855 177.671 18.1976 175.533 13.4705 169.549C12.5004 168.323 11.589 166.752 12.1206 165.284C12.5207 164.179 13.6781 163.471 14.8541 163.291C15.2922 163.228 15.7362 163.216 16.177 163.255C16.1792 163.255 16.1814 163.257 16.1822 163.255C16.8596 163.324 17.5292 163.453 18.1827 163.642L18.3695 163.696C21.4894 164.571 24.4613 165.896 27.1892 167.629C27.4365 167.784 27.7297 167.853 28.0212 167.823C28.3128 167.793 28.5855 167.667 28.7951 167.464C29.0047 167.262 29.1389 166.996 29.1757 166.708C29.2126 166.421 29.15 166.13 28.9981 165.883C28.7198 165.434 28.396 165.014 28.0316 164.63C27.4942 164.075 26.9055 163.571 26.2729 163.124C25.4325 162.519 24.5353 161.978 23.6576 161.425C20.3947 159.373 17.3035 157.067 14.4135 154.528C12.3509 152.714 10.3336 150.7 9.35329 148.15C8.90269 146.977 8.69778 145.625 9.23504 144.488C10.1217 142.622 12.6333 142.099 14.687 142.486C18.2858 143.167 21.1609 145.771 23.7103 148.368C25.8245 150.525 28.1933 152.913 31.2308 153.046C31.7487 153.094 32.2693 152.991 32.7284 152.749C33.5948 152.231 33.8175 151.03 33.5087 150.077C33.1998 149.124 32.4854 148.362 31.7954 147.631C27.7867 143.384 23.841 138.965 21.2375 133.761C18.6341 128.556 17.4808 122.413 19.2899 116.887C19.8204 115.272 20.6174 113.7 21.8607 112.527C23.1039 111.354 24.8474 110.618 26.5543 110.842C28.8796 111.145 30.631 113.083 31.8091 115.083C35.8588 121.948 35.6113 130.359 36.7519 138.223C37.0713 140.424 37.5349 142.682 38.8632 144.494C38.9856 144.668 39.1445 144.815 39.3292 144.923C40.422 145.548 41.4029 144.288 41.813 143.219C43.4329 138.989 43.8378 134.151 46.7382 130.65C47.8451 129.317 49.411 128.204 51.1562 128.215C53.2877 128.229 55.1127 129.987 55.7348 132C56.3568 134.013 55.9845 136.2 55.3182 138.199C54.0811 141.906 51.8641 145.236 49.2515 148.163C47.8746 149.709 46.3165 151.27 45.9037 153.286C45.7772 153.971 45.8301 154.677 46.0575 155.336C46.285 155.996 46.6793 156.587 47.2031 157.053C47.448 157.264 47.7332 157.423 48.0418 157.523C48.3504 157.623 48.6761 157.66 48.9996 157.633C49.6994 157.57 50.3322 157.218 50.9421 156.875C51.1983 156.731 51.455 156.585 51.7134 156.442C52.7321 155.869 53.751 155.296 54.7701 154.722C57.3606 153.263 60.4886 151.772 63.1868 153.028C64.5637 153.671 65.4659 154.934 65.8901 156.383C66.27 157.699 66.27 159.093 65.8901 160.408C65.0863 163.144 60.0204 170.757 57.9311 172.72C55.4912 175.014 47.0301 184.906 28.7327 179.308Z" fill="#8DDBE0"/>
<path d="M246.852 2.04346H79.1709V121.939H246.852V2.04346Z" fill="#DEE8F5"/>
<path d="M246.852 2.04346H79.1709V11.9198H246.852V2.04346Z" fill="#C1D8ED"/>
<path d="M241.236 9.45976C242.622 9.45976 243.746 8.35034 243.746 6.9818C243.746 5.61326 242.622 4.50385 241.236 4.50385C239.85 4.50385 238.726 5.61326 238.726 6.9818C238.726 8.35034 239.85 9.45976 241.236 9.45976Z" fill="white"/>
<path d="M114.395 26.5914H92.1963V48.5087H114.395V26.5914Z" fill="white"/>
<path d="M144.252 26.5914H122.054V48.5087H144.252V26.5914Z" fill="white"/>
<path d="M174.11 26.5914H151.912V48.5087H174.11V26.5914Z" fill="white"/>
<path d="M203.968 26.5914H181.77V48.5087H203.968V26.5914Z" fill="white"/>
<path d="M114.395 55.8034H92.1963V77.7206H114.395V55.8034Z" fill="white"/>
<path d="M144.252 55.8034H122.054V77.7206H144.252V55.8034Z" fill="#0CBC8B"/>
<path d="M174.11 55.8034H151.912V77.7206H174.11V55.8034Z" fill="white"/>
<path d="M203.968 55.8034H181.77V77.7206H203.968V55.8034Z" fill="white"/>
<path d="M114.395 85.0151H92.1963V106.932H114.395V85.0151Z" fill="white"/>
<path d="M144.252 85.0151H122.054V106.932H144.252V85.0151Z" fill="white"/>
<path d="M174.11 85.0151H151.912V106.932H174.11V85.0151Z" fill="white"/>
<path d="M203.968 85.0151H181.77V106.932H203.968V85.0151Z" fill="white"/>
<path d="M233.826 26.5914H211.628V48.5087H233.826V26.5914Z" fill="white"/>
<path d="M233.826 55.8034H211.628V77.7206H233.826V55.8034Z" fill="white"/>
<path d="M233.826 85.0151H211.628V106.932H233.826V85.0151Z" fill="white"/>
<path d="M108.881 178.117L103.251 177.456C103.504 175.352 103.791 172.825 103.81 172.41C103.81 172.437 103.81 172.459 103.81 172.475H109.48C109.479 172.643 109.479 173.153 108.881 178.117Z" fill="#E98862"/>
<path d="M86.2897 178.786L80.6201 178.768C80.6201 178.768 80.639 172.987 80.639 172.475H86.3086C86.3086 172.988 86.2897 178.786 86.2897 178.786Z" fill="#E98862"/>
<path d="M110.973 176.181C110.503 164.45 110.475 152.129 110.328 140.367C108.378 127.68 107.353 113.766 104.946 101.169L104.874 101.19L104.663 99.7693L84.1238 98.5178L83.3247 111.766H83.4014C82.3673 129.514 80.3687 158.045 79.1592 176.031L89.1131 176.861C90.8909 159.173 93.5197 130.993 95.1261 113.559C96.889 122.442 98.8213 132.446 100.387 141.435C100.729 152.918 101.016 164.884 100.985 176.349L110.973 176.181Z" fill="#262626"/>
<path d="M93.1823 180.951C93.328 180.95 93.472 180.921 93.6063 180.866C93.7406 180.81 93.8625 180.729 93.965 180.626C94.0675 180.524 94.1486 180.403 94.2036 180.27C94.2587 180.137 94.2867 179.994 94.286 179.851C94.286 179.824 94.286 179.797 94.2828 179.771C94.2664 179.563 94.1902 179.363 94.0631 179.197C93.9359 179.03 93.7631 178.903 93.5651 178.83L86.966 176.648C86.8382 176.606 86.7027 176.592 86.5689 176.607C86.4351 176.621 86.306 176.664 86.1906 176.733C85.2835 177.354 84.1982 177.672 83.0945 177.639C82.2349 177.579 81.4099 177.281 80.7133 176.78C80.652 176.731 80.5778 176.699 80.4992 176.69C80.4206 176.68 80.3409 176.693 80.2693 176.727C80.1978 176.76 80.1374 176.813 80.0951 176.879C80.0529 176.945 80.0306 177.022 80.0308 177.1V180.286C80.0308 180.475 80.1069 180.657 80.2425 180.791C80.3781 180.925 80.562 181 80.7538 181H80.7567L93.1823 180.951Z" fill="#C1D8ED"/>
<path d="M115.789 180.951C115.934 180.95 116.078 180.921 116.213 180.866C116.347 180.81 116.469 180.729 116.571 180.626C116.674 180.524 116.755 180.403 116.81 180.27C116.865 180.137 116.893 179.994 116.892 179.851C116.892 179.824 116.892 179.797 116.889 179.771C116.873 179.562 116.797 179.363 116.67 179.197C116.542 179.03 116.369 178.903 116.171 178.83L109.572 176.648C109.445 176.606 109.309 176.592 109.175 176.606C109.041 176.621 108.912 176.664 108.797 176.733C107.89 177.354 106.805 177.672 105.701 177.639C104.841 177.578 104.016 177.281 103.319 176.78C103.258 176.73 103.184 176.699 103.105 176.69C103.027 176.68 102.947 176.693 102.876 176.726C102.804 176.76 102.744 176.813 102.701 176.879C102.659 176.945 102.637 177.022 102.637 177.1V180.286C102.637 180.475 102.713 180.657 102.849 180.791C102.985 180.925 103.168 181 103.36 181H103.363L115.789 180.951Z" fill="#C1D8ED"/>
<path d="M94.1231 58.8302L93.1987 59.1367C93.1987 59.1367 93.3194 62.3739 93.6609 64.0207C94.0025 65.6675 94.2687 67.8133 95.33 68.049C96.7384 68.3619 98.4185 68.4774 99.6391 68.0466C100.562 67.7208 100.704 64.6266 100.794 63.0984C100.834 62.4195 100.747 62.4786 100.06 62.525C98.6537 62.6205 96.4668 62.6938 95.6618 62.3118C94.4352 61.7307 94.1231 58.8302 94.1231 58.8302Z" fill="#0F1011"/>
<path d="M90.7056 70.9616C90.7056 70.9616 92.7933 69.8687 92.3271 64.256L96.6403 63.4662C96.6403 63.4662 96.1543 68.4986 98.3379 70.0961L90.7056 70.9616Z" fill="#E98862"/>
<path d="M89.8792 62.0796C90.1778 63.7824 91.119 65.3951 92.6406 65.9447C94.4465 66.5978 95.7842 66.642 97.8666 66.642C100.708 66.642 100.614 63.716 100.694 60.7673C100.775 57.8085 100.757 55.3073 99.6336 54.2757C97.3928 52.2165 90.5917 52.8448 89.7912 56.2888C89.3773 58.07 89.5949 60.4586 89.8792 62.0796Z" fill="#E98862"/>
<path d="M88.5113 59.8892C88.9263 62.4778 89.4698 63.2943 90.2543 64.5317C90.7193 65.305 91.3435 65.9733 92.0867 66.4933C92.665 66.8609 98.3378 66.7847 99.317 66.6434C100.762 66.4347 100.981 62.3701 100.723 62.3701C100.402 62.3701 100.325 62.3616 99.9633 62.3616C99.3032 62.3616 99.2374 58.4786 99.1129 56.7606C99.2144 56.7467 99.3167 56.7396 99.4191 56.7395C102.525 56.7385 87.8148 55.5437 88.5113 59.8892Z" fill="#0F1011"/>
<path d="M98.5565 62.4445C98.1335 62.4552 97.7225 62.3056 97.4078 62.0266C97.093 61.7475 96.8983 61.3601 96.8637 60.9438C96.8422 60.7336 96.8629 60.5214 96.9246 60.3191C96.9862 60.1169 97.0877 59.9286 97.2231 59.7651C97.3585 59.6015 97.5252 59.4659 97.7136 59.366C97.9021 59.2661 98.1087 59.2039 98.3216 59.1829C98.3362 59.1813 98.351 59.1802 98.3656 59.1791C98.4039 60.3414 98.4647 61.5646 98.5565 62.4445Z" fill="#E98862"/>
<path d="M88.511 59.8893C88.511 59.8893 87.0547 52.6177 94.0923 51.9457C101.13 51.2737 100.707 57.7704 100.707 57.7704L97.9147 59.1767C97.9147 59.1767 94.7978 60.0209 88.511 59.8893Z" fill="#262626"/>
<path d="M89.5145 59.0434C89.4975 58.4114 89.7352 57.7985 90.1755 57.3395C90.6158 56.8804 91.2227 56.6126 91.8628 56.5949C92.5029 56.5773 93.1239 56.8112 93.5895 57.2453C94.055 57.6794 94.3271 58.2782 94.3458 58.9101" fill="#0F1011"/>
<path d="M97.916 59.1751C97.916 59.1751 100.212 58.4106 101.441 57.6941C102.75 56.9309 104.519 55.5445 104.51 55.1319C104.494 54.4122 101.948 54.2114 99.8688 54.2927L99.8847 54.3234C100.231 55.0011 100.328 55.777 100.158 56.5175C99.9881 57.258 99.562 57.9168 98.9533 58.3807L97.916 59.1751Z" fill="#262626"/>
<path d="M78.0783 108.123C78.0783 108.917 78.503 111.573 77.8196 111.762C77.4101 111.876 76.9263 109.897 76.9263 109.897" fill="#E98862"/>
<path d="M74.8535 107.706C74.8535 107.706 72.6224 113.067 75.1672 116.147C75.2321 116.226 75.3193 116.283 75.4175 116.311C75.5157 116.34 75.6204 116.339 75.7179 116.308C75.8154 116.277 75.9012 116.218 75.9641 116.138C76.0271 116.058 76.0642 115.961 76.0706 115.861C76.1943 113.784 76.6184 109.518 78.0053 110.016V106.666" fill="#E98862"/>
<path d="M125.163 79.1398C125.163 79.1398 128.279 76.696 128.499 75.8182C128.72 74.9404 126.525 73.2139 126.525 73.2139C126.525 73.2139 129.443 70.3083 128.861 69.8888C128.174 69.3919 124.789 73.6158 124.789 73.6158C124.789 73.6158 125.267 72.0964 124.671 71.9965C124.426 71.9557 124.232 72.1929 123.849 73.2685C123.412 74.4947 122.539 76.338 122.539 76.338L125.163 79.1398Z" fill="#E98862"/>
<path d="M121.882 75.8902L112.665 86.1288L105.456 73.3872C104.774 71.3744 103.22 70.0261 100.051 69.892C98.9667 69.8462 93.6775 69.8387 89.8049 69.8387C87.2034 69.8387 85.0676 70.6266 83.834 71.8446C83.2127 72.4491 82.7479 73.1923 82.4787 74.0115L82.4412 73.9979L76.2444 90.6359C76.175 90.8225 76.125 91.0156 76.0953 91.2122L73.5942 107.849L79.4174 108.702L81.8743 92.3608L84.377 85.6416C84.6375 86.6743 84.7798 87.7327 84.8014 88.7968C84.8014 94.3946 82.2366 96.9051 82.4256 99.7792C82.7225 104.296 104.95 103.229 106.082 100.663C107.248 98.0172 104.882 96.3869 104.985 87.7322C104.996 86.7904 105.07 85.8052 105.172 84.8021L109.545 92.5324C109.774 92.9373 110.098 93.2822 110.49 93.5382C110.881 93.7943 111.329 93.9541 111.796 94.0044C112.263 94.0546 112.735 93.9938 113.173 93.827C113.611 93.6602 114.003 93.3922 114.315 93.0456L126.433 79.0511L121.882 75.8902Z" fill="#367CFF"/>
<path d="M261.677 138.789L253.176 179.729C253.121 179.942 252.996 180.132 252.82 180.268C252.644 180.403 252.427 180.477 252.204 180.477C252.051 180.477 251.901 180.443 251.764 180.377C251.627 180.311 251.507 180.215 251.414 180.096C251.32 179.977 251.255 179.839 251.223 179.692C251.192 179.545 251.195 179.393 251.232 179.247L259.855 137.834L261.677 138.789Z" fill="#C1D8ED"/>
<path d="M281.651 138.723L290.152 179.663C290.207 179.876 290.332 180.066 290.508 180.202C290.684 180.337 290.901 180.411 291.124 180.411C291.277 180.411 291.427 180.377 291.564 180.311C291.701 180.245 291.821 180.149 291.914 180.03C292.008 179.912 292.073 179.774 292.105 179.626C292.136 179.479 292.133 179.327 292.096 179.181L283.474 137.768L281.651 138.723Z" fill="#C1D8ED"/>
<path d="M290.586 134.785H252.742C251.785 134.785 251.009 135.55 251.009 136.495V140.261C251.009 141.206 251.785 141.972 252.742 141.972H290.586C291.543 141.972 292.319 141.206 292.319 140.261V136.495C292.319 135.55 291.543 134.785 290.586 134.785Z" fill="#DEE8F5"/>
<path d="M279.829 115.849C278.698 115.484 277.537 115.894 276.426 116.729C277.889 113.08 278.493 109.785 275.992 109.637C274.241 109.533 272.9 110.859 271.882 112.744C271.523 109.429 270.599 106.958 268.528 107.777C266.255 108.677 265.91 111.761 266.254 114.987C265.253 113.339 264.175 112.42 263.195 113.387C260.274 116.272 267.445 124.403 267.445 124.403H269.227L270.244 125.492C270.038 125.921 269.926 126.177 269.926 126.177L271.217 128.771C271.217 128.771 284.525 117.367 279.829 115.849Z" fill="#8DDBE0"/>
<path d="M276.636 134.58H266.556L264.868 122.961H278.324L276.636 134.58Z" fill="#C1D8ED"/>
</g>
<defs>
<clipPath id="clip0_1210_443">
<rect width="315" height="181" fill="white"/>
</clipPath>
</defs>
</svg>
