<svg width="1116" height="775" viewBox="0 0 1116 775" fill="none" xmlns="http://www.w3.org/2000/svg">
<g clip-path="url(#clip0_228_11680)">
<path opacity="0.2" d="M333.548 100.376L332.755 100.176L81.0659 627.108L968.322 695.6L969.322 695.677L1001.83 267.927L1001.9 267.086L333.548 100.376ZM588.429 439.241L84.5579 624.437L333.5 103.258L588.429 439.241ZM589.907 440.828L964.7 693.309L87.2499 625.579L589.907 440.828ZM590.37 438.492L335.819 103L997.666 268.087L590.37 438.492ZM967.533 692.809L592.139 439.92L999.712 269.4L967.533 692.809Z" fill="#367CFF"/>
<path d="M1115.23 276.835C1114.43 297.121 1108.73 316.91 1098.61 334.513C1088.5 352.116 1074.28 367.008 1057.15 377.918C1040.03 388.827 1020.53 395.43 1000.3 397.16C980.071 398.891 959.725 395.699 941 387.856C932.218 384.175 923.888 379.496 916.176 373.91C901.436 363.268 889.167 349.569 880.21 333.748V333.734C870.659 316.813 865.162 297.907 864.151 278.503C863.139 259.099 866.641 239.725 874.381 221.902C882.121 204.08 893.888 188.295 908.758 175.787C923.628 163.28 941.196 154.391 960.081 149.819C978.966 145.247 998.654 145.116 1017.6 149.436C1036.54 153.757 1054.23 162.412 1069.26 174.72C1084.3 187.029 1096.27 202.656 1104.25 220.374C1112.22 238.092 1115.98 257.418 1115.23 276.834L1115.23 276.835Z" fill="white"/>
<path opacity="0.09" d="M1115.23 276.835C1114.43 297.121 1108.73 316.91 1098.61 334.513C1088.5 352.116 1074.28 367.008 1057.15 377.918C1040.03 388.827 1020.53 395.43 1000.3 397.16C980.071 398.891 959.725 395.699 941 387.856C932.218 384.175 923.888 379.496 916.176 373.91C901.436 363.268 889.167 349.569 880.21 333.748V333.734C870.659 316.813 865.162 297.907 864.151 278.503C863.139 259.099 866.641 239.725 874.381 221.902C882.121 204.08 893.888 188.295 908.758 175.787C923.628 163.28 941.196 154.391 960.081 149.819C978.966 145.247 998.654 145.116 1017.6 149.436C1036.54 153.757 1054.23 162.412 1069.26 174.72C1084.3 187.029 1096.27 202.656 1104.25 220.374C1112.22 238.092 1115.98 257.418 1115.23 276.834L1115.23 276.835Z" fill="#367CFF"/>
<path d="M1019.37 176.256C1019.37 176.256 1049.41 176.624 1039.05 218.029L1036.23 218.167L1030.5 218.446" fill="#0C0C0C"/>
<path d="M985.819 261.47C985.959 261.457 986.513 287.283 1016.53 286.198C1037.31 285.45 1045.56 263.751 1046.03 263.769C1043.82 263.208 1040.08 262.369 1039.11 261.803C1035.91 259.924 1031.95 257.943 1031.14 251.565C1030.68 247.889 1032.43 229.245 1032.26 225.538L1000.17 231.403C1000.32 239.225 1002.72 257.437 991.697 260.216C989.861 260.676 987.888 261.087 985.819 261.47Z" fill="#E98862"/>
<path opacity="0.52" d="M998.884 253.09C999.445 251.504 999.831 249.861 1000.03 248.19C1000.53 244.38 1000.61 240.527 1000.27 236.699C1006.77 236.078 1012.96 233.645 1018.15 229.679C1018.66 231.879 1021.53 241.541 1020.55 243.579C1018.7 247.433 1010.46 253.54 998.884 253.09Z" fill="#0C0C0C"/>
<path d="M1006.17 248.527C1018.74 247.627 1033.92 239.97 1034.44 222.927L1034.92 207.552C1035.45 190.512 1026.92 176.421 1010.88 175.925C994.836 175.425 982.416 188.871 981.889 205.911L981.679 212.718C981.647 215.057 981.775 217.396 982.061 219.718C982.773 225.858 983.879 235.194 987.922 241.569C991.738 247.587 998.132 249.1 1006.17 248.527Z" fill="#E98862"/>
<path d="M1033.29 228.091C1038.16 228.241 1042.28 223.147 1042.43 218.272C1042.58 213.397 1038.71 210.585 1033.83 210.434L1031.22 213.623L1029.09 227.961L1033.29 228.091Z" fill="#E98862"/>
<path d="M982.714 224.864C983.595 225.909 984.723 226.716 985.995 227.213C987.268 227.71 988.645 227.881 990 227.71C992.9 227.345 994.823 228.535 997.244 228.296C999.276 228.096 999.628 227.157 1003.1 226.952C1016.48 226.159 1026.53 225.315 1027.18 208.516L1035.7 200.949C1035.7 200.949 1039.51 247.501 1014.33 253.689C998.856 257.489 984.345 256.1 982.479 241.569C980.963 229.762 982.714 224.864 982.714 224.864Z" fill="#0C0C0C"/>
<path d="M989.057 215.142C990.149 215.142 991.034 214.257 991.034 213.165C991.034 212.073 990.149 211.188 989.057 211.188C987.965 211.188 987.08 212.073 987.08 213.165C987.08 214.257 987.965 215.142 989.057 215.142Z" fill="#0C0C0C"/>
<path d="M1006.72 214.774C1007.81 214.774 1008.7 213.889 1008.7 212.797C1008.7 211.705 1007.81 210.82 1006.72 210.82C1005.63 210.82 1004.74 211.705 1004.74 212.797C1004.74 213.889 1005.63 214.774 1006.72 214.774Z" fill="#0C0C0C"/>
<path d="M1028.58 220.166C1028.58 220.166 1027.37 196.02 1020.08 194.397C1015.23 193.316 1003.29 200.01 992.392 197.724C987.623 196.724 983.058 197.824 982.554 200.078C982.354 200.97 978.58 193.059 986.254 183.433C992.363 175.769 1012.23 173.613 1021.07 176.323C1045.54 183.829 1034.82 211.516 1034.82 211.516L1033.57 219.81L1028.58 220.166Z" fill="#0C0C0C"/>
<path d="M1039.7 200.695C1046.9 200.695 1052.74 194.856 1052.74 187.653C1052.74 180.45 1046.9 174.611 1039.7 174.611C1032.5 174.611 1026.66 180.45 1026.66 187.653C1026.66 194.856 1032.5 200.695 1039.7 200.695Z" fill="#0C0C0C"/>
<g opacity="0.52">
<path opacity="0.52" d="M997.483 227.52H997.452C995.881 227.475 993.252 227.225 993.282 226.05C993.31 225.076 996.274 214.638 996.612 213.45C996.641 213.348 996.709 213.262 996.802 213.21C996.895 213.159 997.004 213.146 997.107 213.175C997.209 213.204 997.295 213.272 997.347 213.365C997.398 213.458 997.411 213.567 997.382 213.669C996.066 218.292 994.102 225.41 994.082 226.069C994.229 226.351 995.847 226.669 997.474 226.716C997.58 226.715 997.682 226.756 997.758 226.83C997.834 226.905 997.877 227.006 997.878 227.112C997.88 227.218 997.839 227.32 997.765 227.396C997.69 227.472 997.589 227.515 997.483 227.516V227.52Z" fill="#0C0C0C"/>
</g>
<path d="M992.7 206.448C991.077 205.968 989.354 205.933 987.713 206.348C986.905 206.547 986.132 206.866 985.419 207.294C984.713 207.715 984.063 208.222 983.484 208.805C983.384 208.895 983.323 209.021 983.316 209.156C983.308 209.291 983.355 209.423 983.445 209.523C983.534 209.623 983.661 209.684 983.795 209.691C983.93 209.699 984.062 209.652 984.162 209.562L984.193 209.536C984.733 209.05 985.331 208.633 985.975 208.295C986.609 207.96 987.289 207.722 987.994 207.589C989.385 207.317 990.823 207.418 992.163 207.88L992.214 207.899C992.309 207.936 992.41 207.953 992.511 207.951C992.612 207.948 992.712 207.925 992.805 207.883C992.897 207.841 992.98 207.782 993.049 207.707C993.118 207.633 993.172 207.546 993.207 207.451C993.242 207.355 993.258 207.254 993.253 207.153C993.249 207.051 993.224 206.952 993.181 206.86C993.137 206.769 993.076 206.686 993.001 206.619C992.925 206.551 992.837 206.499 992.741 206.465L992.7 206.448Z" fill="#0C0C0C"/>
<path d="M1004.35 207.882C1005.64 207.291 1007.06 207.051 1008.47 207.187C1009.18 207.25 1009.88 207.421 1010.55 207.694C1011.22 207.967 1011.86 208.324 1012.44 208.755L1012.47 208.777C1012.58 208.848 1012.71 208.875 1012.84 208.851C1012.97 208.828 1013.08 208.757 1013.16 208.652C1013.24 208.547 1013.27 208.417 1013.25 208.288C1013.24 208.159 1013.17 208.042 1013.07 207.959C1012.44 207.435 1011.74 206.993 1011 206.643C1010.25 206.286 1009.45 206.044 1008.62 205.924C1006.95 205.672 1005.24 205.875 1003.67 206.511C1003.49 206.591 1003.34 206.74 1003.27 206.926C1003.19 207.112 1003.19 207.32 1003.27 207.506C1003.35 207.691 1003.49 207.839 1003.68 207.917C1003.86 207.995 1004.07 207.997 1004.26 207.922L1004.29 207.906L1004.35 207.882Z" fill="#0C0C0C"/>
<path d="M1084.44 325.957C1083.32 334.4 1082.23 345.997 1081.26 357.988C1077.45 362.041 1073.38 365.838 1069.07 369.354C1066.33 371.58 1063.5 373.695 1060.59 375.7C1044.82 386.461 1026.82 393.497 1007.94 396.277C989.053 399.056 969.786 397.507 951.59 391.746C951.342 380.608 951.004 365.584 950.668 351.82C950.283 335.943 949.894 321.727 949.685 317.056C948.823 298.518 943.909 286.149 947.624 276.035C948.735 273.041 950.521 270.344 952.843 268.152C961.498 259.681 982.997 259.874 991.62 260.209C991.77 260.215 989.106 280.116 1017.48 279.876C1038.33 279.705 1039.89 262.082 1039.89 262.082C1039.89 262.082 1050.17 263.151 1056.99 264.336C1068.16 266.291 1075.41 270.385 1081.06 276.499C1086.33 282.2 1089.44 288.252 1084.44 325.957Z" fill="#367CFF"/>
<path d="M917.648 262.172L918.506 240.937C918.526 240.47 918.448 240.004 918.277 239.568C918.107 239.133 917.847 238.738 917.516 238.409C917.184 238.08 916.787 237.823 916.351 237.656C915.915 237.488 915.448 237.414 914.981 237.437C914.121 237.506 913.318 237.892 912.727 238.52C912.135 239.149 911.798 239.974 911.781 240.837L911.597 245.391L905.6 230.808C904.962 229.175 903.134 227.579 901.349 228.416C900.641 228.693 900.048 229.201 899.667 229.859C899.286 230.516 899.138 231.284 899.249 232.036C899.232 232.038 899.215 232.041 899.199 232.047C899.188 232.053 899.177 232.06 899.167 232.069L898.183 229.551C898.001 229.084 897.716 228.664 897.351 228.322C896.986 227.979 896.549 227.722 896.072 227.57C895.595 227.418 895.089 227.374 894.593 227.442C894.097 227.509 893.622 227.687 893.203 227.962C892.552 228.407 892.074 229.063 891.848 229.819C891.623 230.575 891.664 231.385 891.964 232.115L892.383 233.186C892.358 233.212 892.337 233.243 892.322 233.277C891.871 232.619 891.201 232.143 890.432 231.934C889.663 231.724 888.844 231.795 888.122 232.134C887.343 232.528 886.741 233.202 886.437 234.021C886.132 234.839 886.148 235.743 886.48 236.551L887.52 239.213C887.479 239.185 887.432 239.168 887.383 239.162C887.334 239.157 887.284 239.163 887.238 239.181C887.184 239.204 887.139 239.243 887.106 239.293C886.542 238.818 885.837 238.541 885.1 238.506C884.363 238.471 883.635 238.679 883.028 239.098C882.4 239.551 881.942 240.203 881.73 240.948C881.518 241.693 881.564 242.488 881.86 243.205L890.637 265.664C891.865 268.805 894.003 271.509 896.777 273.428C899.552 275.347 902.836 276.393 906.209 276.434C909.118 276.468 911.925 275.367 914.035 273.365C916.145 271.362 917.391 268.616 917.509 265.71L917.648 262.172Z" fill="#E98862"/>
<g opacity="0.2">
<path opacity="0.2" d="M905.111 246.501C905.035 246.53 904.951 246.529 904.876 246.496C904.801 246.464 904.742 246.404 904.711 246.329L899.028 232.452C899.01 232.414 899 232.372 898.999 232.33C898.997 232.288 899.004 232.246 899.02 232.206C899.035 232.167 899.058 232.131 899.088 232.101C899.117 232.071 899.153 232.047 899.192 232.031C899.231 232.015 899.273 232.008 899.315 232.008C899.357 232.009 899.399 232.018 899.437 232.036C899.476 232.053 899.51 232.078 899.539 232.109C899.567 232.14 899.589 232.177 899.603 232.217L905.286 246.094C905.302 246.131 905.31 246.172 905.309 246.213C905.309 246.253 905.301 246.294 905.285 246.331C905.269 246.369 905.246 246.403 905.217 246.432C905.188 246.461 905.154 246.483 905.116 246.499L905.111 246.501Z" fill="#0C0C0C"/>
</g>
<g opacity="0.2">
<path opacity="0.2" d="M899.06 249.176C898.984 249.206 898.9 249.204 898.825 249.172C898.75 249.14 898.691 249.079 898.66 249.003L892.318 233.516C892.289 233.441 892.29 233.356 892.322 233.282C892.353 233.207 892.413 233.147 892.488 233.116C892.564 233.089 892.647 233.092 892.721 233.123C892.795 233.154 892.855 233.212 892.888 233.285L899.23 248.772C899.261 248.849 899.261 248.934 899.229 249.01C899.197 249.086 899.137 249.146 899.06 249.177V249.176Z" fill="#0C0C0C"/>
</g>
<g opacity="0.2">
<path opacity="0.2" d="M892.523 252.111C892.447 252.141 892.362 252.139 892.288 252.107C892.213 252.075 892.154 252.014 892.123 251.938L887.064 239.585C887.033 239.509 887.033 239.424 887.065 239.348C887.097 239.272 887.158 239.212 887.234 239.181C887.31 239.15 887.395 239.15 887.471 239.182C887.547 239.214 887.607 239.274 887.638 239.35L892.7 251.7C892.731 251.777 892.731 251.862 892.699 251.938C892.667 252.014 892.606 252.074 892.53 252.105L892.523 252.111Z" fill="#0C0C0C"/>
</g>
<path d="M987.941 295.463L936.261 374.919C934.381 377.807 931.863 380.226 928.902 381.989C924.498 379.56 920.247 376.862 916.175 373.91C907.495 367.648 899.652 360.301 892.835 352.048L881.98 267.884L925.423 260.923L930.376 301.435L950.224 270.922L987.941 295.463Z" fill="#367CFF"/>
<path d="M994 231.855C998.74 232.17 1003.45 230.896 1007.39 228.234C1007.52 228.143 1007.68 228.092 1007.85 228.088C1008.01 228.084 1008.17 228.126 1008.31 228.211C1008.46 228.296 1008.57 228.419 1008.64 228.566C1008.72 228.713 1008.75 228.878 1008.73 229.041C1008.41 231.841 1007.03 236.991 1001.16 237.647C997.362 238.07 994.613 235.157 993.228 233.22C993.132 233.086 993.077 232.928 993.068 232.763C993.059 232.599 993.098 232.435 993.179 232.292C993.26 232.148 993.38 232.031 993.526 231.954C993.671 231.876 993.836 231.842 994 231.855Z" fill="white"/>
<path d="M1098.46 334.887C1090.82 348.054 1080.86 359.731 1069.07 369.354C1066.33 371.579 1063.5 373.695 1060.59 375.7L1040.4 298.909L1085.86 286.952L1098.46 334.887Z" fill="#367CFF"/>
<path d="M1061.03 375.4C1060.88 375.494 1060.73 375.6 1060.58 375.7C1060.44 375.8 1060.3 375.9 1060.15 375.993L1044.77 317.493L1045.74 317.24L1061.03 375.4Z" fill="#0C0C0C"/>
<path d="M950.79 355.437C950.665 355.432 950.547 355.38 950.458 355.292C950.369 355.204 950.317 355.085 950.311 354.96L949.319 333.16C949.313 333.028 949.36 332.898 949.45 332.8C949.539 332.702 949.664 332.644 949.797 332.638C949.93 332.632 950.059 332.679 950.157 332.768C950.255 332.858 950.313 332.983 950.319 333.115L951.31 354.915C951.316 355.048 951.27 355.177 951.18 355.275C951.091 355.373 950.967 355.431 950.834 355.437H950.79Z" fill="#0C0C0C"/>
<path d="M576.92 557.165C647.676 557.165 705.035 499.806 705.035 429.05C705.035 358.294 647.676 300.935 576.92 300.935C506.164 300.935 448.805 358.294 448.805 429.05C448.805 499.806 506.164 557.165 576.92 557.165Z" fill="white"/>
<path opacity="0.09" d="M705.036 429.047C705.036 454.385 697.522 479.155 683.445 500.223C669.368 521.291 649.359 537.711 625.95 547.408C602.54 557.105 576.781 559.642 551.929 554.698C527.078 549.755 504.25 537.554 486.334 519.637C468.417 501.72 456.215 478.892 451.272 454.041C446.329 429.189 448.866 403.43 458.562 380.02C468.259 356.611 484.679 336.602 505.747 322.525C526.815 308.448 551.585 300.934 576.923 300.934C593.765 300.872 610.452 304.143 626.023 310.559C641.595 316.975 655.743 326.41 667.651 338.319C679.56 350.227 688.995 364.375 695.411 379.947C701.827 395.518 705.098 412.205 705.036 429.047Z" fill="#367CFF"/>
<path d="M520.21 353.485C520.21 353.485 518.922 372.825 514.57 379.842C502.044 400.042 498.415 422.767 510.959 434.642C523.503 446.517 603.514 446.68 609.575 419.372C614.675 396.382 603.727 393.91 601.063 374.945C599.857 366.364 596.54 348.37 596.54 348.37" fill="#0A0A0A"/>
<path d="M588.865 415.365C588.727 415.347 587.195 440.778 557.651 438.565C537.199 437.033 529.907 415.333 529.438 415.333C531.643 414.865 535.356 414.183 536.338 413.661C539.558 411.93 543.543 410.13 544.581 403.875C545.181 400.275 544.164 381.829 544.481 378.182L575.875 385.189C575.437 392.889 572.366 410.749 583.127 413.909C584.912 414.428 586.841 414.909 588.865 415.365Z" fill="#E98862"/>
<path opacity="0.5" d="M576.309 406.608C575.818 405.023 575.501 403.389 575.365 401.735C575.02 397.961 575.088 394.161 575.57 390.402C569.189 389.541 563.178 386.908 558.219 382.802C557.636 384.955 554.43 394.362 555.319 396.409C557 400.274 564.88 406.608 576.309 406.608Z" fill="#0C0C0C"/>
<path d="M572.25 398.685C559.872 399.885 543.857 394.931 540.54 378.448L537.546 363.575C534.229 347.092 540.197 331.987 555.716 328.864C571.236 325.74 585.526 336.764 588.843 353.251L590.169 359.835C591.442 366.16 594.334 396.548 572.25 398.685Z" fill="#E98862"/>
<path opacity="0.1" d="M564.381 377.089C566.418 376.846 567.925 375.438 567.746 373.943C567.568 372.449 565.772 371.435 563.736 371.678C561.699 371.921 560.192 373.329 560.371 374.823C560.549 376.318 562.345 377.332 564.381 377.089Z" fill="#0C0C0C"/>
<path opacity="0.1" d="M585.905 371.112C586.088 372.603 587.883 373.612 589.92 373.376C590.272 373.334 590.619 373.255 590.955 373.142C591.049 371.363 591.055 369.651 591.003 368.067C590.437 367.926 589.85 367.892 589.272 367.967C587.235 368.206 585.729 369.614 585.905 371.112Z" fill="#0C0C0C"/>
<path opacity="0.5" d="M576.905 375.723H576.935C577.564 375.59 578.185 375.423 578.795 375.223C579.706 374.923 580.895 374.418 580.733 373.594C580.544 372.654 575.933 363.039 575.406 361.945C575.357 361.855 575.275 361.788 575.177 361.756C575.08 361.725 574.974 361.732 574.882 361.777C574.79 361.821 574.718 361.899 574.682 361.995C574.645 362.09 574.647 362.196 574.686 362.291C576.653 366.391 579.822 373.119 579.949 373.751C579.849 374.046 578.338 374.622 576.777 374.937C576.678 374.959 576.591 375.019 576.534 375.103C576.478 375.188 576.455 375.29 576.472 375.391C576.488 375.491 576.542 375.581 576.622 375.643C576.703 375.705 576.804 375.735 576.905 375.725V375.723Z" fill="#0C0C0C"/>
<path d="M525.163 368.914L539.077 366.196C549.587 361.796 552.569 343.484 552.569 343.484C552.569 343.484 565.54 355.837 596.54 348.367C596.54 348.367 589.806 305.091 544.032 318.227C529.272 322.462 518.817 337.507 520.372 357.433C521.461 371.4 525.163 368.914 525.163 368.914Z" fill="#0A0A0A"/>
<path d="M542.514 383.276C537.798 384.225 532.959 379.949 532.014 375.232C531.069 370.515 534.364 367.145 539.081 366.196L542.147 368.867L546.573 382.46L542.514 383.276Z" fill="#E98862"/>
<path d="M578.751 354.277C579.931 353.441 581.311 352.934 582.751 352.807C583.474 352.738 584.203 352.778 584.914 352.926C585.631 353.072 586.327 353.307 586.986 353.626L587.007 353.635C587.08 353.664 587.161 353.665 587.233 353.636C587.306 353.608 587.365 353.552 587.399 353.481C587.432 353.411 587.437 353.33 587.412 353.255C587.388 353.181 587.336 353.119 587.267 353.082C586.569 352.713 585.828 352.435 585.06 352.252C584.287 352.064 583.491 351.993 582.697 352.042C581.09 352.131 579.536 352.649 578.197 353.542C578.145 353.575 578.1 353.618 578.065 353.669C578.031 353.719 578.006 353.776 577.994 353.837C577.981 353.897 577.981 353.959 577.993 354.019C578.005 354.08 578.029 354.137 578.064 354.188C578.099 354.239 578.143 354.282 578.195 354.315C578.247 354.349 578.305 354.371 578.365 354.382C578.426 354.392 578.488 354.39 578.548 354.376C578.608 354.362 578.664 354.336 578.714 354.3L578.724 354.293L578.751 354.277Z" fill="#0C0C0C"/>
<path d="M566.041 356.033C564.461 355.719 562.826 355.835 561.306 356.368C560.555 356.627 559.847 356.998 559.206 357.468C558.567 357.931 557.989 358.473 557.485 359.08C557.434 359.141 557.408 359.219 557.413 359.298C557.418 359.377 557.454 359.451 557.512 359.504C557.571 359.557 557.648 359.586 557.727 359.584C557.806 359.582 557.882 359.549 557.937 359.492L557.953 359.475C558.439 358.927 558.991 358.443 559.598 358.034C560.198 357.625 560.857 357.308 561.551 357.095C562.93 356.663 564.399 356.603 565.809 356.922L565.844 356.93C565.903 356.946 565.965 356.949 566.025 356.941C566.086 356.933 566.144 356.912 566.197 356.881C566.249 356.85 566.295 356.808 566.331 356.759C566.367 356.71 566.394 356.654 566.408 356.594C566.422 356.535 566.425 356.473 566.415 356.413C566.405 356.353 566.383 356.295 566.351 356.243C566.319 356.191 566.276 356.146 566.226 356.111C566.176 356.076 566.12 356.051 566.06 356.038L566.041 356.033Z" fill="#0C0C0C"/>
<path d="M539.086 365.968C548.439 362.487 551.542 356.028 552.499 351.221C553.117 348.016 553.059 344.716 552.329 341.534L552.039 341.614C552.759 344.755 552.814 348.011 552.202 351.174C551.259 355.901 548.202 362.257 538.981 365.687L539.086 365.968Z" fill="#0C0C0C"/>
<path d="M657.338 410.3L662.938 391.3C663.061 390.882 663.27 390.495 663.551 390.163C663.832 389.83 664.179 389.56 664.57 389.369C664.961 389.178 665.387 389.071 665.822 389.054C666.257 389.037 666.691 389.11 667.095 389.27C667.834 389.588 668.427 390.169 668.762 390.9C669.096 391.63 669.147 392.459 668.904 393.226L667.704 397.3L677.357 386.222C678.409 384.971 680.499 384.109 681.824 385.382C682.366 385.838 682.738 386.464 682.878 387.159C683.018 387.853 682.918 388.574 682.595 389.205C682.61 389.212 682.623 389.22 682.635 389.23C682.644 389.239 682.651 389.248 682.657 389.259L684.279 387.33C684.58 386.973 684.957 386.688 685.381 386.495C685.806 386.302 686.269 386.206 686.735 386.214C687.202 386.223 687.661 386.335 688.078 386.543C688.496 386.752 688.862 387.05 689.149 387.418C689.591 388.006 689.816 388.727 689.789 389.462C689.762 390.196 689.484 390.899 689 391.453L688.31 392.274C688.326 392.305 688.335 392.339 688.336 392.374C688.931 391.928 689.666 391.708 690.408 391.754C691.15 391.799 691.852 392.107 692.387 392.623C692.958 393.204 693.287 393.978 693.311 394.792C693.335 395.606 693.051 396.398 692.516 397.012L690.801 399.05C690.846 399.038 690.893 399.037 690.938 399.046C690.983 399.056 691.025 399.076 691.06 399.106C691.101 399.143 691.13 399.191 691.143 399.245C691.784 398.995 692.489 398.963 693.15 399.154C693.811 399.344 694.391 399.747 694.8 400.3C695.219 400.888 695.427 401.6 695.391 402.321C695.355 403.042 695.076 403.73 694.6 404.273L680.136 421.473C678.113 423.878 675.417 425.625 672.394 426.488C669.372 427.352 666.16 427.293 663.171 426.319C660.594 425.479 658.446 423.668 657.183 421.27C655.92 418.872 655.642 416.076 656.408 413.476L657.338 410.3Z" fill="#E98862"/>
<g opacity="0.2">
<path opacity="0.2" d="M673.09 400.222C673.148 400.269 673.222 400.291 673.297 400.285C673.371 400.279 673.441 400.245 673.49 400.189L682.656 389.642C682.707 389.584 682.732 389.508 682.726 389.432C682.721 389.355 682.685 389.284 682.627 389.234C682.569 389.184 682.494 389.158 682.417 389.164C682.341 389.169 682.269 389.205 682.219 389.263L673.053 399.809C673.028 399.837 673.009 399.871 672.997 399.907C672.985 399.943 672.98 399.981 672.983 400.019C672.986 400.057 672.996 400.094 673.013 400.128C673.03 400.162 673.053 400.192 673.082 400.217L673.09 400.222Z" fill="#0C0C0C"/>
</g>
<g opacity="0.2">
<path opacity="0.2" d="M677.631 404.392C677.689 404.439 677.763 404.462 677.837 404.456C677.912 404.45 677.981 404.415 678.031 404.359L688.26 392.589C688.284 392.56 688.304 392.527 688.316 392.491C688.328 392.455 688.332 392.417 688.33 392.379C688.327 392.341 688.317 392.304 688.3 392.27C688.283 392.236 688.259 392.206 688.231 392.181C688.172 392.133 688.097 392.11 688.021 392.115C687.945 392.12 687.874 392.154 687.823 392.21L677.601 403.98C677.576 404.009 677.557 404.042 677.545 404.078C677.533 404.114 677.528 404.152 677.531 404.19C677.533 404.228 677.543 404.265 677.56 404.299C677.577 404.333 677.601 404.363 677.63 404.388L677.631 404.392Z" fill="#0C0C0C"/>
</g>
<g opacity="0.2">
<path opacity="0.2" d="M682.521 408.938C682.579 408.985 682.653 409.008 682.728 409.002C682.803 408.996 682.872 408.961 682.921 408.905L691.081 399.517C691.127 399.458 691.148 399.384 691.141 399.311C691.134 399.237 691.099 399.169 691.043 399.12C690.987 399.071 690.914 399.046 690.84 399.049C690.766 399.052 690.696 399.084 690.644 399.137L682.484 408.526C682.46 408.554 682.44 408.588 682.428 408.624C682.416 408.66 682.412 408.698 682.414 408.736C682.417 408.774 682.427 408.811 682.444 408.845C682.461 408.879 682.485 408.909 682.513 408.934L682.521 408.938Z" fill="#0C0C0C"/>
</g>
<path d="M691.419 418.594L669.769 516.814C669.719 517.034 669.669 517.264 669.609 517.484C664.747 522.572 659.479 527.257 653.859 531.493C652.729 532.334 651.599 533.164 650.439 533.964C649.722 534.044 649.001 534.084 648.279 534.084C644.42 534.083 640.63 533.067 637.288 531.138C633.946 529.209 631.17 526.435 629.239 523.094L587.979 451.7L626.079 429.691L638.989 452.031L648.449 409.121L691.419 418.594Z" fill="#0CBC8B"/>
<path d="M624.789 463.374C624.659 464.933 624.399 467.714 624.039 471.374C622.239 490.084 618.029 531.784 616.079 551.054C591.445 558.93 565.009 559.198 540.219 551.824H540.209C521.902 546.344 505.056 536.831 490.909 523.984C490.989 506.754 490.739 487.374 489.579 474.914C486.109 437.683 489.389 431.854 494.779 426.464C495.219 426.024 495.679 425.594 496.139 425.174C501.709 420.114 508.699 416.814 518.889 415.433C525.629 414.524 535.769 413.864 535.769 413.864C535.769 413.864 536.629 431.243 557.099 432.203C584.969 433.514 583.109 413.864 583.249 413.864C590.259 413.864 605.859 414.304 615.699 419.314C615.709 419.314 615.709 419.314 615.719 419.324C617.701 420.289 619.503 421.584 621.049 423.154C632.319 435.094 626.759 440.2 624.789 463.374Z" fill="#0CBC8B"/>
<path d="M581.054 378.972C577.032 381.016 572.444 381.663 568.014 380.81C567.861 380.781 567.702 380.796 567.557 380.854C567.412 380.911 567.286 381.009 567.195 381.136C567.103 381.262 567.05 381.412 567.041 381.568C567.031 381.724 567.066 381.879 567.142 382.016C568.465 384.343 571.596 388.322 576.97 386.701C580.44 385.654 581.752 382.084 582.238 379.875C582.272 379.722 582.261 379.563 582.207 379.416C582.153 379.269 582.058 379.141 581.934 379.046C581.81 378.951 581.661 378.893 581.505 378.88C581.349 378.867 581.193 378.899 581.054 378.972Z" fill="white"/>
<path d="M581.306 361.086C582.379 361.086 583.249 360.216 583.249 359.143C583.249 358.07 582.379 357.2 581.306 357.2C580.233 357.2 579.363 358.07 579.363 359.143C579.363 360.216 580.233 361.086 581.306 361.086Z" fill="#0C0C0C"/>
<path d="M562.632 364.355C563.706 364.355 564.575 363.485 564.575 362.412C564.575 361.339 563.706 360.469 562.632 360.469C561.559 360.469 560.689 361.339 560.689 362.412C560.689 363.485 561.559 364.355 562.632 364.355Z" fill="#0C0C0C"/>
<path d="M620.492 505.319C620.479 505.32 620.467 505.32 620.454 505.319C620.375 505.308 620.304 505.266 620.256 505.203C620.208 505.14 620.187 505.06 620.198 504.981L623.633 470.372C623.638 470.333 623.65 470.295 623.67 470.26C623.69 470.226 623.716 470.196 623.748 470.172C623.78 470.148 623.816 470.131 623.854 470.121C623.893 470.111 623.933 470.11 623.972 470.116C624.051 470.127 624.122 470.169 624.17 470.232C624.218 470.295 624.239 470.375 624.228 470.454L620.793 505.063C620.782 505.135 620.746 505.201 620.691 505.248C620.635 505.295 620.565 505.32 620.492 505.319Z" fill="#0C0C0C"/>
<path d="M599.7 503.652L618.475 495.267C618.888 495.084 619.334 494.988 619.785 494.986C620.236 494.985 620.683 495.077 621.097 495.257C621.51 495.437 621.882 495.701 622.188 496.032C622.495 496.364 622.729 496.755 622.875 497.182C623.122 497.979 623.065 498.839 622.714 499.595C622.363 500.352 621.743 500.951 620.975 501.277L616.949 503.077L632.205 503.234C633.905 503.222 635.991 504.292 635.879 506.196C635.884 506.931 635.64 507.647 635.186 508.225C634.732 508.804 634.095 509.212 633.379 509.382C633.384 509.398 633.386 509.414 633.386 509.43C633.385 509.442 633.382 509.455 633.379 509.467L635.995 509.449C636.479 509.446 636.958 509.551 637.396 509.756C637.835 509.961 638.222 510.261 638.53 510.635C638.838 511.008 639.058 511.446 639.176 511.915C639.293 512.385 639.304 512.875 639.208 513.349C639.041 514.093 638.623 514.758 638.025 515.231C637.426 515.704 636.683 515.958 635.92 515.949L634.807 515.957C634.793 515.989 634.773 516.019 634.747 516.044C635.501 516.213 636.169 516.645 636.634 517.262C637.098 517.878 637.328 518.64 637.282 519.411C637.207 520.253 636.818 521.035 636.191 521.602C635.565 522.169 634.747 522.48 633.902 522.471L631.137 522.49C631.177 522.517 631.209 522.554 631.231 522.596C631.254 522.638 631.266 522.685 631.266 522.733C631.264 522.79 631.246 522.844 631.213 522.891C631.843 523.228 632.345 523.764 632.641 524.414C632.936 525.065 633.01 525.794 632.85 526.491C632.669 527.218 632.247 527.863 631.653 528.321C631.06 528.779 630.329 529.023 629.579 529.014L606.25 529.18C602.987 529.203 599.79 528.251 597.071 526.446C594.352 524.641 592.234 522.065 590.988 519.048C589.914 516.447 589.896 513.529 590.939 510.915C591.982 508.3 594.003 506.196 596.572 505.048L599.7 503.652Z" fill="#E98862"/>
<g opacity="0.2">
<path opacity="0.2" d="M618.278 509.3C618.278 509.38 618.31 509.456 618.366 509.512C618.422 509.568 618.499 509.6 618.578 509.6L633.086 509.731C633.166 509.732 633.242 509.701 633.299 509.645C633.356 509.589 633.388 509.513 633.389 509.434C633.389 509.354 633.359 509.277 633.303 509.221C633.247 509.164 633.171 509.132 633.091 509.131L618.581 509C618.502 509 618.425 509.032 618.369 509.088C618.313 509.144 618.281 509.22 618.281 509.3H618.278Z" fill="#0C0C0C"/>
</g>
<g opacity="0.2">
<path opacity="0.2" d="M618.044 515.7C618.044 515.779 618.076 515.856 618.132 515.912C618.189 515.968 618.265 516 618.344 516L634.534 516.146C634.614 516.146 634.69 516.114 634.747 516.058C634.803 516.002 634.834 515.925 634.834 515.846C634.832 515.767 634.8 515.692 634.744 515.636C634.688 515.58 634.613 515.548 634.534 515.546L618.343 515.4C618.264 515.4 618.188 515.431 618.131 515.488C618.075 515.544 618.043 515.62 618.043 515.7H618.044Z" fill="#0C0C0C"/>
</g>
<g opacity="0.2">
<path opacity="0.2" d="M617.75 522.623C617.75 522.702 617.782 522.779 617.838 522.835C617.895 522.891 617.971 522.923 618.05 522.923L630.966 523.04C631.045 523.04 631.121 523.008 631.178 522.952C631.234 522.896 631.266 522.819 631.266 522.74C631.266 522.66 631.234 522.584 631.178 522.528C631.121 522.471 631.045 522.44 630.966 522.44L618.05 522.324C617.971 522.324 617.895 522.355 617.838 522.412C617.782 522.468 617.75 522.544 617.75 522.624V522.623Z" fill="#0C0C0C"/>
</g>
<path d="M605.079 537.084L540.219 551.824H540.209C521.902 546.344 505.056 536.831 490.909 523.984C489.389 522.604 487.903 521.191 486.449 519.743C483.916 517.215 481.493 514.585 479.179 511.854L488.259 438.814C489.25 432.926 492.539 427.673 497.402 424.21C502.266 420.748 508.306 419.359 514.194 420.349C520.082 421.34 525.335 424.629 528.798 429.492C532.261 434.356 533.65 440.396 532.659 446.284L526.919 514.864L599.239 498.493L605.079 537.084Z" fill="#0CBC8B"/>
<path d="M512.29 517.558C512.251 517.561 512.211 517.556 512.174 517.544C512.136 517.531 512.101 517.512 512.071 517.486C512.041 517.46 512.017 517.429 511.999 517.394C511.981 517.358 511.971 517.32 511.968 517.28C511.965 517.241 511.97 517.201 511.982 517.164C511.994 517.126 512.014 517.092 512.04 517.062C512.065 517.032 512.097 517.007 512.132 516.989C512.167 516.972 512.206 516.961 512.245 516.958L526.745 513.858C526.784 513.852 526.824 513.854 526.862 513.863C526.901 513.873 526.937 513.89 526.968 513.913C527 513.936 527.027 513.966 527.047 514C527.068 514.033 527.081 514.071 527.087 514.11C527.093 514.149 527.091 514.189 527.081 514.227C527.072 514.265 527.055 514.301 527.031 514.333C527.008 514.365 526.978 514.391 526.944 514.412C526.911 514.432 526.873 514.445 526.834 514.451L512.329 517.551C512.316 517.554 512.303 517.557 512.29 517.558Z" fill="#0C0C0C"/>
<path d="M605.079 537.084C605.095 537.161 605.082 537.241 605.041 537.308C605 537.375 604.935 537.423 604.859 537.444L541.849 552.294C541.449 552.183 541.059 552.074 540.669 551.953L604.419 536.944L598.739 498.944L526.849 514.453C526.802 514.46 526.755 514.457 526.71 514.444C526.665 514.43 526.623 514.406 526.589 514.374C526.559 514.338 526.537 514.296 526.523 514.252C526.509 514.207 526.504 514.16 526.509 514.114L530.539 474.924C530.546 474.885 530.561 474.848 530.582 474.815C530.604 474.782 530.631 474.753 530.664 474.731C530.696 474.708 530.733 474.693 530.772 474.684C530.81 474.676 530.85 474.676 530.889 474.683C530.967 474.695 531.037 474.738 531.084 474.802C531.131 474.866 531.151 474.945 531.139 475.024L527.169 513.814L598.869 498.274C598.908 498.263 598.949 498.261 598.989 498.268C599.028 498.275 599.066 498.29 599.099 498.314C599.133 498.332 599.164 498.358 599.188 498.389C599.212 498.419 599.229 498.455 599.239 498.493L605.079 537.084Z" fill="#0C0C0C"/>
<path d="M117.474 704.777C182.353 704.777 234.948 652.182 234.948 587.303C234.948 522.424 182.353 469.829 117.474 469.829C52.5949 469.829 0 522.424 0 587.303C0 652.182 52.5949 704.777 117.474 704.777Z" fill="white"/>
<path opacity="0.09" d="M117.474 704.777C182.353 704.777 234.948 652.182 234.948 587.303C234.948 522.424 182.353 469.829 117.474 469.829C52.5949 469.829 0 522.424 0 587.303C0 652.182 52.5949 704.777 117.474 704.777Z" fill="#367CFF"/>
<path d="M85.1226 520.672C85.1226 520.672 86.3956 556.053 110.011 557.679L114.011 511.023L85.1226 520.672Z" fill="#0A0A0A"/>
<path d="M89.6707 564.906C97.3971 564.906 103.661 558.643 103.661 550.916C103.661 543.19 97.3971 536.926 89.6707 536.926C81.9442 536.926 75.6807 543.19 75.6807 550.916C75.6807 558.643 81.9442 564.906 89.6707 564.906Z" fill="#0A0A0A"/>
<path d="M144.41 574.1C144.285 574.083 142.903 597.025 116.251 595.025C97.7998 593.646 91.2218 574.07 90.7998 574.07C92.9082 573.72 94.9882 573.216 97.0228 572.561C99.9278 571 103.523 569.376 104.459 563.734C104.999 560.482 104.084 543.845 104.365 540.555L132.687 546.877C132.287 553.825 129.521 569.934 139.229 572.786C140.843 573.257 142.583 573.691 144.41 574.1Z" fill="#E98862"/>
<path opacity="0.5" d="M133.083 566.2C132.639 564.769 132.353 563.294 132.231 561.8C131.92 558.396 131.982 554.968 132.416 551.577C126.659 550.8 121.236 548.424 116.763 544.719C116.237 546.661 113.345 555.148 114.146 556.993C115.66 560.489 122.773 566.2 133.083 566.2Z" fill="#0C0C0C"/>
<path d="M128.646 560.019C117.429 560.162 103.406 554.502 101.668 539.434L100.1 525.834C98.3605 510.766 104.866 497.634 119.054 496.001C133.241 494.365 145.254 505.356 146.993 520.425L147.687 526.444C148.354 532.229 148.66 559.765 128.646 560.019Z" fill="#E98862"/>
<path d="M143.621 526.04C144.592 526.04 145.38 525.253 145.38 524.281C145.38 523.31 144.592 522.522 143.621 522.522C142.649 522.522 141.862 523.31 141.862 524.281C141.862 525.253 142.649 526.04 143.621 526.04Z" fill="#0C0C0C"/>
<path d="M125.642 528.096C126.613 528.096 127.401 527.309 127.401 526.337C127.401 525.366 126.613 524.578 125.642 524.578C124.67 524.578 123.883 525.366 123.883 526.337C123.883 527.309 124.67 528.096 125.642 528.096Z" fill="#0C0C0C"/>
<path opacity="0.5" d="M134.564 539.729H134.592C135.167 539.658 135.737 539.556 136.301 539.423C137.143 539.218 138.253 538.858 138.166 538.104C138.066 537.246 134.647 528.253 134.257 527.231C134.24 527.187 134.214 527.147 134.182 527.112C134.149 527.078 134.111 527.05 134.067 527.031C134.024 527.012 133.978 527.001 133.93 527C133.883 526.998 133.836 527.006 133.792 527.023C133.748 527.04 133.707 527.065 133.673 527.098C133.638 527.13 133.611 527.169 133.591 527.213C133.572 527.256 133.562 527.302 133.56 527.35C133.559 527.397 133.567 527.444 133.584 527.488C135.043 531.317 137.384 537.609 137.45 538.188C136.55 538.695 135.541 538.978 134.509 539.014C134.414 539.021 134.325 539.066 134.263 539.139C134.201 539.211 134.17 539.306 134.177 539.401C134.185 539.496 134.229 539.584 134.302 539.647C134.374 539.709 134.469 539.739 134.564 539.732V539.729Z" fill="#0C0C0C"/>
<path opacity="0.5" d="M132.028 546C134.332 545.868 136.573 545.197 138.571 544.041C138.649 543.992 138.706 543.915 138.729 543.826C138.753 543.736 138.741 543.641 138.696 543.56C138.651 543.479 138.577 543.418 138.489 543.39C138.4 543.362 138.305 543.37 138.222 543.41C133.908 545.797 129.782 545.935 126.292 543.81C126.221 543.765 126.148 543.724 126.074 543.686C125.987 543.653 125.891 543.654 125.805 543.689C125.719 543.724 125.65 543.791 125.613 543.876C125.575 543.961 125.571 544.057 125.603 544.144C125.634 544.232 125.698 544.304 125.781 544.345C125.808 544.359 125.854 544.387 125.917 544.426C127.751 545.548 129.879 546.096 132.028 546Z" fill="#0C0C0C"/>
<path d="M88.5647 529.7L101.278 528.307C111.057 525.149 115.12 508.907 115.12 508.907C115.12 508.907 123.883 518.872 149.851 514.322C149.851 514.322 148.845 480.844 109.351 485.557C95.5997 487.2 85.2307 500.99 85.1237 519.021C85.0497 531.656 88.5647 529.7 88.5647 529.7Z" fill="#0A0A0A"/>
<path d="M103.079 543.923C98.7666 544.423 94.7395 540.211 94.2425 535.899C93.7455 531.587 96.9656 528.807 101.278 528.31L103.833 530.942L106.786 543.495L103.079 543.923Z" fill="#E98862"/>
<path d="M137.4 519.892C138.671 519.188 140.109 518.839 141.562 518.88C142.279 518.896 142.99 519.02 143.671 519.247C144.347 519.47 144.992 519.776 145.592 520.16C145.652 520.198 145.695 520.258 145.712 520.327C145.729 520.396 145.718 520.469 145.683 520.531C145.647 520.592 145.589 520.638 145.521 520.658C145.453 520.678 145.38 520.671 145.317 520.638L145.299 520.628C144.731 520.291 144.123 520.026 143.489 519.841C142.861 519.654 142.208 519.562 141.553 519.57C140.249 519.577 138.97 519.928 137.846 520.589L137.819 520.606C137.772 520.637 137.72 520.658 137.665 520.668C137.611 520.677 137.555 520.676 137.5 520.664C137.446 520.652 137.395 520.629 137.35 520.596C137.305 520.564 137.266 520.523 137.238 520.475C137.209 520.428 137.19 520.375 137.182 520.32C137.174 520.265 137.177 520.209 137.191 520.155C137.205 520.101 137.23 520.051 137.264 520.007C137.298 519.963 137.34 519.926 137.389 519.899L137.4 519.892Z" fill="#0C0C0C"/>
<path d="M126.006 521.988C124.763 521.594 123.437 521.537 122.165 521.823C121.524 521.963 120.908 522.199 120.338 522.523C119.761 522.846 119.228 523.239 118.75 523.694L118.735 523.708C118.68 523.749 118.613 523.768 118.546 523.761C118.478 523.755 118.415 523.725 118.369 523.675C118.323 523.626 118.296 523.561 118.295 523.494C118.293 523.426 118.316 523.36 118.36 523.308C118.858 522.801 119.419 522.358 120.028 521.989C120.641 521.616 121.306 521.337 122.002 521.16C123.409 520.796 124.888 520.816 126.285 521.217C126.339 521.231 126.389 521.256 126.434 521.29C126.478 521.323 126.515 521.366 126.542 521.414C126.57 521.463 126.587 521.516 126.593 521.572C126.6 521.627 126.595 521.683 126.579 521.737C126.563 521.79 126.536 521.84 126.501 521.883C126.465 521.926 126.422 521.961 126.372 521.986C126.323 522.012 126.268 522.027 126.213 522.031C126.157 522.036 126.101 522.028 126.049 522.01H126.038L126.006 521.988Z" fill="#0C0C0C"/>
<path opacity="0.52" d="M132.269 549.407C132.686 549.39 133.101 549.337 133.509 549.25C133.6 549.228 133.678 549.171 133.728 549.091C133.777 549.012 133.794 548.917 133.775 548.825C133.756 548.734 133.702 548.653 133.624 548.601C133.547 548.548 133.452 548.528 133.36 548.544C132.722 548.731 132.053 548.779 131.395 548.685C130.738 548.592 130.108 548.359 129.548 548.003C129.474 547.943 129.379 547.914 129.284 547.924C129.189 547.933 129.101 547.98 129.041 548.054C128.98 548.128 128.952 548.223 128.961 548.318C128.971 548.413 129.018 548.501 129.092 548.561C130.021 549.202 131.144 549.501 132.269 549.407Z" fill="#0C0C0C"/>
<path opacity="0.1" d="M123.206 540.008C125.055 539.943 126.516 538.791 126.468 537.434C126.421 536.078 124.883 535.03 123.034 535.095C121.184 535.16 119.723 536.312 119.771 537.669C119.818 539.026 121.356 540.073 123.206 540.008Z" fill="#0C0C0C"/>
<path opacity="0.1" d="M143 536.263C143.052 537.618 144.589 538.663 146.439 538.602C146.759 538.591 147.076 538.546 147.387 538.469C147.606 536.877 147.74 535.339 147.813 533.911C147.315 533.741 146.79 533.666 146.264 533.689C144.418 533.751 142.958 534.9 143 536.263Z" fill="#0C0C0C"/>
<path d="M184.215 598.264C184.135 606.274 181.385 615.824 180.405 627.364C180.145 630.444 173.534 639.354 172.574 649.264C171.364 661.884 174.055 681.564 174.415 690.074C155.833 700.356 134.813 705.414 113.588 704.709C92.3625 704.005 71.7243 697.565 53.8648 686.074C53.3848 664.214 52.8148 637.224 52.0848 630.754C49.7148 609.394 50.3548 595.884 53.7748 589.564C59.3648 579.244 69.3148 576.094 79.7248 574.674C86.0848 573.814 95.6348 573.204 95.6348 573.204C95.6348 573.204 96.4448 589.574 115.745 590.484C142.015 591.724 140.265 573.204 140.395 573.204C149.925 573.204 167.985 575.484 174.905 580.204C182.245 585.194 184.305 591.114 184.215 598.264Z" fill="#FFC239"/>
<path d="M93.4549 610.724L57.8149 688.5C44.1309 680.422 32.2248 669.655 22.8149 656.85L52.5449 591.97L93.4549 610.724Z" fill="#FFC239"/>
<path d="M213.005 655.674C206.023 665.415 197.596 674.034 188.015 681.234C184.861 683.615 181.587 685.831 178.205 687.874L141.625 607.454L182.585 588.814L213.005 655.674Z" fill="#FFC239"/>
<path d="M361.956 244.618C429.505 244.618 484.265 189.858 484.265 122.309C484.265 54.7596 429.505 0 361.956 0C294.407 0 239.647 54.7596 239.647 122.309C239.647 189.858 294.407 244.618 361.956 244.618Z" fill="white"/>
<path opacity="0.09" d="M361.956 244.618C429.505 244.618 484.265 189.858 484.265 122.309C484.265 54.7596 429.505 0 361.956 0C294.407 0 239.647 54.7596 239.647 122.309C239.647 189.858 294.407 244.618 361.956 244.618Z" fill="#367CFF"/>
<path d="M385.606 49.0681C385.606 49.0681 393.351 40.6741 392.752 24.6861C392.289 12.3071 382.573 22.1401 382.573 22.1401C382.573 22.1401 382.152 13.2301 375.973 15.2401C369.794 17.2501 367.894 27.0341 367.894 27.0341" fill="#0C0C0C"/>
<path d="M343.388 22.1899C343.388 22.1899 312.543 31.2549 331.629 71.8209L334.446 71.5029L340.164 70.8589" fill="#0C0C0C"/>
<path d="M387.1 113.9C386.96 113.882 385.4 139.76 355.337 137.5C334.525 135.941 327.104 113.86 326.627 113.86C328.871 113.383 331.644 112.66 332.746 112.411C335.148 111.854 337.323 110.578 338.983 108.754C340.642 106.93 341.707 104.644 342.035 102.2C342.644 98.5322 341.611 79.7662 341.929 76.0552L373.875 83.1852C373.429 91.0242 370.305 109.195 381.255 112.411C383.078 112.944 385.041 113.434 387.1 113.9Z" fill="#E98862"/>
<path opacity="0.52" d="M374.324 104.986C373.824 103.373 373.502 101.711 373.363 100.028C373.012 96.1881 373.082 92.3211 373.572 88.4963C367.079 87.6198 360.961 84.9396 355.916 80.7603C355.322 82.9513 352.06 92.5243 352.963 94.6063C354.671 98.5423 362.694 104.986 374.324 104.986Z" fill="#0C0C0C"/>
<path d="M369.109 96.7469C356.509 97.8799 340.244 92.7309 336.983 75.9349L334.04 60.7799C330.779 43.9799 336.957 28.6549 352.771 25.5849C368.585 22.5139 383.049 33.8349 386.311 50.6309L387.611 57.3399C388.019 59.6512 388.268 61.9876 388.357 64.3329C388.639 70.5329 389.044 79.9559 386.064 86.9219C383.252 93.4999 377.161 96.0239 369.109 96.7469Z" fill="#E98862"/>
<path opacity="0.5" d="M371.014 80.1419C373.321 80.0984 375.587 79.5134 377.627 78.4339C377.671 78.4138 377.711 78.3849 377.744 78.349C377.777 78.3132 377.802 78.271 377.818 78.2251C377.834 78.1792 377.841 78.1305 377.838 78.0819C377.835 78.0333 377.822 77.9858 377.8 77.9424C377.778 77.8989 377.748 77.8603 377.71 77.829C377.673 77.7976 377.63 77.7741 377.583 77.7598C377.537 77.7456 377.488 77.7409 377.44 77.746C377.391 77.7512 377.344 77.7661 377.302 77.7899C372.902 80.0109 368.773 79.9899 365.366 77.7359C365.297 77.6882 365.226 77.6442 365.153 77.6039C365.11 77.583 365.064 77.5707 365.017 77.5676C364.97 77.5646 364.922 77.5709 364.877 77.5862C364.833 77.6015 364.791 77.6254 364.756 77.6567C364.72 77.6879 364.691 77.7259 364.67 77.7684C364.649 77.8108 364.637 77.857 364.634 77.9043C364.631 77.9515 364.637 77.9989 364.653 78.0437C364.668 78.0885 364.692 78.1298 364.723 78.1654C364.754 78.2009 364.792 78.23 364.835 78.2509C364.862 78.2659 364.906 78.2959 364.968 78.3369C366.758 79.5269 368.864 80.1554 371.014 80.1419Z" fill="#0C0C0C"/>
<path opacity="0.52" d="M371.125 83.5588C371.542 83.5576 371.958 83.5208 372.37 83.4488C372.416 83.4409 372.461 83.4238 372.501 83.3986C372.541 83.3735 372.576 83.3407 372.603 83.3021C372.63 83.2635 372.65 83.2199 372.66 83.1738C372.671 83.1277 372.672 83.0799 372.664 83.0333C372.656 82.9867 372.639 82.9421 372.614 82.9021C372.589 82.862 372.556 82.8274 372.517 82.8C372.479 82.7727 372.435 82.7532 372.389 82.7427C372.343 82.7322 372.295 82.7309 372.249 82.7388C371.605 82.9002 370.933 82.9224 370.28 82.8041C369.627 82.6859 369.006 82.4297 368.46 82.0528C368.388 81.992 368.295 81.9618 368.201 81.9687C368.107 81.9756 368.019 82.0191 367.957 82.0897C367.895 82.1604 367.863 82.2526 367.868 82.3467C367.873 82.4407 367.914 82.5291 367.984 82.5928C368.887 83.2685 369.997 83.6099 371.125 83.5588Z" fill="#0C0C0C"/>
<path d="M382.526 61.572C383.621 61.572 384.51 60.6837 384.51 59.588C384.51 58.4923 383.621 57.604 382.526 57.604C381.43 57.604 380.542 58.4923 380.542 59.588C380.542 60.6837 381.43 61.572 382.526 61.572Z" fill="#0C0C0C"/>
<path d="M363.234 63.8269C364.329 63.8269 365.217 62.9386 365.217 61.8429C365.217 60.7472 364.329 59.8589 363.234 59.8589C362.138 59.8589 361.25 60.7472 361.25 61.8429C361.25 62.9386 362.138 63.8269 363.234 63.8269Z" fill="#0C0C0C"/>
<path d="M338.959 80.861C334.153 81.794 329.259 77.409 328.325 72.603C327.391 67.797 330.774 64.391 335.579 63.458L338.679 66.197L343.089 80.059L338.959 80.861Z" fill="#E98862"/>
<path d="M342.35 72.2529C342.35 72.2529 339.665 48.1379 346.622 45.3599C351.255 43.5089 364.156 48.2209 374.589 44.2049C379.153 42.4469 383.853 42.8049 384.713 44.9559C385.054 45.8069 385.7 32.5679 376.551 24.2649C369.267 17.6549 349.587 18.9779 341.267 23.0839C318.23 34.4529 334.776 64.6839 334.776 64.6839L337.346 72.6999L342.35 72.2529Z" fill="#0C0C0C"/>
<g opacity="0.52">
<path opacity="0.52" d="M373.971 74.1697H374.002C375.552 73.8697 378.118 73.2027 377.902 72.0437C377.717 71.0827 373.102 61.2187 372.578 60.0977C372.556 60.05 372.525 60.0071 372.486 59.9716C372.447 59.936 372.401 59.9085 372.351 59.8906C372.302 59.8727 372.249 59.8647 372.197 59.8671C372.144 59.8695 372.092 59.8823 372.044 59.9047C371.997 59.9271 371.954 59.9587 371.918 59.9976C371.883 60.0366 371.855 60.0821 371.837 60.1317C371.819 60.1813 371.811 60.2339 371.814 60.2866C371.816 60.3393 371.829 60.391 371.851 60.4387C373.897 64.8067 376.987 71.5387 377.113 72.1937C377.013 72.4937 375.461 73.0727 373.857 73.3797C373.751 73.3955 373.656 73.4528 373.592 73.5389C373.528 73.6251 373.501 73.7331 373.517 73.8392C373.533 73.9453 373.59 74.0408 373.676 74.1046C373.762 74.1685 373.87 74.1955 373.976 74.1797L373.971 74.1697Z" fill="#0C0C0C"/>
</g>
<path d="M375.068 50.0001C376.618 49.2567 378.341 48.9457 380.054 49.1001C380.894 49.1708 381.719 49.367 382.501 49.6821C383.273 49.9891 384.003 50.3923 384.675 50.8821C384.799 50.9683 384.885 51.0994 384.915 51.248C384.945 51.3965 384.916 51.5508 384.835 51.6784C384.753 51.8061 384.625 51.8971 384.478 51.9322C384.33 51.9674 384.175 51.9441 384.045 51.8671L384 51.8511C383.391 51.4624 382.736 51.1516 382.05 50.9261C381.375 50.7008 380.67 50.5791 379.959 50.5651C378.556 50.526 377.169 50.8582 375.937 51.5281L375.886 51.5571C375.785 51.6143 375.675 51.6513 375.56 51.6658C375.446 51.6804 375.329 51.6722 375.218 51.6418C375.107 51.6114 375.002 51.5593 374.911 51.4886C374.82 51.4179 374.743 51.3299 374.686 51.2296C374.629 51.1293 374.592 51.0188 374.577 50.9042C374.563 50.7897 374.571 50.6734 374.601 50.562C374.632 50.4506 374.684 50.3463 374.755 50.2551C374.825 50.1638 374.913 50.0873 375.014 50.0301L375.068 50.0001Z" fill="#0C0C0C"/>
<path d="M363.693 53.0741C362.342 52.6962 360.916 52.6813 359.558 53.0311C358.868 53.2028 358.207 53.4783 357.6 53.8481C356.98 54.2204 356.409 54.6689 355.9 55.1831L355.868 55.2151C355.758 55.3212 355.612 55.3803 355.459 55.3798C355.307 55.3793 355.16 55.3192 355.051 55.2124C354.942 55.1056 354.88 54.9605 354.876 54.808C354.873 54.6555 354.929 54.5077 355.033 54.3961C355.578 53.7679 356.199 53.2111 356.884 52.7391C357.577 52.2577 358.337 51.8825 359.141 51.6261C359.944 51.3613 360.78 51.2078 361.625 51.1701C362.49 51.1225 363.358 51.1979 364.202 51.3941C364.429 51.4471 364.626 51.5882 364.749 51.7862C364.872 51.9843 364.911 52.2231 364.858 52.4501C364.805 52.6771 364.664 52.8738 364.466 52.9968C364.268 53.1198 364.029 53.1591 363.802 53.1061L363.75 53.0921L363.693 53.0741Z" fill="#0C0C0C"/>
<path d="M369.777 34.0236C373.207 32.6334 374.329 27.413 372.283 22.3636C370.237 17.3143 365.797 14.3479 362.367 15.7381C358.936 17.1284 357.814 22.3487 359.861 27.3981C361.907 32.4475 366.347 35.4138 369.777 34.0236Z" fill="#0C0C0C"/>
<path d="M428.65 140.641C428.77 148.931 425.53 158.251 424.45 170.871C424.23 173.431 423.71 179.071 423.02 186.421C421.89 198.591 420.29 215.421 418.89 230.591C398.869 241.1 376.329 245.86 353.768 244.346C331.208 242.832 309.507 235.101 291.07 222.011C290.63 221.681 290.19 221.361 289.75 221.051C288.58 203.901 287.2 185.901 285.94 174.531C283.57 153.301 280.34 142.731 282.15 135.591C282.295 134.983 282.489 134.388 282.73 133.811C287.94 121.171 304.53 115.531 315.77 114.011C322.63 113.081 332.95 112.411 332.95 112.411C332.95 112.411 333.82 130.091 354.65 131.071C383.01 132.411 381.12 112.411 381.26 112.411C385.85 112.411 410.86 115.751 417.11 119.831C418.158 120.511 419.16 121.26 420.11 122.071C422.825 124.336 425.001 127.178 426.478 130.391C427.956 133.604 428.698 137.105 428.65 140.641Z" fill="#383838"/>
<path d="M324.23 153.461L291.07 222.011C290.63 221.681 290.19 221.361 289.75 221.051C276.895 211.625 265.993 199.793 257.65 186.211L282.15 135.591L283.12 133.581L324.23 153.461Z" fill="#383838"/>
<path d="M321.03 161.351L290.87 221.861C290.67 221.711 290.48 221.571 290.28 221.441L320.4 161.041C320.443 160.957 320.517 160.893 320.607 160.863C320.697 160.833 320.795 160.84 320.88 160.881C320.962 160.924 321.024 160.997 321.052 161.085C321.08 161.173 321.072 161.269 321.03 161.351Z" fill="white"/>
<path d="M473.95 171.551C467.939 185.175 459.498 197.59 449.04 208.191L423.02 186.421L389.97 158.761L420.11 122.071L420.2 121.961L473.95 171.551Z" fill="#383838"/>
<path d="M423.421 186.688C423.506 186.684 423.586 186.649 423.648 186.59C423.709 186.531 423.747 186.452 423.754 186.367L425.471 166.237C425.479 166.144 425.45 166.052 425.39 165.98C425.33 165.909 425.244 165.864 425.151 165.856C425.058 165.849 424.967 165.879 424.896 165.939C424.825 165.998 424.78 166.084 424.771 166.176L423.054 186.307C423.046 186.4 423.076 186.492 423.136 186.563C423.195 186.634 423.281 186.679 423.374 186.687L423.421 186.688Z" fill="white"/>
<path d="M937.877 774.25C1002.31 774.25 1054.53 722.021 1054.53 657.593C1054.53 593.165 1002.31 540.936 937.877 540.936C873.449 540.936 821.22 593.165 821.22 657.593C821.22 722.021 873.449 774.25 937.877 774.25Z" fill="white"/>
<path opacity="0.09" d="M821.219 657.59C821.219 680.662 828.06 703.216 840.878 722.4C853.697 741.584 871.916 756.536 893.231 765.366C914.547 774.195 938.003 776.506 960.632 772.005C983.261 767.503 1004.05 756.393 1020.36 740.079C1036.68 723.764 1047.79 702.978 1052.29 680.349C1056.79 657.721 1054.48 634.265 1045.65 612.949C1036.82 591.633 1021.87 573.414 1002.68 560.596C983.5 547.778 960.946 540.936 937.874 540.936C922.539 540.879 907.344 543.858 893.166 549.701C878.987 555.543 866.105 564.134 855.261 574.977C844.417 585.821 835.827 598.703 829.984 612.882C824.142 627.06 821.163 642.255 821.219 657.59Z" fill="#367CFF"/>
<path d="M990.811 593.218C988.948 614.818 990.675 622.142 999.644 634.518C1007.21 644.952 964.166 636.083 945.122 632.691L961.927 583.573C961.927 583.573 991.465 585.633 990.811 593.218Z" fill="#0A0A0A"/>
<path d="M925.106 584.231C919.487 605.17 920.118 611.648 909.122 622.644C900.009 631.758 935.527 633.611 954.585 636.922L955.549 585.022C955.549 585.022 927.08 576.878 925.106 584.231Z" fill="#0A0A0A"/>
<path d="M927 645.133C927.125 645.116 928.521 668.273 955.422 666.254C974.045 664.859 980.685 645.1 981.112 645.1C978.984 644.746 976.885 644.237 974.831 643.577C971.899 642.001 968.271 640.361 967.326 634.667C966.781 631.384 967.704 614.592 967.42 611.267L938.833 617.648C939.233 624.662 942.033 640.922 932.233 643.799C930.6 644.279 928.843 644.717 927 645.133Z" fill="#E98862"/>
<path opacity="0.5" d="M938.432 637.158C938.88 635.715 939.168 634.227 939.292 632.721C939.607 629.285 939.544 625.825 939.106 622.402C944.917 621.618 950.391 619.22 954.906 615.48C955.437 617.441 958.356 626.006 957.548 627.869C956.019 631.391 948.84 637.158 938.432 637.158Z" fill="#0C0C0C"/>
<path d="M942.129 629.944C953.4 631.034 967.982 626.526 971.003 611.517L973.729 597.974C976.75 582.965 971.315 569.211 957.184 566.367C943.052 563.523 930.04 573.567 927.019 588.573L925.813 594.573C924.654 600.328 922.02 628 942.129 629.944Z" fill="#E98862"/>
<path d="M987.37 602.249L974.657 600.856C949.781 596.282 943.689 576.209 943.689 576.209C943.689 576.209 933.254 590.14 924.394 586.941C924.394 586.941 927.25 553.35 966.582 559.253C982.036 561.572 990.811 574.383 990.811 591.567C990.811 604.2 987.37 602.249 987.37 602.249Z" fill="#0A0A0A"/>
<path opacity="0.1" d="M952.939 608.208C953.102 606.847 951.73 605.565 949.875 605.344C948.021 605.122 946.385 606.046 946.223 607.407C946.061 608.767 947.433 610.05 949.287 610.271C951.142 610.492 952.777 609.568 952.939 608.208Z" fill="#0C0C0C"/>
<path opacity="0.1" d="M929.7 604.837C929.534 606.195 927.9 607.118 926.044 606.899C925.724 606.86 925.408 606.789 925.102 606.685C925.016 605.065 925.011 603.507 925.058 602.064C925.573 601.936 926.108 601.905 926.634 601.972C928.484 602.191 929.856 603.473 929.7 604.837Z" fill="#0C0C0C"/>
<path opacity="0.5" d="M937.891 609.036H937.863C937.291 608.917 936.726 608.766 936.17 608.584C935.34 608.306 934.254 607.851 934.405 607.1C934.577 606.245 938.777 597.489 939.255 596.494C939.275 596.45 939.304 596.41 939.339 596.376C939.375 596.343 939.417 596.317 939.462 596.301C939.508 596.284 939.557 596.276 939.605 596.279C939.654 596.281 939.701 596.293 939.745 596.314C939.789 596.335 939.828 596.365 939.861 596.401C939.893 596.438 939.917 596.48 939.933 596.527C939.948 596.573 939.954 596.622 939.951 596.67C939.947 596.719 939.934 596.766 939.911 596.809C938.119 600.537 935.234 606.668 935.118 607.244C935.981 607.83 936.971 608.2 938.006 608.323C938.098 608.342 938.178 608.396 938.231 608.473C938.284 608.55 938.306 608.645 938.291 608.737C938.276 608.829 938.226 608.912 938.152 608.969C938.078 609.026 937.984 609.051 937.891 609.041V609.036Z" fill="#0C0C0C"/>
<path d="M969.205 615.913C973.5 616.777 977.905 612.884 978.77 608.589C979.635 604.294 976.63 601.225 972.335 600.361L969.543 602.793L965.513 615.17L969.205 615.913Z" fill="#E98862"/>
<path d="M936.21 589.507C935.68 589.131 935.102 588.829 934.491 588.607C933.873 588.375 933.225 588.229 932.567 588.174C931.909 588.111 931.245 588.148 930.597 588.283C929.944 588.416 929.311 588.63 928.711 588.922L928.692 588.93C928.627 588.953 928.556 588.951 928.492 588.925C928.428 588.899 928.377 588.85 928.347 588.787C928.318 588.725 928.312 588.654 928.332 588.588C928.352 588.522 928.396 588.465 928.455 588.43C929.091 588.095 929.766 587.84 930.464 587.673C931.168 587.502 931.894 587.438 932.617 587.483C934.082 587.564 935.498 588.037 936.717 588.852C936.806 588.915 936.866 589.011 936.884 589.118C936.903 589.226 936.88 589.336 936.818 589.426C936.757 589.516 936.663 589.579 936.557 589.6C936.45 589.622 936.339 589.602 936.247 589.543L936.237 589.536L936.21 589.507Z" fill="#0C0C0C"/>
<path d="M947.783 591.107C949.222 590.821 950.711 590.926 952.094 591.412C952.78 591.647 953.426 591.985 954.01 592.412C954.592 592.833 955.119 593.326 955.577 593.879C955.627 593.934 955.653 594.006 955.65 594.079C955.646 594.153 955.614 594.222 955.559 594.272C955.505 594.322 955.433 594.348 955.359 594.345C955.285 594.341 955.216 594.309 955.166 594.254L955.151 594.239C954.709 593.741 954.205 593.3 953.651 592.927C953.105 592.554 952.505 592.266 951.872 592.072C950.617 591.679 949.279 591.624 947.995 591.914L947.964 591.922C947.857 591.949 947.743 591.931 947.648 591.874C947.553 591.817 947.485 591.724 947.458 591.616C947.432 591.509 947.449 591.395 947.507 591.3C947.564 591.205 947.657 591.137 947.764 591.11L947.783 591.107Z" fill="#0C0C0C"/>
<path d="M883.674 760.91C879.088 758.91 875.657 756.77 867.826 750.87C862.175 746.629 856.924 741.88 852.137 736.683L892.347 660.169L894.095 656.845L930.363 675.912L898.903 735.782L898.758 736.046L899.031 737.111" fill="#EA394A"/>
<path d="M1017.4 699.359C1016.34 710.705 1016.12 728.351 1016.19 744.04C1001.03 757.793 982.512 767.311 962.505 771.638C942.498 775.965 921.704 774.948 902.214 768.689C899.829 745.029 896.282 710.26 894.283 688.851C892.257 666.675 886.299 659.351 902.56 648.731C911.52 644.17 925.724 643.769 932.108 643.769C929.941 664.789 974.24 667.376 975.341 643.769C1008.47 646.867 1023.81 647.637 1017.4 699.359Z" fill="#EA394A"/>
<path d="M934.112 611.994C937.774 613.856 941.952 614.445 945.986 613.667C946.126 613.64 946.271 613.654 946.403 613.707C946.535 613.76 946.65 613.849 946.733 613.964C946.816 614.08 946.865 614.217 946.873 614.359C946.882 614.501 946.85 614.642 946.78 614.767C945.58 616.886 942.724 620.509 937.831 619.033C934.671 618.079 933.477 614.833 933.031 612.818C933 612.678 933.009 612.533 933.058 612.398C933.107 612.264 933.194 612.146 933.308 612.059C933.421 611.973 933.558 611.92 933.7 611.909C933.843 611.897 933.986 611.927 934.112 611.994Z" fill="white"/>
<path d="M933.883 595.708C934.86 595.708 935.652 594.916 935.652 593.939C935.652 592.962 934.86 592.17 933.883 592.17C932.906 592.17 932.114 592.962 932.114 593.939C932.114 594.916 932.906 595.708 933.883 595.708Z" fill="#0C0C0C"/>
<path d="M950.887 598.684C951.864 598.684 952.656 597.892 952.656 596.915C952.656 595.938 951.864 595.146 950.887 595.146C949.91 595.146 949.118 595.938 949.118 596.915C949.118 597.892 949.91 598.684 950.887 598.684Z" fill="#0C0C0C"/>
<path d="M898.2 727.041H898.234C898.306 727.031 898.371 726.992 898.415 726.935C898.458 726.877 898.477 726.804 898.467 726.732L895.339 695.219C895.335 695.183 895.324 695.148 895.306 695.117C895.288 695.086 895.264 695.058 895.235 695.036C895.206 695.015 895.173 694.999 895.138 694.99C895.103 694.982 895.067 694.98 895.031 694.986C894.996 694.991 894.961 695.002 894.93 695.021C894.899 695.039 894.872 695.063 894.85 695.091C894.829 695.12 894.813 695.153 894.804 695.187C894.795 695.222 894.793 695.258 894.798 695.294L897.925 726.808C897.935 726.873 897.968 726.933 898.019 726.976C898.07 727.019 898.134 727.042 898.2 727.041Z" fill="#0C0C0C"/>
<path d="M894.111 703.041H862.182V742.2H894.111V703.041Z" fill="white"/>
<path d="M881.036 722.621C881.037 720.035 881.804 717.507 883.241 715.357C884.679 713.207 886.721 711.531 889.11 710.542C891.5 709.553 894.129 709.295 896.665 709.8C899.202 710.304 901.531 711.55 903.36 713.379C905.188 715.208 906.433 717.538 906.937 720.075C907.441 722.611 907.182 725.24 906.192 727.629C905.202 730.018 903.526 732.06 901.376 733.497C899.225 734.933 896.697 735.7 894.111 735.7C890.644 735.696 887.32 734.317 884.869 731.864C882.417 729.412 881.039 726.088 881.036 722.621ZM886.391 722.621C886.391 724.148 886.844 725.64 887.692 726.91C888.54 728.179 889.746 729.169 891.157 729.753C892.567 730.338 894.12 730.49 895.617 730.193C897.115 729.895 898.49 729.159 899.57 728.08C900.65 727 901.385 725.624 901.683 724.127C901.981 722.629 901.828 721.077 901.243 719.667C900.659 718.256 899.67 717.05 898.4 716.202C897.131 715.354 895.638 714.901 894.111 714.901C892.064 714.903 890.102 715.717 888.655 717.165C887.208 718.612 886.393 720.574 886.391 722.621Z" fill="white"/>
<path d="M893.857 727.467C893.965 726.804 894.302 726.201 894.809 725.762C895.317 725.323 895.963 725.077 896.634 725.067C896.616 725.04 896.603 725.01 896.595 724.978L895.644 724.772C894.981 724.641 894.384 724.285 893.954 723.764C893.524 723.243 893.286 722.589 893.282 721.914C893.288 721.49 893.389 721.073 893.575 720.693C893.762 720.312 894.031 719.978 894.363 719.715C894.695 719.451 895.081 719.264 895.493 719.167C895.906 719.071 896.335 719.067 896.749 719.157L898.992 719.641C898.992 719.633 898.992 719.625 898.992 719.616C898.997 719.598 899.004 719.581 899.012 719.564C898.428 719.289 897.954 718.825 897.667 718.246C897.38 717.667 897.298 717.008 897.434 716.377C897.679 714.718 899.67 714.172 901.128 714.487L906.938 715.527L904.977 714.227C904.359 713.798 903.926 713.151 903.766 712.416C903.606 711.68 903.731 710.912 904.116 710.265C904.327 709.938 904.601 709.657 904.924 709.44C905.246 709.223 905.609 709.074 905.991 709.002C906.373 708.93 906.765 708.936 907.145 709.021C907.524 709.105 907.882 709.266 908.197 709.494L931.616 736.294L926.416 733.935C924.803 736.309 922.517 738.146 919.852 739.212C917.186 740.278 914.264 740.523 911.458 739.917L898.758 737.149C898.095 737.018 897.498 736.662 897.067 736.141C896.637 735.62 896.399 734.967 896.395 734.291C896.405 733.681 896.608 733.091 896.977 732.605C897.346 732.119 897.86 731.764 898.444 731.591C898.426 731.548 898.419 731.501 898.425 731.455C898.432 731.411 898.45 731.37 898.477 731.335C898.504 731.3 898.539 731.273 898.579 731.255L896.235 730.749C895.497 730.605 894.841 730.186 894.399 729.577C893.958 728.967 893.764 728.213 893.857 727.467Z" fill="#E98862"/>
<path opacity="0.2" d="M903.234 720.585C903.295 720.572 903.35 720.538 903.389 720.489C903.428 720.44 903.448 720.379 903.447 720.317C903.446 720.254 903.423 720.194 903.382 720.147C903.342 720.1 903.286 720.068 903.224 720.057L899.301 719.393C899.266 719.386 899.229 719.385 899.194 719.392C899.158 719.399 899.125 719.413 899.095 719.434C899.065 719.454 899.039 719.48 899.02 719.511C899 719.541 898.987 719.575 898.981 719.611C898.975 719.647 898.976 719.683 898.984 719.719C898.993 719.754 899.008 719.787 899.03 719.816C899.051 719.845 899.078 719.87 899.11 719.888C899.141 719.906 899.176 719.918 899.211 719.923L903.134 720.587C903.168 720.593 903.202 720.592 903.234 720.585Z" fill="#0C0C0C"/>
<path opacity="0.2" d="M902.287 726.134C902.348 726.121 902.403 726.087 902.442 726.039C902.481 725.99 902.502 725.929 902.501 725.867C902.5 725.804 902.477 725.744 902.437 725.697C902.396 725.649 902.341 725.617 902.279 725.606L896.905 724.653C896.87 724.645 896.833 724.644 896.797 724.65C896.761 724.657 896.727 724.67 896.696 724.691C896.666 724.711 896.64 724.737 896.62 724.767C896.6 724.798 896.586 724.832 896.58 724.868C896.573 724.904 896.574 724.941 896.583 724.976C896.591 725.012 896.607 725.045 896.628 725.075C896.65 725.104 896.677 725.129 896.709 725.147C896.74 725.166 896.775 725.177 896.811 725.182L902.185 726.136C902.219 726.142 902.254 726.141 902.287 726.134Z" fill="#0C0C0C"/>
<path opacity="0.2" d="M901.3 732.15C901.362 732.137 901.417 732.102 901.456 732.053C901.495 732.003 901.515 731.942 901.513 731.879C901.512 731.816 901.488 731.756 901.446 731.709C901.404 731.661 901.348 731.63 901.285 731.621L898.736 731.231C898.668 731.224 898.6 731.244 898.545 731.286C898.491 731.329 898.455 731.39 898.445 731.458C898.435 731.526 898.451 731.595 898.49 731.652C898.529 731.708 898.588 731.748 898.655 731.762L901.204 732.153C901.236 732.158 901.269 732.157 901.3 732.15Z" fill="#0C0C0C"/>
<path d="M1033.67 724.154C1019.3 744.816 998.652 760.293 974.79 768.289L974.781 768.28C969.481 767.243 918.922 747.28 912.234 745.969L919.552 711.83C938.342 715.569 972.612 729.983 991.509 733.736L978.177 673.289C977.694 670.619 977.746 667.88 978.33 665.23C978.914 662.58 980.017 660.072 981.578 657.852C983.138 655.632 985.123 653.744 987.419 652.297C989.714 650.85 992.274 649.874 994.95 649.424C997.625 648.974 1000.36 649.059 1003.01 649.676C1005.65 650.292 1008.14 651.427 1010.34 653.014C1012.54 654.602 1014.41 656.61 1015.83 658.923C1017.24 661.236 1018.19 663.808 1018.61 666.489L1033.67 724.154Z" fill="#EA394A"/>
<path d="M1005.83 738.186C1005.9 738.185 1005.97 738.158 1006.01 738.111C1006.06 738.064 1006.09 738 1006.1 737.932C1006.1 737.864 1006.08 737.797 1006.04 737.743C1006 737.69 1005.94 737.653 1005.87 737.642L991.665 732.822C991.629 732.816 991.593 732.817 991.558 732.826C991.523 732.834 991.49 732.85 991.461 732.871C991.432 732.893 991.408 732.92 991.389 732.951C991.371 732.982 991.359 733.016 991.354 733.052C991.343 733.123 991.362 733.196 991.405 733.255C991.448 733.313 991.512 733.351 991.584 733.362L1005.79 738.182C1005.81 738.185 1005.82 738.186 1005.83 738.186Z" fill="#0C0C0C"/>
<path d="M991.883 733.053C991.891 733.139 991.865 733.224 991.81 733.29C991.779 733.32 991.741 733.342 991.7 733.354C991.659 733.367 991.616 733.37 991.573 733.363L920.007 712.24L912.835 745.84L974.462 768.388C974.271 768.452 974.07 768.515 973.879 768.579C973.742 768.625 973.606 768.67 973.46 768.707L912.434 746.3C912.365 746.281 912.306 746.237 912.269 746.176C912.232 746.115 912.219 746.042 912.234 745.972L919.552 711.833C919.561 711.798 919.577 711.766 919.599 711.738C919.621 711.71 919.648 711.686 919.679 711.669C919.709 711.648 919.744 711.634 919.78 711.628C919.817 711.621 919.854 711.623 919.889 711.633L991.282 732.783L983.2 699.459C983.19 699.388 983.209 699.316 983.251 699.258C983.294 699.2 983.357 699.162 983.428 699.15C983.464 699.143 983.5 699.143 983.535 699.151C983.57 699.158 983.604 699.172 983.633 699.192C983.663 699.213 983.688 699.239 983.708 699.269C983.728 699.299 983.741 699.333 983.747 699.368L991.883 733.053Z" fill="#0C0C0C"/>
<path d="M58.6672 689.507C58.6006 689.507 58.5347 689.494 58.4732 689.468C58.4126 689.442 58.3577 689.405 58.3115 689.359C58.2653 689.312 58.2288 689.257 58.204 689.196C58.1792 689.135 58.1666 689.07 58.167 689.004C58.1674 688.938 58.1807 688.873 58.2062 688.813L77.8002 642.24C77.8518 642.118 77.9498 642.021 78.0728 641.971C78.1957 641.921 78.3334 641.922 78.4557 641.973C78.578 642.025 78.6747 642.123 78.7247 642.246C78.7747 642.369 78.7738 642.507 78.7222 642.629L59.1282 689.2C59.0902 689.291 59.0261 689.368 58.9441 689.423C58.8621 689.478 58.7657 689.507 58.6672 689.507Z" fill="#0C0C0C"/>
<path d="M173.965 690.036H173.943C173.877 690.039 173.812 690.029 173.75 690.007C173.688 689.984 173.632 689.95 173.583 689.906C173.535 689.861 173.495 689.808 173.467 689.748C173.44 689.689 173.424 689.625 173.421 689.559L171.237 641.925C171.235 641.794 171.283 641.667 171.372 641.57C171.46 641.472 171.582 641.413 171.713 641.402C171.779 641.399 171.844 641.409 171.906 641.431C171.968 641.453 172.025 641.488 172.073 641.532C172.122 641.576 172.161 641.63 172.189 641.689C172.217 641.749 172.233 641.813 172.236 641.879L174.42 689.513C174.426 689.642 174.383 689.769 174.298 689.866C174.213 689.964 174.094 690.024 173.965 690.036Z" fill="#0C0C0C"/>
</g>
<defs>
<clipPath id="clip0_228_11680">
<rect width="1115.33" height="774.251" fill="white"/>
</clipPath>
</defs>
</svg>
