<svg width="847" height="482" viewBox="0 0 847 482" fill="none" xmlns="http://www.w3.org/2000/svg">
<g clip-path="url(#clip0_228_11951)">
<path d="M256.586 237.478V243.213H283.055V209.384H256.586V214.133C255.044 214.119 253.515 214.41 252.086 214.99C250.657 215.57 249.358 216.428 248.262 217.513C247.167 218.598 246.297 219.89 245.704 221.313C245.11 222.737 244.805 224.263 244.805 225.805C244.805 227.347 245.11 228.874 245.704 230.297C246.297 231.721 247.167 233.012 248.262 234.097C249.358 235.183 250.657 236.04 252.086 236.62C253.515 237.201 255.044 237.492 256.586 237.478ZM249.729 225.8C249.73 224.9 249.908 224.009 250.252 223.178C250.597 222.347 251.103 221.592 251.739 220.956C252.376 220.32 253.132 219.816 253.963 219.472C254.795 219.129 255.686 218.952 256.586 218.953V232.653C255.686 232.653 254.794 232.476 253.963 232.132C253.131 231.787 252.375 231.283 251.738 230.646C251.101 230.01 250.596 229.255 250.252 228.423C249.907 227.591 249.729 226.7 249.729 225.8Z" fill="#C1D8ED"/>
<path d="M841.353 481.792H10.532C12.285 458.351 36.7 438.465 60.632 432.566C95.638 423.947 132.684 447.646 167.612 438.734C187.456 433.677 203.078 418.939 219.494 406.702C281.426 360.528 350.767 346.881 424.059 371.319C462.365 384.088 497.27 406.419 536.51 415.91C587.253 428.191 640.317 418.01 692.499 416.329C743.314 414.694 816.13 435.405 841.353 481.792Z" fill="#F3F5FD"/>
<path d="M540.429 325.524L534.627 327.05L575.323 481.789L581.125 480.263L540.429 325.524Z" fill="#C1D8ED"/>
<path d="M468.303 325.821L444.035 480.56L449.963 481.489L474.23 326.751L468.303 325.821Z" fill="#C1D8ED"/>
<path d="M545.875 177.855C545.875 177.855 595.44 174.725 595.44 218.029C595.44 261.333 588.14 321.855 551.614 328.638C515.088 335.421 461.132 333.375 448.606 331.252C433.215 328.643 426.506 292.941 447.006 290.552C505.179 283.768 477.005 182.551 545.875 177.855Z" fill="#C1D8ED"/>
<path d="M529 156.014C529 156.014 521.267 151.914 522.994 130.858L507.016 127.9C507.016 127.9 508.811 146.779 500.728 152.773L529 156.014Z" fill="#E98862"/>
<g opacity="0.15">
<path opacity="0.15" d="M504 148.821L517.272 138.667L506.848 138.559C506.546 142.127 505.58 145.607 504 148.821Z" fill="black"/>
</g>
<path d="M532.057 122.693C530.951 129.081 527.465 135.131 521.829 137.193C515.14 139.643 510.185 139.809 502.472 139.809C491.947 139.809 492.295 128.832 491.999 117.771C491.699 106.665 492.585 94.7516 496.745 90.8816C505.045 83.1576 529.418 88.0496 532.383 100.97C533.916 107.653 533.109 116.612 532.057 122.693Z" fill="#E98862"/>
<path d="M486.358 97.2998C486.358 97.2998 482.047 96.3368 483.227 92.0388C484.01 89.1878 487.662 89.8208 487.662 89.8208C487.662 89.8208 484.204 89.1878 484.204 86.1688C484.204 84.2688 485.665 81.0448 490.075 82.8868C495.249 85.0478 501.149 84.7698 505.636 84.0158C508.174 83.46 510.75 83.0963 513.343 82.9278H513.356C516.336 82.8756 519.308 83.2731 522.17 84.1068C530.19 86.5068 542.328 93.6968 539.748 110C536.867 128.194 528.33 135.152 524.574 137.384C524.352 137.518 524.102 137.599 523.843 137.623C523.585 137.646 523.325 137.61 523.082 137.518C522.84 137.426 522.621 137.279 522.443 137.09C522.266 136.901 522.133 136.675 522.056 136.427C520.991 133.017 519.156 124.437 519.668 106.745C495.016 105.536 487.924 105.169 487.924 105.169C487.924 105.169 482.119 105.387 482.119 101.147C482.119 96.9068 486.358 97.2998 486.358 97.2998Z" fill="#0F1011"/>
<path d="M507.038 117.772C507.838 117.772 508.487 117.123 508.487 116.323C508.487 115.522 507.838 114.874 507.038 114.874C506.238 114.874 505.589 115.522 505.589 116.323C505.589 117.123 506.238 117.772 507.038 117.772Z" fill="#0F1011"/>
<path d="M495.607 116.835C496.407 116.835 497.056 116.186 497.056 115.386C497.056 114.585 496.407 113.937 495.607 113.937C494.807 113.937 494.158 114.585 494.158 115.386C494.158 116.186 494.807 116.835 495.607 116.835Z" fill="#0F1011"/>
<path d="M493.1 112.3C492.924 112.294 492.757 112.22 492.634 112.094C492.511 111.968 492.442 111.799 492.441 111.623C492.44 111.447 492.507 111.277 492.628 111.15C492.75 111.022 492.916 110.946 493.092 110.939L496.931 110.891C497.11 110.894 497.281 110.965 497.409 111.09C497.536 111.215 497.612 111.384 497.619 111.563C497.62 111.652 497.604 111.741 497.57 111.824C497.537 111.907 497.488 111.982 497.426 112.046C497.363 112.11 497.289 112.162 497.207 112.197C497.125 112.232 497.036 112.251 496.947 112.252L493.108 112.3H493.1Z" fill="#0F1011"/>
<path d="M510.166 113.7C510.112 113.7 510.058 113.694 510.006 113.681L506.221 112.77C506.133 112.75 506.05 112.713 505.977 112.66C505.903 112.608 505.841 112.542 505.793 112.465C505.746 112.388 505.714 112.303 505.7 112.214C505.685 112.125 505.689 112.034 505.71 111.946C505.731 111.859 505.769 111.776 505.823 111.703C505.876 111.631 505.943 111.569 506.02 111.523C506.098 111.476 506.183 111.445 506.272 111.432C506.362 111.419 506.453 111.424 506.54 111.446L510.324 112.357C510.486 112.396 510.628 112.493 510.723 112.63C510.818 112.766 510.86 112.933 510.841 113.098C510.821 113.264 510.742 113.416 510.617 113.527C510.493 113.638 510.332 113.699 510.166 113.7Z" fill="#0F1011"/>
<path d="M514.576 119.869C514.467 121.479 514.997 123.068 516.05 124.291C517.104 125.514 518.596 126.274 520.205 126.405C521.814 126.536 523.41 126.029 524.648 124.993C525.885 123.957 526.666 122.476 526.82 120.869C526.9 120.062 526.817 119.248 526.576 118.474C526.334 117.7 525.94 116.983 525.415 116.364C524.891 115.746 524.247 115.24 523.523 114.876C522.799 114.511 522.009 114.297 521.2 114.244C516.822 114.106 514.853 116.487 514.576 119.869Z" fill="#E98862"/>
<g opacity="0.15">
<path opacity="0.15" d="M500.606 124.36C500.726 124.36 500.841 124.317 500.932 124.239C501.023 124.161 501.083 124.053 501.101 123.934C501.118 123.816 501.093 123.695 501.029 123.593C500.965 123.492 500.867 123.417 500.753 123.382L497.806 122.477L499.867 117.887C499.919 117.766 499.922 117.63 499.875 117.507C499.827 117.384 499.733 117.285 499.613 117.231C499.493 117.178 499.357 117.173 499.234 117.219C499.11 117.265 499.01 117.358 498.955 117.477L496.662 122.583C496.633 122.648 496.617 122.718 496.617 122.789C496.617 122.86 496.633 122.93 496.662 122.995C496.691 123.059 496.734 123.117 496.787 123.164C496.84 123.211 496.903 123.246 496.971 123.267L500.459 124.338C500.506 124.352 500.556 124.36 500.606 124.36Z" fill="black"/>
</g>
<path d="M506.368 127.735C506.368 127.735 501.019 128.299 497.268 126.989C497.268 126.989 497.298 130.511 501.53 130.858C505.762 131.205 506.368 127.735 506.368 127.735Z" fill="white"/>
<path d="M451.127 451.072L430.189 452.687L432.075 477.146L453.013 475.532L451.127 451.072Z" fill="#E98862"/>
<path d="M405.465 480.842C404.9 480.839 404.342 480.72 403.825 480.492C403.309 480.264 402.845 479.932 402.462 479.516C402.08 479.101 401.787 478.611 401.602 478.077C401.418 477.544 401.345 476.978 401.389 476.415C401.45 475.634 401.732 474.887 402.203 474.262C402.674 473.637 403.314 473.159 404.048 472.886L428.49 464.7C428.964 464.543 429.465 464.49 429.961 464.546C430.457 464.601 430.935 464.763 431.363 465.02C434.723 467.351 438.742 468.543 442.83 468.42C446.014 468.194 449.07 467.077 451.651 465.198C451.878 465.012 452.153 464.894 452.444 464.858C452.735 464.822 453.03 464.87 453.295 464.996C453.56 465.122 453.784 465.321 453.94 465.569C454.096 465.817 454.179 466.104 454.178 466.398V478.35C454.178 478.702 454.108 479.052 453.973 479.377C453.838 479.703 453.639 479.999 453.39 480.247C453.14 480.496 452.843 480.693 452.517 480.827C452.191 480.961 451.841 481.029 451.489 481.028L405.465 480.842Z" fill="#C1D8ED"/>
<path d="M376.995 450.139L372.881 474.599L393.59 478.082L397.704 453.623L376.995 450.139Z" fill="#E98862"/>
<path d="M501.353 264.333V264.268H400.31C395.692 264.267 391.241 265.994 387.832 269.109C384.422 272.224 382.301 276.501 381.885 281.1L365.777 458.479L402.626 461.825L411.284 366.474L420.499 464.457L457.337 460.992L444.066 319.877H492.266V319.768H519.875C524.877 319.768 529.829 318.782 534.45 316.868C539.071 314.954 543.27 312.149 546.806 308.612C550.343 305.075 553.149 300.877 555.063 296.256C556.977 291.635 557.962 286.682 557.962 281.681V264.333H501.353Z" fill="#262626"/>
<path d="M349.162 480.842C348.597 480.839 348.039 480.72 347.522 480.492C347.006 480.264 346.542 479.932 346.159 479.517C345.777 479.101 345.484 478.611 345.299 478.078C345.115 477.544 345.042 476.978 345.086 476.415C345.147 475.634 345.429 474.888 345.9 474.263C346.371 473.637 347.011 473.16 347.744 472.886L372.187 464.699C372.66 464.542 373.162 464.489 373.658 464.545C374.154 464.6 374.632 464.762 375.059 465.019C378.419 467.35 382.439 468.542 386.527 468.419C389.711 468.193 392.767 467.076 395.347 465.197C395.574 465.011 395.849 464.893 396.14 464.857C396.431 464.822 396.726 464.87 396.991 464.995C397.256 465.121 397.48 465.32 397.637 465.568C397.793 465.816 397.876 466.103 397.875 466.397V478.349C397.875 478.701 397.805 479.051 397.67 479.376C397.535 479.702 397.337 479.998 397.087 480.246C396.837 480.495 396.54 480.692 396.214 480.826C395.888 480.96 395.539 481.028 395.186 481.027L349.162 480.842Z" fill="#C1D8ED"/>
<path d="M584.518 177.989C584.518 177.989 583.96 165.989 592.566 166.108C597.997 166.182 623.616 163.472 624.137 165.791C625.425 171.528 602.01 174.328 600.195 179.849L584.518 177.989Z" fill="#E98862"/>
<path d="M589.555 166.672C589.555 166.672 601.255 162.08 604.226 162.603C606.858 163.067 601.698 167.611 601.698 167.611L589.555 166.672Z" fill="#E98862"/>
<path d="M404.078 197.253C404.078 197.253 400.887 185.673 392.741 188.453C387.602 190.208 362.405 195.576 362.629 197.943C363.184 203.796 386.313 199.196 389.75 203.882L404.078 197.253Z" fill="#E98862"/>
<path d="M395.779 188.056C395.779 188.056 383.233 187.319 380.569 188.739C378.211 189.996 384.526 192.715 384.526 192.715L395.779 188.056Z" fill="#E98862"/>
<path d="M582.651 173.064L577.062 200.514L559.362 164.18L559.27 164.225C558.246 161.553 556.665 159.13 554.633 157.117C550.073 152.557 542.173 149.597 532.553 149.587C531.833 155.197 497.763 155.217 497.503 149.717C496.203 149.737 495.193 149.767 494.563 149.787C483.35 150.271 477.598 154.909 474.903 161.905L441.013 216L399.733 187.291L387.283 205.191L437.954 240.43C439.165 241.273 440.535 241.861 441.981 242.158C443.426 242.456 444.917 242.457 446.363 242.161C447.809 241.866 449.179 241.28 450.392 240.438C451.605 239.597 452.634 238.519 453.417 237.268L475.255 202.415C475.803 207.315 476.243 212.147 476.295 216.709C476.675 249.179 467.915 255.299 472.235 265.219C476.425 274.849 558.755 278.849 559.855 261.909C560.555 251.129 551.055 241.719 551.055 220.709C551.055 215.165 552.406 209.209 554.1 203.166L571.533 238.954C572.53 241.003 574.144 242.688 576.148 243.773C578.153 244.857 580.447 245.286 582.707 244.999C584.968 244.712 587.082 243.724 588.752 242.173C590.422 240.622 591.564 238.587 592.017 236.354L604.017 177.414L582.651 173.064Z" fill="#367CFF"/>
<path d="M497.505 149.717C497.765 155.217 500.765 163.307 509.985 163.907C522.295 164.727 531.835 155.197 532.555 149.587H532.515C520.415 149.587 504.575 149.607 497.505 149.717Z" fill="#E98862"/>
<path d="M757.502 325.523L751.699 327.049L792.395 481.788L798.198 480.262L757.502 325.523Z" fill="#C1D8ED"/>
<path d="M685.373 325.821L661.105 480.56L667.033 481.489L691.3 326.751L685.373 325.821Z" fill="#C1D8ED"/>
<path d="M762.947 177.855C762.947 177.855 812.512 174.725 812.512 218.029C812.512 261.333 805.212 321.855 768.686 328.638C732.16 335.421 678.205 333.375 665.678 331.252C650.287 328.643 643.578 292.941 664.078 290.552C722.251 283.768 694.078 182.551 762.947 177.855Z" fill="#C1D8ED"/>
<path d="M774.09 115.386C774.243 100.517 768.367 91.303 760.399 86.244C752.537 81.252 727.883 76.907 718.536 95.029C712.436 106.853 714.844 111.08 713.117 130.02C711.39 148.96 704.751 150.946 698.017 173.902C692.737 191.909 722.317 201.469 747.928 200.643C773.539 199.817 789.778 194.143 791.265 177.855C793.4 154.476 773.789 144.525 774.09 115.386Z" fill="#0F1011"/>
<path d="M758.829 156.5C758.829 156.5 751.134 152.329 753.054 131.29L737.105 128.181C737.105 128.181 738.727 147.075 730.59 152.994L758.829 156.5Z" fill="#E98862"/>
<g opacity="0.15">
<path opacity="0.15" d="M733.9 149.074L747.265 139.042L736.843 138.842C736.507 142.406 735.509 145.876 733.9 149.074Z" fill="black"/>
</g>
<path d="M762.193 123.2C761.028 129.578 757.487 135.595 751.833 137.607C745.668 139.989 739.015 140.826 732.452 140.045C714.976 138.451 718.801 98.7162 727.175 91.0682C735.549 83.4202 759.875 88.5352 762.718 101.482C764.19 108.182 763.3 117.133 762.193 123.2Z" fill="#E98862"/>
<path d="M737.234 118.054C738.034 118.054 738.683 117.406 738.683 116.605C738.683 115.805 738.034 115.156 737.234 115.156C736.434 115.156 735.785 115.805 735.785 116.605C735.785 117.406 736.434 118.054 737.234 118.054Z" fill="#0F1011"/>
<path d="M725.811 117.012C726.611 117.012 727.26 116.364 727.26 115.563C727.26 114.763 726.611 114.114 725.811 114.114C725.011 114.114 724.362 114.763 724.362 115.563C724.362 116.364 725.011 117.012 725.811 117.012Z" fill="#0F1011"/>
<path d="M723.336 112.452C723.16 112.445 722.994 112.371 722.871 112.244C722.749 112.117 722.681 111.948 722.681 111.772C722.681 111.596 722.749 111.426 722.871 111.299C722.994 111.173 723.16 111.098 723.336 111.091L727.175 111.078C727.351 111.085 727.518 111.16 727.64 111.286C727.762 111.413 727.83 111.583 727.83 111.759C727.83 111.935 727.762 112.104 727.64 112.231C727.518 112.358 727.351 112.432 727.175 112.439L723.336 112.452Z" fill="#0F1011"/>
<path d="M740.391 114.009C740.335 114.009 740.279 114.002 740.225 113.988L736.449 113.043C736.274 112.999 736.123 112.887 736.03 112.732C735.937 112.577 735.91 112.392 735.954 112.217C735.997 112.041 736.109 111.891 736.264 111.798C736.419 111.705 736.605 111.677 736.78 111.721L740.556 112.667C740.718 112.707 740.859 112.805 740.953 112.942C741.048 113.079 741.088 113.246 741.068 113.411C741.048 113.576 740.968 113.728 740.843 113.839C740.718 113.949 740.557 114.009 740.391 114.009Z" fill="#0F1011"/>
<path d="M736.459 128.01C736.459 128.01 731.105 128.525 727.368 127.181C727.368 127.181 727.368 130.704 731.595 131.089C735.822 131.474 736.459 128.01 736.459 128.01Z" fill="white"/>
<path d="M750.577 106.545C749.378 121.509 750.876 136.566 755 151C755 151 767.4 130.1 769.466 112.614C771.4 96.22 759.393 86.421 751.241 84.52C720.26 77.293 718.109 99.891 718.109 99.891C720.109 107.599 753.932 112.382 753.932 112.382" fill="#0F1011"/>
<path d="M744.493 122.917C744.345 124.539 744.848 126.154 745.89 127.406C746.933 128.658 748.43 129.444 750.052 129.592C751.674 129.74 753.289 129.238 754.541 128.195C755.793 127.152 756.579 125.655 756.727 124.033C756.814 123.227 756.739 122.412 756.504 121.636C756.27 120.86 755.882 120.139 755.363 119.516C754.845 118.893 754.206 118.381 753.485 118.011C752.764 117.64 751.976 117.418 751.168 117.358C746.791 117.175 744.8 119.538 744.493 122.917Z" fill="#E98862"/>
<g opacity="0.15">
<path opacity="0.15" d="M730.732 124.582C730.851 124.582 730.966 124.539 731.056 124.461C731.147 124.384 731.206 124.276 731.225 124.159C731.243 124.041 731.219 123.921 731.156 123.819C731.094 123.718 730.997 123.642 730.884 123.606L727.945 122.674L730.045 118.102C730.096 117.982 730.098 117.847 730.051 117.726C730.005 117.604 729.912 117.506 729.794 117.452C729.676 117.397 729.541 117.391 729.418 117.434C729.296 117.478 729.195 117.567 729.137 117.684L726.797 122.77C726.767 122.834 726.751 122.904 726.751 122.975C726.75 123.045 726.764 123.116 726.792 123.18C726.821 123.245 726.863 123.303 726.915 123.351C726.968 123.398 727.029 123.434 727.097 123.456L730.575 124.556C730.625 124.573 730.678 124.582 730.732 124.582Z" fill="black"/>
</g>
<path d="M619.806 216.327C619.806 216.327 595.015 210.443 584.474 220.839C584.206 221.104 584.025 221.444 583.953 221.814C583.881 222.184 583.922 222.567 584.072 222.913C584.221 223.26 584.471 223.553 584.789 223.755C585.107 223.956 585.479 224.058 585.856 224.045C591.774 223.833 599.831 224.312 604.723 226.513C603.011 227.313 601.27 228.337 601.659 229.013C602.742 230.89 619.816 229.963 619.816 229.963L619.806 216.327Z" fill="#E98862"/>
<path d="M680.002 451.444L659.064 453.059L660.951 477.518L681.889 475.903L680.002 451.444Z" fill="#E98862"/>
<path d="M634.343 481.212C633.804 481.21 633.27 481.101 632.773 480.893C632.275 480.684 631.824 480.38 631.444 479.997C631.064 479.614 630.764 479.159 630.56 478.66C630.355 478.161 630.252 477.627 630.254 477.087C630.254 476.987 630.254 476.887 630.267 476.787C630.328 476.007 630.61 475.26 631.081 474.635C631.552 474.01 632.192 473.532 632.925 473.258L657.368 465.071C657.841 464.915 658.343 464.862 658.839 464.917C659.335 464.973 659.812 465.134 660.24 465.391C663.6 467.723 667.62 468.915 671.708 468.791C674.892 468.565 677.948 467.448 680.528 465.568C680.755 465.383 681.03 465.265 681.321 465.23C681.612 465.194 681.907 465.242 682.172 465.368C682.437 465.494 682.66 465.692 682.817 465.94C682.973 466.188 683.056 466.475 683.056 466.768V478.72C683.056 479.43 682.774 480.112 682.272 480.614C681.769 481.116 681.088 481.398 680.378 481.398H680.367L634.343 481.212Z" fill="#C1D8ED"/>
<path d="M585.872 450.509L581.758 474.968L602.467 478.452L606.582 453.992L585.872 450.509Z" fill="#E98862"/>
<path d="M575.174 461.868L611.282 278.483C612.312 274.52 614.629 271.01 617.868 268.505C621.108 265.999 625.087 264.639 629.182 264.638H730.23V264.703H786.839V282.051C786.839 287.053 785.854 292.006 783.94 296.627C782.026 301.248 779.221 305.446 775.684 308.983C772.148 312.52 767.949 315.325 763.328 317.24C758.707 319.154 753.755 320.139 748.753 320.139H721.143V320.248H672.943L686.215 461.362L649.377 464.826L637.544 333.371L610.984 467.176L575.174 461.868Z" fill="#262626"/>
<path d="M666.846 242.75H703.17C701.027 254.287 698.304 259.135 701.114 265.587C705.304 275.217 787.634 279.217 788.734 262.277C789.434 251.497 779.934 242.077 779.934 221.077C779.934 200.077 799.264 173.237 783.514 157.487C778.954 152.927 771.054 149.967 761.434 149.957C760.714 155.567 726.644 155.587 726.384 150.087C725.084 150.107 724.074 150.137 723.444 150.157C711.704 150.663 705.95 155.723 703.424 163.276L676.724 211.067L618.044 214.846L619.349 233.802L666.849 232.626L666.846 242.75ZM705.173 217.077C705.188 218.416 705.183 219.694 705.173 220.945H696.187L704.487 206.085C704.862 209.847 705.135 213.544 705.176 217.077H705.173Z" fill="#367CFF"/>
<path d="M726.383 150.087C726.643 155.587 729.643 163.677 738.863 164.277C751.173 165.097 760.713 155.567 761.433 149.957H761.393C749.293 149.957 733.453 149.977 726.383 150.087Z" fill="#E98862"/>
<path d="M558.039 481.212C557.5 481.21 556.966 481.101 556.468 480.892C555.971 480.684 555.519 480.379 555.14 479.996C554.76 479.612 554.46 479.158 554.256 478.659C554.052 478.159 553.948 477.625 553.951 477.085C553.951 476.985 553.955 476.885 553.963 476.785C554.024 476.005 554.307 475.258 554.778 474.633C555.249 474.008 555.889 473.53 556.622 473.256L581.064 465.069C581.538 464.913 582.04 464.86 582.535 464.915C583.031 464.971 583.509 465.132 583.937 465.389C587.297 467.721 591.316 468.913 595.404 468.789C598.588 468.563 601.645 467.446 604.225 465.566C604.452 465.38 604.727 465.263 605.018 465.228C605.309 465.192 605.604 465.24 605.869 465.366C606.133 465.491 606.357 465.69 606.513 465.938C606.67 466.186 606.753 466.473 606.752 466.766V478.718C606.752 479.428 606.47 480.11 605.968 480.612C605.465 481.114 604.784 481.396 604.074 481.396H604.063L558.039 481.212Z" fill="#C1D8ED"/>
<path d="M666.853 228.443C666.853 228.443 642.062 222.559 631.521 232.955C631.253 233.22 631.072 233.56 631 233.93C630.928 234.3 630.97 234.683 631.119 235.029C631.268 235.375 631.518 235.668 631.836 235.87C632.155 236.072 632.526 236.173 632.903 236.161C638.82 235.948 646.878 236.428 651.77 238.629C650.058 239.429 648.317 240.453 648.706 241.129C649.789 243.005 666.863 242.079 666.863 242.079L666.853 228.443Z" fill="#E98862"/>
<path d="M588.934 9.94308L579.352 15.4751L598.127 47.9935L607.709 42.4615L588.934 9.94308Z" fill="#DEE8F5"/>
<path d="M581.77 10.1938H570.706V47.7428H581.77V10.1938Z" fill="#DEE8F5"/>
<path d="M646.21 0H635.146V47.743H646.21V0Z" fill="#DEE8F5"/>
<path d="M634.831 10.1938H623.767V47.7428H634.831V10.1938Z" fill="#0CBC8B"/>
<path d="M657.275 5.36816H646.211V47.7432H657.275V5.36816Z" fill="#0CBC8B"/>
<path d="M623.593 4.0459H605.923V47.7429H623.593V4.0459Z" fill="#C1D8ED"/>
<path d="M675 35.2657C675 35.2657 674.946 16.5897 684.327 12.6887C693.708 8.78768 679.663 35.2657 679.663 35.2657H675Z" fill="#8DDBE0"/>
<path d="M679.667 35.2658C679.667 35.2658 684.565 0.299805 674.556 0.299805C664.547 0.299805 675 35.2658 675 35.2658" fill="#8DDBE0"/>
<path d="M676.666 36.8057C676.666 36.8057 671.966 5.64472 663.59 8.14472C655.214 10.6447 673.372 37.7887 673.372 37.7887L676.666 36.8057Z" fill="#8DDBE0"/>
<path d="M685.902 25.894H664.053V47.743H685.902V25.894Z" fill="#DEE8F5"/>
<path d="M694.803 47.7432H565.174V52.5982H694.803V47.7432Z" fill="#C1D8ED"/>
<path d="M666.016 47.7432H565.174V52.5982H666.016V47.7432Z" fill="#DEE8F5"/>
<path d="M111.058 325.525L70.3564 480.262L76.1591 481.789L116.861 327.051L111.058 325.525Z" fill="#C1D8ED"/>
<path d="M183.184 325.823L177.256 326.752L201.518 481.492L207.446 480.563L183.184 325.823Z" fill="#C1D8ED"/>
<path d="M105.609 177.855C105.609 177.855 56.043 174.725 56.043 218.029C56.043 261.333 63.348 321.855 99.87 328.638C136.392 335.421 190.351 333.375 202.878 331.252C218.269 328.643 224.978 292.941 204.478 290.552C146.3 283.768 174.478 182.551 105.609 177.855Z" fill="#C1D8ED"/>
<path d="M122.189 155.762C122.189 155.762 129.922 151.662 128.195 130.606L144.172 127.643C144.172 127.643 142.377 146.522 150.459 152.515L122.189 155.762Z" fill="#E98862"/>
<g opacity="0.15">
<path opacity="0.15" d="M147.186 148.569L133.913 138.415L144.337 138.307C144.639 141.875 145.605 145.355 147.186 148.569Z" fill="black"/>
</g>
<path d="M119.131 122.441C120.237 128.829 123.723 134.879 129.358 136.941C135.5 139.379 142.146 140.277 148.716 139.557C166.205 138.123 162.746 98.3568 154.442 90.6298C146.138 82.9028 121.769 87.7968 118.805 100.717C117.272 107.4 118.078 116.36 119.131 122.441Z" fill="#E98862"/>
<path d="M160.211 91.9998C159.689 91.1714 158.958 90.4956 158.091 90.0408C150.324 85.8168 135.931 84.3558 129.018 86.4238C120.998 88.8238 110.942 95.5468 113.518 111.85C113.627 112.536 113.744 113.197 113.865 113.85C111.332 113.417 108.729 113.689 106.341 114.638C103.952 115.586 101.871 117.173 100.325 119.225C98.7784 121.278 97.8268 123.716 97.5742 126.273C97.3215 128.83 97.7776 131.408 98.8923 133.723C100.007 136.038 101.737 138.002 103.894 139.399C106.051 140.796 108.55 141.573 111.119 141.644C113.687 141.715 116.226 141.078 118.457 139.803C120.687 138.527 122.524 136.662 123.765 134.412C124.955 135.439 126.24 136.351 127.603 137.135C128.56 137.703 128.792 137.24 129.124 136.178C130.284 132.467 131.424 117.79 130.514 107.133L149.36 106.481L152.644 97.1388L155.335 106.481H161.754C162.615 101.42 163.5 95.6818 160.211 91.9998Z" fill="#0F1011"/>
<path d="M144.149 117.52C144.949 117.52 145.598 116.871 145.598 116.071C145.598 115.27 144.949 114.622 144.149 114.622C143.349 114.622 142.7 115.27 142.7 116.071C142.7 116.871 143.349 117.52 144.149 117.52Z" fill="#0F1011"/>
<path d="M155.581 116.582C156.381 116.582 157.03 115.933 157.03 115.133C157.03 114.332 156.381 113.684 155.581 113.684C154.781 113.684 154.132 114.332 154.132 115.133C154.132 115.933 154.781 116.582 155.581 116.582Z" fill="#0F1011"/>
<path d="M158.091 112.045C158.267 112.039 158.434 111.965 158.557 111.839C158.68 111.713 158.749 111.544 158.75 111.368C158.751 111.192 158.684 111.022 158.563 110.895C158.441 110.767 158.275 110.691 158.099 110.684L154.261 110.636C154.082 110.638 153.911 110.71 153.783 110.835C153.655 110.96 153.579 111.129 153.572 111.308C153.571 111.397 153.587 111.486 153.62 111.569C153.654 111.652 153.703 111.728 153.765 111.792C153.828 111.856 153.902 111.907 153.984 111.942C154.066 111.977 154.155 111.996 154.244 111.997L158.083 112.045H158.091Z" fill="#0F1011"/>
<path d="M141.022 113.445C141.076 113.445 141.129 113.438 141.181 113.426L144.966 112.516C145.138 112.47 145.286 112.359 145.377 112.206C145.468 112.054 145.496 111.871 145.454 111.698C145.413 111.525 145.305 111.375 145.154 111.281C145.004 111.186 144.822 111.154 144.648 111.192L140.863 112.102C140.701 112.141 140.559 112.238 140.464 112.375C140.369 112.511 140.327 112.678 140.347 112.844C140.366 113.009 140.446 113.162 140.57 113.272C140.695 113.383 140.855 113.445 141.022 113.445Z" fill="#0F1011"/>
<path d="M136.611 119.616C136.689 120.426 136.605 121.244 136.364 122.021C136.123 122.799 135.729 123.521 135.207 124.145C134.685 124.769 134.043 125.283 133.32 125.658C132.598 126.032 131.807 126.259 130.996 126.325C130.185 126.391 129.368 126.296 128.594 126.044C127.82 125.792 127.104 125.388 126.487 124.857C125.87 124.326 125.365 123.677 125.001 122.949C124.637 122.221 124.422 121.428 124.367 120.616C124.287 119.809 124.371 118.995 124.612 118.221C124.853 117.447 125.248 116.73 125.772 116.112C126.297 115.494 126.94 114.988 127.664 114.623C128.388 114.259 129.178 114.044 129.987 113.992C134.365 113.853 136.334 116.235 136.611 119.616Z" fill="#E98862"/>
<g opacity="0.15">
<path opacity="0.15" d="M150.581 124.108C150.461 124.108 150.345 124.065 150.254 123.987C150.164 123.909 150.104 123.801 150.086 123.682C150.068 123.564 150.094 123.443 150.157 123.341C150.221 123.24 150.319 123.165 150.434 123.13L153.381 122.225L151.32 117.634C151.291 117.574 151.274 117.508 151.27 117.441C151.267 117.374 151.277 117.307 151.3 117.244C151.322 117.181 151.358 117.124 151.403 117.075C151.449 117.026 151.504 116.986 151.565 116.959C151.626 116.931 151.692 116.917 151.759 116.915C151.826 116.914 151.892 116.926 151.955 116.951C152.017 116.975 152.073 117.012 152.121 117.06C152.169 117.107 152.206 117.163 152.232 117.225L154.526 122.332C154.555 122.397 154.57 122.467 154.57 122.538C154.57 122.609 154.554 122.679 154.525 122.743C154.496 122.808 154.453 122.865 154.4 122.912C154.346 122.959 154.284 122.994 154.216 123.015L150.728 124.086C150.68 124.1 150.631 124.108 150.581 124.108Z" fill="black"/>
</g>
<path d="M144.82 127.482C144.82 127.482 150.168 128.046 153.92 126.736C153.92 126.736 153.891 130.259 149.658 130.606C145.425 130.953 144.82 127.482 144.82 127.482Z" fill="white"/>
<path d="M200.362 451.078L198.476 475.537L219.414 477.151L221.3 452.692L200.362 451.078Z" fill="#E98862"/>
<path d="M246.018 480.842C246.583 480.839 247.141 480.72 247.658 480.492C248.174 480.264 248.638 479.932 249.021 479.517C249.403 479.101 249.696 478.611 249.881 478.078C250.065 477.544 250.138 476.978 250.094 476.415C250.033 475.634 249.751 474.888 249.28 474.263C248.809 473.637 248.169 473.16 247.436 472.886L222.993 464.7C222.519 464.543 222.018 464.49 221.522 464.546C221.026 464.601 220.548 464.763 220.121 465.02C216.761 467.351 212.741 468.543 208.653 468.42C205.469 468.194 202.413 467.077 199.833 465.198C199.606 465.012 199.331 464.894 199.04 464.858C198.749 464.823 198.454 464.871 198.189 464.996C197.924 465.122 197.7 465.321 197.543 465.569C197.387 465.817 197.304 466.104 197.305 466.398V478.35C197.305 478.702 197.375 479.052 197.51 479.377C197.645 479.703 197.843 479.999 198.093 480.247C198.343 480.496 198.64 480.693 198.966 480.827C199.292 480.961 199.641 481.029 199.994 481.028L246.018 480.842Z" fill="#C1D8ED"/>
<path d="M304.486 450.142L283.777 453.625L287.892 478.085L308.601 474.602L304.486 450.142Z" fill="#E98862"/>
<path d="M315.187 455.5L269.079 278.114C268.049 274.15 265.732 270.64 262.493 268.134C259.254 265.629 255.274 264.269 251.179 264.268H150.131V264.333H93.522V281.681C93.522 291.782 97.5347 301.469 104.677 308.612C111.82 315.755 121.508 319.768 131.609 319.768H159.218V319.877H207.418L194.146 460.992L230.984 464.457L243.817 328L279.377 464.8L315.187 455.5Z" fill="#262626"/>
<path d="M332.322 480.842C332.887 480.839 333.445 480.72 333.961 480.492C334.478 480.264 334.942 479.932 335.325 479.516C335.707 479.101 336 478.611 336.185 478.077C336.369 477.544 336.442 476.978 336.398 476.415C336.337 475.634 336.054 474.888 335.583 474.262C335.112 473.637 334.472 473.16 333.739 472.886L309.3 464.7C308.826 464.543 308.324 464.49 307.829 464.546C307.333 464.601 306.855 464.763 306.427 465.02C303.067 467.351 299.048 468.543 294.96 468.42C291.776 468.194 288.719 467.077 286.139 465.198C285.912 465.012 285.637 464.894 285.346 464.858C285.055 464.822 284.76 464.87 284.495 464.996C284.23 465.122 284.006 465.321 283.85 465.569C283.694 465.817 283.611 466.104 283.612 466.398V478.35C283.612 478.702 283.682 479.052 283.817 479.377C283.952 479.703 284.15 479.999 284.4 480.247C284.65 480.496 284.947 480.693 285.273 480.827C285.599 480.961 285.948 481.029 286.301 481.028L332.322 480.842Z" fill="#C1D8ED"/>
<path d="M238.2 179.553C238.2 179.553 238.35 167.542 246.935 168.167C252.351 168.561 278.086 167.367 278.469 169.711C279.417 175.511 255.877 176.929 253.741 182.333L238.2 179.553Z" fill="#E98862"/>
<path d="M243.892 168.552C243.892 168.552 255.841 164.658 258.778 165.352C261.378 165.97 255.958 170.202 255.958 170.202L243.892 168.552Z" fill="#E98862"/>
<path d="M201.6 240.3C199.66 240.299 197.756 239.78 196.083 238.799C194.41 237.817 193.029 236.408 192.082 234.715L155.967 170.069L175 159.438L203.637 210.7L237.775 172.293L256.149 182.625L209.749 236.647C208.726 237.797 207.47 238.717 206.066 239.346C204.661 239.976 203.139 240.301 201.6 240.3Z" fill="#367CFF"/>
<path d="M213.038 226.391C216.018 226.391 225.981 224.818 226.693 227.349C227.119 228.866 219.693 230.658 219.693 230.658" fill="#E98862"/>
<path d="M211.474 238.339C211.474 238.339 231.588 246.603 243.143 237.177C243.437 236.936 243.652 236.613 243.759 236.248C243.866 235.884 243.861 235.496 243.744 235.135C243.628 234.773 243.405 234.456 243.104 234.223C242.804 233.99 242.441 233.854 242.062 233.831C234.27 233.373 218.262 231.802 220.137 226.665H207.573" fill="#E98862"/>
<path d="M213.516 220.575H175.191C175.178 219.324 175.173 218.046 175.191 216.707C175.511 188.977 190.091 151.217 156.921 149.787C156.291 149.767 155.281 149.737 153.981 149.717C153.721 155.217 119.651 155.197 118.931 149.587C109.311 149.597 101.411 152.557 96.851 157.117C81.101 172.867 100.431 199.707 100.431 220.707C100.431 241.707 90.931 251.127 91.631 261.907C92.731 278.847 175.061 274.847 179.251 265.217C182.061 258.765 179.338 253.917 177.195 242.38H213.519L213.516 220.575Z" fill="#367CFF"/>
<path d="M153.978 149.717C153.718 155.217 150.718 163.307 141.498 163.907C129.188 164.727 119.648 155.197 118.928 149.587H118.968C131.068 149.587 146.908 149.607 153.978 149.717Z" fill="#E98862"/>
<path d="M34.608 252.072H25.217V481.029H34.608V252.072Z" fill="#DEE8F5"/>
<path d="M820.307 252.072H810.916V481.029H820.307V252.072Z" fill="#DEE8F5"/>
<path d="M846.683 242.616H0V255.529H846.683V242.616Z" fill="#DEE8F5"/>
<path d="M55.937 193.678L47.519 191.688L36.9653 236.326L45.3833 238.316L55.937 193.678Z" fill="#F0F6FF"/>
<path d="M38.2608 188.222L33.5876 189.084L40.8153 228.264L45.4884 227.402L38.2608 188.222Z" fill="#C1D8ED"/>
<path d="M38.2576 188.209L33.5894 189.098L34.4118 193.419L39.08 192.531L38.2576 188.209Z" fill="#DEE8F5"/>
<path d="M52.7257 198.183L37.5813 236.625L40.1762 237.648L55.3206 199.205L52.7257 198.183Z" fill="#0CBC8B"/>
<path d="M56.0441 215.002H33.2151V244.178H56.0441V215.002Z" fill="#DEE8F5"/>
<path d="M365.36 231.407H312.796V243.309H365.36V231.407Z" fill="#C1D8ED"/>
<path d="M347.423 231.407H291.837V243.309H347.423V231.407Z" fill="#DEE8F5"/>
<path opacity="0.62" d="M342.885 231.407H340.187V243.309H342.885V231.407Z" fill="#C1D8ED"/>
<path opacity="0.62" d="M337.489 231.407H334.791V243.309H337.489V231.407Z" fill="#C1D8ED"/>
<path d="M298.21 241.196C300.329 241.196 302.048 239.478 302.048 237.358C302.048 235.238 300.329 233.52 298.21 233.52C296.09 233.52 294.372 235.238 294.372 237.358C294.372 239.478 296.09 241.196 298.21 241.196Z" fill="#F3F5FD"/>
<path d="M317.083 231.42H369.647V219.518H317.083V231.42Z" fill="#C1D8ED"/>
<path d="M296.124 231.42H351.71V219.518H296.124V231.42Z" fill="#F3F5FD"/>
<path d="M300.662 231.42H303.36V219.518H300.662V231.42Z" fill="#DEE8F5"/>
<path d="M306.058 231.42H308.756V219.518H306.058V231.42Z" fill="#DEE8F5"/>
<path d="M345.337 229.307C347.457 229.307 349.175 227.589 349.175 225.469C349.175 223.349 347.457 221.631 345.337 221.631C343.217 221.631 341.499 223.349 341.499 225.469C341.499 227.589 343.217 229.307 345.337 229.307Z" fill="#DEE8F5"/>
<path d="M337.452 222.552H312.914V228.387H337.452V222.552Z" fill="#DEE8F5"/>
<path d="M628.887 185L641.029 235.972C641.359 237.364 641.124 238.831 640.374 240.05C639.624 241.269 638.421 242.14 637.029 242.472C636.621 242.57 636.203 242.619 635.783 242.619H564.194C563.011 242.619 561.861 242.23 560.921 241.513C559.98 240.796 559.301 239.79 558.988 238.65L545 187.676C544.78 186.875 544.748 186.034 544.907 185.218C545.065 184.403 545.41 183.635 545.913 182.974C546.417 182.313 547.067 181.778 547.811 181.409C548.556 181.04 549.375 180.848 550.206 180.848H623.638C624.852 180.849 626.031 181.26 626.983 182.013C627.936 182.766 628.606 183.819 628.887 185Z" fill="#9EBCEA"/>
<path d="M666.513 242.616H579.994C579.153 242.616 578.346 242.282 577.751 241.687C577.156 241.092 576.822 240.285 576.822 239.444C576.822 238.603 577.156 237.796 577.751 237.201C578.346 236.606 579.153 236.272 579.994 236.272H666.513C667.354 236.272 668.161 236.606 668.756 237.201C669.351 237.796 669.685 238.603 669.685 239.444C669.685 240.285 669.351 241.092 668.756 241.687C668.161 242.282 667.354 242.616 666.513 242.616Z" fill="#9EBCEA"/>
<path d="M590.082 219.695C594.758 219.695 598.548 215.905 598.548 211.229C598.548 206.554 594.758 202.763 590.082 202.763C585.406 202.763 581.616 206.554 581.616 211.229C581.616 215.905 585.406 219.695 590.082 219.695Z" fill="white"/>
<path d="M423.151 225.8C423.149 222.704 421.918 219.736 419.728 217.548C417.538 215.36 414.569 214.131 411.474 214.132V209.383H385.005V243.212H411.474V237.477C413.007 237.477 414.526 237.175 415.943 236.588C417.359 236.001 418.647 235.141 419.731 234.057C420.815 232.973 421.676 231.685 422.262 230.269C422.849 228.852 423.151 227.333 423.151 225.8ZM411.474 232.657V218.957C412.387 218.935 413.296 219.096 414.146 219.43C414.997 219.764 415.772 220.265 416.426 220.904C417.08 221.542 417.599 222.304 417.954 223.146C418.309 223.989 418.491 224.893 418.491 225.807C418.491 226.721 418.309 227.625 417.954 228.467C417.599 229.309 417.08 230.072 416.426 230.71C415.772 231.348 414.997 231.849 414.146 232.184C413.296 232.518 412.387 232.679 411.474 232.657Z" fill="#C1D8ED"/>
<path d="M235.488 61.845C250.167 61.845 262.067 49.9452 262.067 35.266C262.067 20.5868 250.167 8.68701 235.488 8.68701C220.809 8.68701 208.909 20.5868 208.909 35.266C208.909 49.9452 220.809 61.845 235.488 61.845Z" fill="#C1D8ED"/>
<path d="M240.905 61.845C255.584 61.845 267.484 49.9452 267.484 35.266C267.484 20.5868 255.584 8.68701 240.905 8.68701C226.226 8.68701 214.326 20.5868 214.326 35.266C214.326 49.9452 226.226 61.845 240.905 61.845Z" fill="#DEE8F5"/>
<path d="M240.905 57.929C253.421 57.929 263.568 47.7825 263.568 35.266C263.568 22.7496 253.421 12.603 240.905 12.603C228.389 12.603 218.242 22.7496 218.242 35.266C218.242 47.7825 228.389 57.929 240.905 57.929Z" fill="#F3F5FD"/>
<path d="M240.906 37.3581C240.72 37.3579 240.537 37.3101 240.375 37.2191L229.44 31.0721C229.316 31.0024 229.207 30.909 229.119 30.7972C229.031 30.6854 228.966 30.5573 228.928 30.4203C228.85 30.1437 228.885 29.8476 229.026 29.5971C229.167 29.3466 229.401 29.1623 229.678 29.0846C229.954 29.007 230.251 29.0424 230.501 29.1831L239.822 34.4221V19.5291C239.831 19.2474 239.948 18.9802 240.151 18.784C240.353 18.5878 240.624 18.478 240.905 18.478C241.187 18.478 241.458 18.5878 241.66 18.784C241.863 18.9802 241.98 19.2474 241.989 19.5291V36.2741C241.989 36.5613 241.875 36.8368 241.672 37.04C241.469 37.2432 241.193 37.3576 240.906 37.3581Z" fill="#DEE8F5"/>
</g>
<defs>
<clipPath id="clip0_228_11951">
<rect width="846.683" height="481.792" fill="white"/>
</clipPath>
</defs>
</svg>
