<svg width="315" height="181" viewBox="0 0 315 181" fill="none" xmlns="http://www.w3.org/2000/svg">
<g clip-path="url(#clip0_1210_83)">
<path opacity="0.1" d="M281.478 179.449C310.904 179.449 319.869 157.523 311.391 130.671C306.597 115.486 295.51 95.6275 277.398 86.641C227.833 62.0483 234.513 60.8675 222.243 34.6913C202.213 -8.03947 125.193 -9.68839 93.7226 20.9315C69.236 44.7562 58.7572 78.3425 25.3957 103.089C-14.8735 132.959 -3.89008 179.882 34.791 179.882L281.478 179.449Z" fill="#367CFF"/>
<path d="M314.429 153.553H4.0625L21.9245 118.816H296.567L314.429 153.553Z" fill="#292A2E"/>
<path d="M314.429 153.553H4.0625L21.9245 118.816H296.567L314.429 153.553Z" fill="white"/>
<path d="M314.429 153.859H4.06421C4.00712 153.86 3.95094 153.847 3.90088 153.822C3.85083 153.797 3.80853 153.761 3.77791 153.718C3.7473 153.674 3.72936 153.624 3.72577 153.573C3.72218 153.521 3.73305 153.47 3.75737 153.423L21.6181 118.686C21.6454 118.634 21.6887 118.589 21.743 118.558C21.7973 118.527 21.8603 118.51 21.9246 118.51H296.567C296.631 118.51 296.694 118.527 296.748 118.558C296.803 118.589 296.846 118.634 296.873 118.686L314.736 153.423C314.761 153.47 314.772 153.521 314.768 153.572C314.765 153.624 314.747 153.673 314.716 153.717C314.686 153.76 314.644 153.796 314.594 153.821C314.545 153.846 314.489 153.859 314.432 153.859H314.429ZM4.5956 153.247H313.896L296.352 119.122H22.14L4.5956 153.247Z" fill="#292A2E"/>
<path d="M180.709 107.186H150.652V127.715H180.709V107.186Z" fill="#292A2E"/>
<path opacity="0.64" d="M180.709 107.187H150.652V118.154H180.709V107.187Z" fill="#0C0C0C"/>
<path d="M229.518 25.7401H101.844C99.8354 25.7401 98.2075 27.2109 98.2075 29.0251V109.526C98.2075 111.34 99.8354 112.811 101.844 112.811H229.518C231.526 112.811 233.154 111.34 233.154 109.526V29.0251C233.154 27.2109 231.526 25.7401 229.518 25.7401Z" fill="#292A2E"/>
<path d="M227.723 29.4716H103.639C102.814 29.4716 102.146 30.0753 102.146 30.82V97.5836C102.146 98.3283 102.814 98.932 103.639 98.932H227.723C228.547 98.932 229.215 98.3283 229.215 97.5836V30.82C229.215 30.0753 228.547 29.4716 227.723 29.4716Z" fill="white"/>
<path d="M186.962 126.028H144.399C143.31 126.028 142.427 126.826 142.427 127.81C142.427 128.794 143.31 129.592 144.399 129.592H186.962C188.052 129.592 188.935 128.794 188.935 127.81C188.935 126.826 188.052 126.028 186.962 126.028Z" fill="#292A2E"/>
<path d="M144.629 40.5666H138.978C138.945 40.5677 138.911 40.5627 138.88 40.5518C138.848 40.5409 138.819 40.5244 138.795 40.5033C138.771 40.4821 138.751 40.4567 138.738 40.4287C138.725 40.4007 138.718 40.3705 138.718 40.34C138.718 40.3095 138.725 40.2794 138.738 40.2513C138.751 40.2233 138.771 40.1979 138.795 40.1768C138.819 40.1556 138.848 40.1391 138.88 40.1282C138.911 40.1173 138.945 40.1123 138.978 40.1134H144.629C144.694 40.1156 144.756 40.1404 144.801 40.1827C144.846 40.2249 144.871 40.2813 144.871 40.34C144.871 40.3987 144.846 40.4551 144.801 40.4974C144.756 40.5396 144.694 40.5644 144.629 40.5666Z" fill="#292A2E"/>
<path d="M134.903 40.5666H132.765C132.731 40.5677 132.698 40.5627 132.666 40.5518C132.635 40.5409 132.606 40.5244 132.582 40.5033C132.557 40.4821 132.538 40.4567 132.525 40.4287C132.512 40.4007 132.505 40.3705 132.505 40.34C132.505 40.3095 132.512 40.2794 132.525 40.2513C132.538 40.2233 132.557 40.1979 132.582 40.1768C132.606 40.1556 132.635 40.1391 132.666 40.1282C132.698 40.1173 132.731 40.1123 132.765 40.1134H134.903C134.937 40.1123 134.97 40.1173 135.002 40.1282C135.034 40.1391 135.062 40.1556 135.087 40.1768C135.111 40.1979 135.13 40.2233 135.143 40.2513C135.157 40.2794 135.163 40.3095 135.163 40.34C135.163 40.3705 135.157 40.4007 135.143 40.4287C135.13 40.4567 135.111 40.4821 135.087 40.5033C135.062 40.5244 135.034 40.5409 135.002 40.5518C134.97 40.5627 134.937 40.5677 134.903 40.5666Z" fill="#367CFF"/>
<path d="M134.903 44.656H132.765C132.699 44.656 132.635 44.6321 132.588 44.5896C132.541 44.5471 132.514 44.4894 132.514 44.4292C132.514 44.3691 132.541 44.3114 132.588 44.2689C132.635 44.2264 132.699 44.2025 132.765 44.2025H134.903C134.97 44.2025 135.034 44.2264 135.081 44.2689C135.128 44.3114 135.154 44.3691 135.154 44.4292C135.154 44.4894 135.128 44.5471 135.081 44.5896C135.034 44.6321 134.97 44.656 134.903 44.656Z" fill="#367CFF"/>
<path d="M134.903 48.7454H132.765C132.699 48.7454 132.635 48.7215 132.588 48.679C132.541 48.6365 132.514 48.5788 132.514 48.5187C132.514 48.4585 132.541 48.4009 132.588 48.3583C132.635 48.3158 132.699 48.2919 132.765 48.2919H134.903C134.97 48.2919 135.034 48.3158 135.081 48.3583C135.128 48.4009 135.154 48.4585 135.154 48.5187C135.154 48.5788 135.128 48.6365 135.081 48.679C135.034 48.7215 134.97 48.7454 134.903 48.7454Z" fill="#367CFF"/>
<path d="M134.903 52.8348H132.765C132.699 52.8348 132.635 52.8109 132.588 52.7684C132.541 52.7259 132.514 52.6682 132.514 52.6081C132.514 52.5479 132.541 52.4903 132.588 52.4478C132.635 52.4052 132.699 52.3813 132.765 52.3813H134.903C134.97 52.3813 135.034 52.4052 135.081 52.4478C135.128 52.4903 135.154 52.5479 135.154 52.6081C135.154 52.6682 135.128 52.7259 135.081 52.7684C135.034 52.8109 134.97 52.8348 134.903 52.8348Z" fill="#367CFF"/>
<path d="M134.903 56.9239H132.765C132.731 56.925 132.698 56.92 132.666 56.9091C132.635 56.8982 132.606 56.8817 132.582 56.8606C132.557 56.8394 132.538 56.814 132.525 56.786C132.512 56.758 132.505 56.7278 132.505 56.6973C132.505 56.6668 132.512 56.6367 132.525 56.6086C132.538 56.5806 132.557 56.5552 132.582 56.5341C132.606 56.5129 132.635 56.4964 132.666 56.4855C132.698 56.4746 132.731 56.4696 132.765 56.4707H134.903C134.937 56.4696 134.97 56.4746 135.002 56.4855C135.034 56.4964 135.062 56.5129 135.087 56.5341C135.111 56.5552 135.13 56.5806 135.143 56.6086C135.157 56.6367 135.163 56.6668 135.163 56.6973C135.163 56.7278 135.157 56.758 135.143 56.786C135.13 56.814 135.111 56.8394 135.087 56.8606C135.062 56.8817 135.034 56.8982 135.002 56.9091C134.97 56.92 134.937 56.925 134.903 56.9239Z" fill="#367CFF"/>
<path d="M134.903 61.0121H132.765C132.699 61.0121 132.635 60.9882 132.588 60.9457C132.541 60.9032 132.514 60.8455 132.514 60.7853C132.514 60.7252 132.541 60.6676 132.588 60.625C132.635 60.5825 132.699 60.5586 132.765 60.5586H134.903C134.97 60.5586 135.034 60.5825 135.081 60.625C135.128 60.6676 135.154 60.7252 135.154 60.7853C135.154 60.8455 135.128 60.9032 135.081 60.9457C135.034 60.9882 134.97 61.0121 134.903 61.0121Z" fill="#367CFF"/>
<path d="M134.903 65.1027H132.765C132.699 65.1027 132.635 65.0788 132.588 65.0363C132.541 64.9938 132.514 64.9361 132.514 64.876C132.514 64.8158 132.541 64.7582 132.588 64.7156C132.635 64.6731 132.699 64.6492 132.765 64.6492H134.903C134.97 64.6492 135.034 64.6731 135.081 64.7156C135.128 64.7582 135.154 64.8158 135.154 64.876C135.154 64.9361 135.128 64.9938 135.081 65.0363C135.034 65.0788 134.97 65.1027 134.903 65.1027Z" fill="#367CFF"/>
<path d="M134.903 69.1918H132.765C132.731 69.1929 132.698 69.1879 132.666 69.177C132.635 69.1661 132.606 69.1496 132.582 69.1285C132.557 69.1073 132.538 69.082 132.525 69.0539C132.512 69.0259 132.505 68.9957 132.505 68.9652C132.505 68.9347 132.512 68.9046 132.525 68.8765C132.538 68.8485 132.557 68.8231 132.582 68.802C132.606 68.7808 132.635 68.7643 132.666 68.7534C132.698 68.7426 132.731 68.7375 132.765 68.7386H134.903C134.937 68.7375 134.97 68.7426 135.002 68.7534C135.034 68.7643 135.062 68.7808 135.087 68.802C135.111 68.8231 135.13 68.8485 135.143 68.8765C135.157 68.9046 135.163 68.9347 135.163 68.9652C135.163 68.9957 135.157 69.0259 135.143 69.0539C135.13 69.082 135.111 69.1073 135.087 69.1285C135.062 69.1496 135.034 69.1661 135.002 69.177C134.97 69.1879 134.937 69.1929 134.903 69.1918Z" fill="#367CFF"/>
<path d="M134.903 73.2818H132.765C132.699 73.2818 132.635 73.2579 132.588 73.2154C132.541 73.1729 132.514 73.1152 132.514 73.0551C132.514 72.9949 132.541 72.9373 132.588 72.8947C132.635 72.8522 132.699 72.8283 132.765 72.8283H134.903C134.97 72.8283 135.034 72.8522 135.081 72.8947C135.128 72.9373 135.154 72.9949 135.154 73.0551C135.154 73.1152 135.128 73.1729 135.081 73.2154C135.034 73.2579 134.97 73.2818 134.903 73.2818Z" fill="#367CFF"/>
<path d="M134.903 77.3706H132.765C132.699 77.3706 132.635 77.3467 132.588 77.3042C132.541 77.2617 132.514 77.204 132.514 77.1439C132.514 77.0837 132.541 77.0261 132.588 76.9836C132.635 76.941 132.699 76.9171 132.765 76.9171H134.903C134.97 76.9171 135.034 76.941 135.081 76.9836C135.128 77.0261 135.154 77.0837 135.154 77.1439C135.154 77.204 135.128 77.2617 135.081 77.3042C135.034 77.3467 134.97 77.3706 134.903 77.3706Z" fill="#367CFF"/>
<path d="M134.903 81.4597H132.765C132.731 81.4608 132.698 81.4558 132.666 81.4449C132.635 81.434 132.606 81.4175 132.582 81.3964C132.557 81.3752 132.538 81.3499 132.525 81.3218C132.512 81.2938 132.505 81.2636 132.505 81.2331C132.505 81.2027 132.512 81.1725 132.525 81.1445C132.538 81.1164 132.557 81.091 132.582 81.0699C132.606 81.0487 132.635 81.0322 132.666 81.0214C132.698 81.0105 132.731 81.0054 132.765 81.0066H134.903C134.937 81.0054 134.97 81.0105 135.002 81.0214C135.034 81.0322 135.062 81.0487 135.087 81.0699C135.111 81.091 135.13 81.1164 135.143 81.1445C135.157 81.1725 135.163 81.2027 135.163 81.2331C135.163 81.2636 135.157 81.2938 135.143 81.3218C135.13 81.3499 135.111 81.3752 135.087 81.3964C135.062 81.4175 135.034 81.434 135.002 81.4449C134.97 81.4558 134.937 81.4608 134.903 81.4597Z" fill="#367CFF"/>
<path d="M134.903 85.5491H132.765C132.699 85.5491 132.635 85.5252 132.588 85.4827C132.541 85.4402 132.514 85.3825 132.514 85.3224C132.514 85.2623 132.541 85.2046 132.588 85.1621C132.635 85.1195 132.699 85.0956 132.765 85.0956H134.903C134.97 85.0956 135.034 85.1195 135.081 85.1621C135.128 85.2046 135.154 85.2623 135.154 85.3224C135.154 85.3825 135.128 85.4402 135.081 85.4827C135.034 85.5252 134.97 85.5491 134.903 85.5491Z" fill="#367CFF"/>
<path d="M134.903 89.6385H132.765C132.699 89.6385 132.635 89.6146 132.588 89.5721C132.541 89.5296 132.514 89.4719 132.514 89.4118C132.514 89.3516 132.541 89.294 132.588 89.2514C132.635 89.2089 132.699 89.185 132.765 89.185H134.903C134.97 89.185 135.034 89.2089 135.081 89.2514C135.128 89.294 135.154 89.3516 135.154 89.4118C135.154 89.4719 135.128 89.5296 135.081 89.5721C135.034 89.6146 134.97 89.6385 134.903 89.6385Z" fill="#367CFF"/>
<path d="M134.903 93.7276H132.765C132.731 93.7287 132.698 93.7237 132.666 93.7128C132.635 93.7019 132.606 93.6854 132.582 93.6642C132.557 93.6431 132.538 93.6177 132.525 93.5897C132.512 93.5616 132.505 93.5315 132.505 93.501C132.505 93.4705 132.512 93.4404 132.525 93.4123C132.538 93.3843 132.557 93.3589 132.582 93.3378C132.606 93.3166 132.635 93.3001 132.666 93.2892C132.698 93.2783 132.731 93.2733 132.765 93.2744H134.903C134.937 93.2733 134.97 93.2783 135.002 93.2892C135.034 93.3001 135.062 93.3166 135.087 93.3378C135.111 93.3589 135.13 93.3843 135.143 93.4123C135.157 93.4404 135.163 93.4705 135.163 93.501C135.163 93.5315 135.157 93.5616 135.143 93.5897C135.13 93.6177 135.111 93.6431 135.087 93.6642C135.062 93.6854 135.034 93.7019 135.002 93.7128C134.97 93.7237 134.937 93.7287 134.903 93.7276Z" fill="#367CFF"/>
<path d="M149.145 44.656H143.997C143.964 44.6571 143.93 44.6521 143.899 44.6412C143.867 44.6303 143.838 44.6138 143.814 44.5927C143.79 44.5715 143.77 44.5462 143.757 44.5181C143.744 44.4901 143.737 44.4599 143.737 44.4294C143.737 44.3989 143.744 44.3688 143.757 44.3407C143.77 44.3127 143.79 44.2873 143.814 44.2662C143.838 44.245 143.867 44.2285 143.899 44.2176C143.93 44.2068 143.964 44.2017 143.997 44.2029H149.145C149.179 44.2017 149.213 44.2068 149.244 44.2176C149.276 44.2285 149.305 44.245 149.329 44.2662C149.353 44.2873 149.372 44.3127 149.386 44.3407C149.399 44.3688 149.406 44.3989 149.406 44.4294C149.406 44.4599 149.399 44.4901 149.386 44.5181C149.372 44.5462 149.353 44.5715 149.329 44.5927C149.305 44.6138 149.276 44.6303 149.244 44.6412C149.213 44.6521 149.179 44.6571 149.145 44.656Z" fill="#292A2E"/>
<path d="M144.629 69.1918H138.978C138.945 69.1929 138.911 69.1879 138.88 69.177C138.848 69.1661 138.819 69.1496 138.795 69.1285C138.771 69.1073 138.751 69.082 138.738 69.0539C138.725 69.0259 138.718 68.9957 138.718 68.9652C138.718 68.9347 138.725 68.9046 138.738 68.8765C138.751 68.8485 138.771 68.8231 138.795 68.802C138.819 68.7808 138.848 68.7643 138.88 68.7534C138.911 68.7426 138.945 68.7375 138.978 68.7386H144.629C144.694 68.7408 144.756 68.7656 144.801 68.8079C144.846 68.8501 144.871 68.9065 144.871 68.9652C144.871 69.0239 144.846 69.0803 144.801 69.1226C144.756 69.1648 144.694 69.1896 144.629 69.1918Z" fill="#292A2E"/>
<path d="M149.146 73.2818H143.998C143.931 73.2818 143.867 73.2579 143.82 73.2154C143.773 73.1729 143.747 73.1152 143.747 73.0551C143.747 72.995 143.773 72.9373 143.82 72.8948C143.867 72.8523 143.931 72.8284 143.998 72.8284H149.146C149.212 72.8284 149.276 72.8523 149.323 72.8948C149.37 72.9373 149.396 72.995 149.396 73.0551C149.396 73.1152 149.37 73.1729 149.323 73.2154C149.276 73.2579 149.212 73.2818 149.146 73.2818Z" fill="#292A2E"/>
<path d="M185.024 48.7454H147.509C147.443 48.7454 147.379 48.7215 147.332 48.679C147.285 48.6365 147.258 48.5788 147.258 48.5187C147.258 48.4585 147.285 48.4009 147.332 48.3583C147.379 48.3158 147.443 48.2919 147.509 48.2919H185.024C185.091 48.2919 185.155 48.3158 185.202 48.3583C185.249 48.4009 185.275 48.4585 185.275 48.5187C185.275 48.5788 185.249 48.6365 185.202 48.679C185.155 48.7215 185.091 48.7454 185.024 48.7454Z" fill="#292A2E"/>
<path d="M212.165 48.7454H190.456C190.389 48.7454 190.326 48.7215 190.279 48.679C190.232 48.6365 190.205 48.5788 190.205 48.5187C190.205 48.4585 190.232 48.4009 190.279 48.3583C190.326 48.3158 190.389 48.2919 190.456 48.2919H212.165C212.232 48.2919 212.296 48.3158 212.343 48.3583C212.39 48.4009 212.416 48.4585 212.416 48.5187C212.416 48.5788 212.39 48.6365 212.343 48.679C212.296 48.7215 212.232 48.7454 212.165 48.7454Z" fill="#0CBC8B"/>
<path d="M223.816 48.7454H217.163C217.096 48.7454 217.032 48.7215 216.985 48.679C216.938 48.6365 216.912 48.5788 216.912 48.5187C216.912 48.4585 216.938 48.4009 216.985 48.3583C217.032 48.3158 217.096 48.2919 217.163 48.2919H223.817C223.883 48.2919 223.947 48.3158 223.994 48.3583C224.041 48.4009 224.068 48.4585 224.068 48.5187C224.068 48.5788 224.041 48.6365 223.994 48.679C223.947 48.7215 223.883 48.7454 223.817 48.7454H223.816Z" fill="#292A2E"/>
<path d="M200.078 56.9239H147.509C147.475 56.925 147.442 56.92 147.41 56.9091C147.379 56.8982 147.35 56.8817 147.326 56.8606C147.302 56.8394 147.282 56.814 147.269 56.786C147.256 56.758 147.249 56.7278 147.249 56.6973C147.249 56.6668 147.256 56.6367 147.269 56.6086C147.282 56.5806 147.302 56.5552 147.326 56.5341C147.35 56.5129 147.379 56.4964 147.41 56.4855C147.442 56.4746 147.475 56.4696 147.509 56.4707H200.078C200.112 56.4696 200.146 56.4746 200.177 56.4855C200.209 56.4964 200.237 56.5129 200.262 56.5341C200.286 56.5552 200.305 56.5806 200.318 56.6086C200.332 56.6367 200.338 56.6668 200.338 56.6973C200.338 56.7278 200.332 56.758 200.318 56.786C200.305 56.814 200.286 56.8394 200.262 56.8606C200.237 56.8817 200.209 56.8982 200.177 56.9091C200.146 56.92 200.112 56.925 200.078 56.9239Z" fill="#292A2E"/>
<path d="M212.165 56.9239H205.512C205.478 56.925 205.444 56.92 205.413 56.9091C205.381 56.8982 205.353 56.8817 205.328 56.8606C205.304 56.8394 205.285 56.814 205.271 56.786C205.258 56.758 205.251 56.7278 205.251 56.6973C205.251 56.6668 205.258 56.6367 205.271 56.6086C205.285 56.5806 205.304 56.5552 205.328 56.5341C205.353 56.5129 205.381 56.4964 205.413 56.4855C205.444 56.4746 205.478 56.4696 205.512 56.4707H212.166C212.2 56.4696 212.233 56.4746 212.265 56.4855C212.296 56.4964 212.325 56.5129 212.349 56.5341C212.374 56.5552 212.393 56.5806 212.406 56.6086C212.419 56.6367 212.426 56.6668 212.426 56.6973C212.426 56.7278 212.419 56.758 212.406 56.786C212.393 56.814 212.374 56.8394 212.349 56.8606C212.325 56.8817 212.296 56.8982 212.265 56.9091C212.233 56.92 212.2 56.925 212.166 56.9239H212.165Z" fill="#367CFF"/>
<path d="M153.16 52.8348H147.509C147.443 52.8348 147.379 52.8109 147.332 52.7684C147.285 52.7259 147.258 52.6682 147.258 52.6081C147.258 52.5479 147.285 52.4903 147.332 52.4478C147.379 52.4052 147.443 52.3813 147.509 52.3813H153.16C153.227 52.3813 153.291 52.4052 153.338 52.4478C153.385 52.4903 153.411 52.5479 153.411 52.6081C153.411 52.6682 153.385 52.7259 153.338 52.7684C153.291 52.8109 153.227 52.8348 153.16 52.8348Z" fill="#0CBC8B"/>
<path d="M197.113 52.8348H158.593C158.526 52.8348 158.462 52.8109 158.415 52.7684C158.368 52.7259 158.342 52.6682 158.342 52.6081C158.342 52.5479 158.368 52.4903 158.415 52.4478C158.462 52.4052 158.526 52.3813 158.593 52.3813H197.113C197.179 52.3813 197.243 52.4052 197.29 52.4478C197.337 52.4903 197.364 52.5479 197.364 52.6081C197.364 52.6682 197.337 52.7259 197.29 52.7684C197.243 52.8109 197.179 52.8348 197.113 52.8348Z" fill="#367CFF"/>
<path d="M223.86 52.8348H203.155C203.088 52.8348 203.024 52.8109 202.977 52.7684C202.93 52.7259 202.904 52.6682 202.904 52.6081C202.904 52.5479 202.93 52.4903 202.977 52.4478C203.024 52.4052 203.088 52.3813 203.155 52.3813H223.86C223.926 52.3813 223.99 52.4052 224.037 52.4478C224.084 52.4903 224.111 52.5479 224.111 52.6081C224.111 52.6682 224.084 52.7259 224.037 52.7684C223.99 52.8109 223.926 52.8348 223.86 52.8348Z" fill="#292A2E"/>
<path d="M185.024 61.0121H147.509C147.443 61.0121 147.379 60.9882 147.332 60.9457C147.285 60.9032 147.258 60.8455 147.258 60.7854C147.258 60.7253 147.285 60.6676 147.332 60.6251C147.379 60.5825 147.443 60.5587 147.509 60.5587H185.024C185.091 60.5587 185.155 60.5825 185.202 60.6251C185.249 60.6676 185.275 60.7253 185.275 60.7854C185.275 60.8455 185.249 60.9032 185.202 60.9457C185.155 60.9882 185.091 61.0121 185.024 61.0121Z" fill="#292A2E"/>
<path d="M202.13 61.0121H190.457C190.39 61.0121 190.327 60.9882 190.28 60.9457C190.232 60.9032 190.206 60.8455 190.206 60.7854C190.206 60.7253 190.232 60.6676 190.28 60.6251C190.327 60.5825 190.39 60.5587 190.457 60.5587H202.13C202.196 60.5587 202.26 60.5825 202.307 60.6251C202.354 60.6676 202.381 60.7253 202.381 60.7854C202.381 60.8455 202.354 60.9032 202.307 60.9457C202.26 60.9882 202.196 61.0121 202.13 61.0121Z" fill="#0CBC8B"/>
<path d="M223.816 61.0121H207.125C207.058 61.0121 206.995 60.9882 206.948 60.9457C206.9 60.9032 206.874 60.8455 206.874 60.7854C206.874 60.7253 206.9 60.6676 206.948 60.6251C206.995 60.5825 207.058 60.5587 207.125 60.5587H223.816C223.882 60.5587 223.946 60.5825 223.993 60.6251C224.04 60.6676 224.067 60.7253 224.067 60.7854C224.067 60.8455 224.04 60.9032 223.993 60.9457C223.946 60.9882 223.882 61.0121 223.816 61.0121Z" fill="#292A2E"/>
<path d="M153.16 65.1027H147.509C147.443 65.1027 147.379 65.0788 147.332 65.0363C147.285 64.9938 147.258 64.9361 147.258 64.876C147.258 64.8158 147.285 64.7582 147.332 64.7156C147.379 64.6731 147.443 64.6492 147.509 64.6492H153.16C153.227 64.6492 153.291 64.6731 153.338 64.7156C153.385 64.7582 153.411 64.8158 153.411 64.876C153.411 64.9361 153.385 64.9938 153.338 65.0363C153.291 65.0788 153.227 65.1027 153.16 65.1027Z" fill="#367CFF"/>
<path d="M197.113 65.1027H158.593C158.526 65.1027 158.462 65.0788 158.415 65.0363C158.368 64.9938 158.342 64.9361 158.342 64.876C158.342 64.8158 158.368 64.7582 158.415 64.7156C158.462 64.6731 158.526 64.6492 158.593 64.6492H197.113C197.179 64.6492 197.243 64.6731 197.29 64.7156C197.337 64.7582 197.364 64.8158 197.364 64.876C197.364 64.9361 197.337 64.9938 197.29 65.0363C197.243 65.0788 197.179 65.1027 197.113 65.1027Z" fill="#0CBC8B"/>
<path d="M184.021 81.46H146.506C146.439 81.46 146.375 81.4361 146.328 81.3936C146.281 81.3511 146.255 81.2934 146.255 81.2333C146.255 81.1732 146.281 81.1155 146.328 81.073C146.375 81.0305 146.439 81.0066 146.506 81.0066H184.021C184.087 81.0066 184.151 81.0305 184.198 81.073C184.245 81.1155 184.271 81.1732 184.271 81.2333C184.271 81.2934 184.245 81.3511 184.198 81.3936C184.151 81.4361 184.087 81.46 184.021 81.46Z" fill="#292A2E"/>
<path d="M211.162 81.46H189.453C189.386 81.46 189.322 81.4361 189.275 81.3936C189.228 81.3511 189.202 81.2934 189.202 81.2333C189.202 81.1732 189.228 81.1155 189.275 81.073C189.322 81.0305 189.386 81.0066 189.453 81.0066H211.162C211.229 81.0066 211.292 81.0305 211.34 81.073C211.387 81.1155 211.413 81.1732 211.413 81.2333C211.413 81.2934 211.387 81.3511 211.34 81.3936C211.292 81.4361 211.229 81.46 211.162 81.46Z" fill="#367CFF"/>
<path d="M162.195 77.3706H146.506C146.439 77.3706 146.375 77.3467 146.328 77.3042C146.281 77.2617 146.255 77.204 146.255 77.1439C146.255 77.0838 146.281 77.0261 146.328 76.9836C146.375 76.9411 146.439 76.9172 146.506 76.9172H162.195C162.261 76.9172 162.325 76.9411 162.372 76.9836C162.419 77.0261 162.446 77.0838 162.446 77.1439C162.446 77.204 162.419 77.2617 162.372 77.3042C162.325 77.3467 162.261 77.3706 162.195 77.3706Z" fill="#0CBC8B"/>
<path d="M196.108 77.3706H167.625C167.558 77.3706 167.494 77.3467 167.447 77.3042C167.4 77.2617 167.374 77.204 167.374 77.1439C167.374 77.0838 167.4 77.0261 167.447 76.9836C167.494 76.9411 167.558 76.9172 167.625 76.9172H196.108C196.174 76.9172 196.238 76.9411 196.285 76.9836C196.332 77.0261 196.359 77.0838 196.359 77.1439C196.359 77.204 196.332 77.2617 196.285 77.3042C196.238 77.3467 196.174 77.3706 196.108 77.3706Z" fill="#367CFF"/>
<path d="M222.856 77.3706H202.151C202.085 77.3706 202.021 77.3467 201.974 77.3042C201.927 77.2617 201.9 77.204 201.9 77.1439C201.9 77.0838 201.927 77.0261 201.974 76.9836C202.021 76.9411 202.085 76.9172 202.151 76.9172H222.856C222.923 76.9172 222.987 76.9411 223.034 76.9836C223.081 77.0261 223.107 77.0838 223.107 77.1439C223.107 77.204 223.081 77.2617 223.034 77.3042C222.987 77.3467 222.923 77.3706 222.856 77.3706Z" fill="#292A2E"/>
<path d="M199.075 89.6385H146.506C146.439 89.6385 146.375 89.6146 146.328 89.5721C146.281 89.5296 146.255 89.4719 146.255 89.4118C146.255 89.3517 146.281 89.294 146.328 89.2515C146.375 89.2089 146.439 89.1851 146.506 89.1851H199.075C199.142 89.1851 199.205 89.2089 199.252 89.2515C199.299 89.294 199.326 89.3517 199.326 89.4118C199.326 89.4719 199.299 89.5296 199.252 89.5721C199.205 89.6146 199.142 89.6385 199.075 89.6385Z" fill="#367CFF"/>
<path d="M214.549 89.6385H204.508C204.441 89.6385 204.377 89.6146 204.33 89.5721C204.283 89.5296 204.257 89.4719 204.257 89.4118C204.257 89.3517 204.283 89.294 204.33 89.2515C204.377 89.2089 204.441 89.1851 204.508 89.1851H214.549C214.616 89.1851 214.679 89.2089 214.726 89.2515C214.774 89.294 214.8 89.3517 214.8 89.4118C214.8 89.4719 214.774 89.5296 214.726 89.5721C214.679 89.6146 214.616 89.6385 214.549 89.6385Z" fill="#292A2E"/>
<path d="M152.156 85.5491H146.506C146.472 85.5503 146.438 85.5452 146.407 85.5343C146.375 85.5235 146.347 85.5069 146.322 85.4858C146.298 85.4646 146.279 85.4393 146.266 85.4112C146.252 85.3832 146.246 85.353 146.246 85.3226C146.246 85.2921 146.252 85.2619 146.266 85.2339C146.279 85.2058 146.298 85.1805 146.322 85.1593C146.347 85.1382 146.375 85.1217 146.407 85.1108C146.438 85.0999 146.472 85.0949 146.506 85.096H152.156C152.19 85.0949 152.224 85.0999 152.255 85.1108C152.287 85.1217 152.315 85.1382 152.34 85.1593C152.364 85.1805 152.383 85.2058 152.396 85.2339C152.41 85.2619 152.416 85.2921 152.416 85.3226C152.416 85.353 152.41 85.3832 152.396 85.4112C152.383 85.4393 152.364 85.4646 152.34 85.4858C152.315 85.5069 152.287 85.5235 152.255 85.5343C152.224 85.5452 152.19 85.5503 152.156 85.5491Z" fill="#367CFF"/>
<path d="M196.108 85.5491H157.589C157.555 85.5503 157.521 85.5452 157.49 85.5343C157.458 85.5235 157.43 85.5069 157.405 85.4858C157.381 85.4646 157.362 85.4393 157.349 85.4112C157.335 85.3832 157.329 85.353 157.329 85.3226C157.329 85.2921 157.335 85.2619 157.349 85.2339C157.362 85.2058 157.381 85.1805 157.405 85.1593C157.43 85.1382 157.458 85.1217 157.49 85.1108C157.521 85.0999 157.555 85.0949 157.589 85.096H196.108C196.142 85.0949 196.175 85.0999 196.207 85.1108C196.238 85.1217 196.267 85.1382 196.291 85.1593C196.316 85.1805 196.335 85.2058 196.348 85.2339C196.361 85.2619 196.368 85.2921 196.368 85.3226C196.368 85.353 196.361 85.3832 196.348 85.4112C196.335 85.4393 196.316 85.4646 196.291 85.4858C196.267 85.5069 196.238 85.5235 196.207 85.5343C196.175 85.5452 196.142 85.5503 196.108 85.5491Z" fill="#292A2E"/>
<path d="M222.856 85.5491H202.151C202.118 85.5503 202.084 85.5452 202.052 85.5343C202.021 85.5235 201.992 85.5069 201.968 85.4858C201.944 85.4646 201.924 85.4393 201.911 85.4112C201.898 85.3832 201.891 85.353 201.891 85.3226C201.891 85.2921 201.898 85.2619 201.911 85.2339C201.924 85.2058 201.944 85.1805 201.968 85.1593C201.992 85.1382 202.021 85.1217 202.052 85.1108C202.084 85.0999 202.118 85.0949 202.151 85.096H222.856C222.89 85.0949 222.924 85.0999 222.955 85.1108C222.987 85.1217 223.015 85.1382 223.04 85.1593C223.064 85.1805 223.083 85.2058 223.096 85.2339C223.11 85.2619 223.116 85.2921 223.116 85.3226C223.116 85.353 223.11 85.3832 223.096 85.4112C223.083 85.4393 223.064 85.4646 223.04 85.4858C223.015 85.5069 222.987 85.5235 222.955 85.5343C222.924 85.5452 222.89 85.5503 222.856 85.5491Z" fill="#0CBC8B"/>
<path d="M184.021 93.7279H146.506C146.439 93.7279 146.375 93.704 146.328 93.6615C146.281 93.619 146.255 93.5613 146.255 93.5012C146.255 93.441 146.281 93.3834 146.328 93.3409C146.375 93.2983 146.439 93.2744 146.506 93.2744H184.021C184.087 93.2744 184.151 93.2983 184.198 93.3409C184.245 93.3834 184.271 93.441 184.271 93.5012C184.271 93.5613 184.245 93.619 184.198 93.6615C184.151 93.704 184.087 93.7279 184.021 93.7279Z" fill="#0CBC8B"/>
<path d="M201.126 93.7279H189.454C189.387 93.7279 189.323 93.704 189.276 93.6615C189.229 93.619 189.203 93.5613 189.203 93.5012C189.203 93.441 189.229 93.3834 189.276 93.3409C189.323 93.2983 189.387 93.2744 189.454 93.2744H201.126C201.193 93.2744 201.257 93.2983 201.304 93.3409C201.351 93.3834 201.377 93.441 201.377 93.5012C201.377 93.5613 201.351 93.619 201.304 93.6615C201.257 93.704 201.193 93.7279 201.126 93.7279Z" fill="#292A2E"/>
<path d="M222.812 93.7279H206.122C206.055 93.7279 205.991 93.704 205.944 93.6615C205.897 93.619 205.871 93.5613 205.871 93.5012C205.871 93.441 205.897 93.3834 205.944 93.3409C205.991 93.2983 206.055 93.2744 206.122 93.2744H222.812C222.879 93.2744 222.942 93.2983 222.99 93.3409C223.037 93.3834 223.063 93.441 223.063 93.5012C223.063 93.5613 223.037 93.619 222.99 93.6615C222.942 93.704 222.879 93.7279 222.812 93.7279H222.812Z" fill="#367CFF"/>
<path d="M129.366 95.9615C129.333 95.9616 129.301 95.9557 129.27 95.9444C129.24 95.933 129.212 95.9164 129.189 95.8953C129.165 95.8743 129.147 95.8493 129.134 95.8218C129.122 95.7943 129.115 95.7649 129.115 95.7351V33.4287C129.115 33.3686 129.142 33.3109 129.189 33.2684C129.236 33.2259 129.3 33.202 129.366 33.202C129.433 33.202 129.497 33.2259 129.544 33.2684C129.591 33.3109 129.617 33.3686 129.617 33.4287V95.7351C129.617 95.7649 129.611 95.7943 129.598 95.8218C129.585 95.8493 129.567 95.8743 129.544 95.8953C129.52 95.9164 129.493 95.933 129.462 95.9444C129.432 95.9557 129.399 95.9616 129.366 95.9615Z" fill="#292A2E"/>
<path d="M117.891 36.26H107.024C106.958 36.26 106.894 36.2361 106.847 36.1936C106.8 36.151 106.773 36.0934 106.773 36.0332C106.773 35.9731 106.8 35.9154 106.847 35.8729C106.894 35.8304 106.958 35.8065 107.024 35.8065H117.89C117.957 35.8065 118.02 35.8304 118.067 35.8729C118.115 35.9154 118.141 35.9731 118.141 36.0332C118.141 36.0934 118.115 36.151 118.067 36.1936C118.02 36.2361 117.957 36.26 117.89 36.26H117.891Z" fill="#292A2E"/>
<path d="M114.617 40.7309H107.023C106.99 40.732 106.956 40.727 106.925 40.7161C106.893 40.7052 106.864 40.6887 106.84 40.6676C106.816 40.6464 106.796 40.6211 106.783 40.593C106.77 40.565 106.763 40.5348 106.763 40.5043C106.763 40.4739 106.77 40.4437 106.783 40.4157C106.796 40.3876 106.816 40.3623 106.84 40.3411C106.864 40.32 106.893 40.3034 106.925 40.2926C106.956 40.2817 106.99 40.2767 107.023 40.2778H114.616C114.681 40.2799 114.742 40.3047 114.787 40.347C114.832 40.3893 114.858 40.4457 114.858 40.5043C114.858 40.563 114.832 40.6194 114.787 40.6617C114.742 40.704 114.681 40.7288 114.616 40.7309H114.617Z" fill="#292A2E"/>
<path d="M121.294 45.2022H107.023C106.957 45.2022 106.893 45.1783 106.846 45.1358C106.799 45.0933 106.772 45.0356 106.772 44.9755C106.772 44.9153 106.799 44.8577 106.846 44.8152C106.893 44.7726 106.957 44.7487 107.023 44.7487H121.292C121.359 44.7487 121.423 44.7726 121.47 44.8152C121.517 44.8577 121.543 44.9153 121.543 44.9755C121.543 45.0356 121.517 45.0933 121.47 45.1358C121.423 45.1783 121.359 45.2022 121.292 45.2022H121.294Z" fill="#292A2E"/>
<path d="M123.955 49.6732H112.043C112.009 49.6743 111.976 49.6692 111.944 49.6584C111.913 49.6475 111.884 49.631 111.86 49.6098C111.835 49.5887 111.816 49.5633 111.803 49.5353C111.79 49.5072 111.783 49.4771 111.783 49.4466C111.783 49.4161 111.79 49.3859 111.803 49.3579C111.816 49.3298 111.835 49.3045 111.86 49.2833C111.884 49.2622 111.913 49.2457 111.944 49.2348C111.976 49.2239 112.009 49.2189 112.043 49.22H123.955C123.989 49.2189 124.023 49.2239 124.054 49.2348C124.086 49.2457 124.114 49.2622 124.139 49.2833C124.163 49.3045 124.182 49.3298 124.196 49.3579C124.209 49.3859 124.216 49.4161 124.216 49.4466C124.216 49.4771 124.209 49.5072 124.196 49.5353C124.182 49.5633 124.163 49.5887 124.139 49.6098C124.114 49.631 124.086 49.6475 124.054 49.6584C124.023 49.6692 123.989 49.6743 123.955 49.6732Z" fill="#292A2E"/>
<path d="M118.195 54.1444H112.043C111.976 54.1444 111.913 54.1205 111.865 54.078C111.818 54.0355 111.792 53.9778 111.792 53.9177C111.792 53.8576 111.818 53.7999 111.865 53.7574C111.913 53.7149 111.976 53.691 112.043 53.691H118.195C118.262 53.691 118.326 53.7149 118.373 53.7574C118.42 53.7999 118.446 53.8576 118.446 53.9177C118.446 53.9778 118.42 54.0355 118.373 54.078C118.326 54.1205 118.262 54.1444 118.195 54.1444Z" fill="#292A2E"/>
<path d="M122.908 58.6157H112.043C111.976 58.6157 111.913 58.5918 111.866 58.5493C111.818 58.5067 111.792 58.4491 111.792 58.3889C111.792 58.3288 111.818 58.2711 111.866 58.2286C111.913 58.1861 111.976 58.1622 112.043 58.1622H122.908C122.974 58.1622 123.038 58.1861 123.085 58.2286C123.132 58.2711 123.158 58.3288 123.158 58.3889C123.158 58.4491 123.132 58.5067 123.085 58.5493C123.038 58.5918 122.974 58.6157 122.908 58.6157Z" fill="#292A2E"/>
<path d="M115.403 63.0866H107.023C106.957 63.0866 106.893 63.0627 106.846 63.0202C106.799 62.9777 106.772 62.92 106.772 62.8599C106.772 62.7998 106.799 62.7421 106.846 62.6996C106.893 62.6571 106.957 62.6332 107.023 62.6332H115.401C115.468 62.6332 115.532 62.6571 115.579 62.6996C115.626 62.7421 115.652 62.7998 115.652 62.8599C115.652 62.92 115.626 62.9777 115.579 63.0202C115.532 63.0627 115.468 63.0866 115.401 63.0866H115.403Z" fill="#292A2E"/>
<path d="M112.523 67.5579H107.023C106.957 67.5579 106.893 67.534 106.846 67.4915C106.799 67.449 106.772 67.3913 106.772 67.3312C106.772 67.2711 106.799 67.2134 106.846 67.1709C106.893 67.1283 106.957 67.1045 107.023 67.1045H112.521C112.588 67.1045 112.652 67.1283 112.699 67.1709C112.746 67.2134 112.772 67.2711 112.772 67.3312C112.772 67.3913 112.746 67.449 112.699 67.4915C112.652 67.534 112.588 67.5579 112.521 67.5579H112.523Z" fill="#292A2E"/>
<path d="M134.562 35.301V35.3827L137.698 36.4344C137.743 36.4509 137.782 36.4791 137.808 36.5155C137.835 36.5519 137.849 36.5947 137.849 36.6385V36.7156C137.849 36.7497 137.84 36.7835 137.823 36.8136C137.805 36.8437 137.779 36.8693 137.747 36.8878C137.715 36.9081 137.679 36.9207 137.64 36.9247C137.601 36.9286 137.562 36.9238 137.526 36.9105L133.984 35.659C133.939 35.6431 133.901 35.6156 133.875 35.5801C133.848 35.5445 133.833 35.5026 133.833 35.4595V35.2285C133.833 35.1854 133.847 35.1431 133.874 35.1075C133.901 35.0718 133.939 35.0444 133.984 35.029L137.526 33.7745C137.555 33.7655 137.586 33.7609 137.616 33.7607C137.663 33.7617 137.708 33.7743 137.747 33.7972C137.779 33.8166 137.805 33.843 137.823 33.8739C137.841 33.9048 137.85 33.9392 137.849 33.974V34.0508C137.85 34.0941 137.836 34.1365 137.809 34.1723C137.782 34.2081 137.743 34.2353 137.698 34.2503L134.562 35.301Z" fill="#367CFF"/>
<path d="M140.779 32.8483L138.903 38.0392C138.887 38.0826 138.857 38.1205 138.817 38.1474C138.776 38.1743 138.727 38.1888 138.677 38.1889C138.64 38.1894 138.604 38.1818 138.572 38.1667C138.539 38.1517 138.511 38.1297 138.491 38.1026C138.468 38.0758 138.453 38.0446 138.446 38.0116C138.439 37.9786 138.441 37.9446 138.451 37.9123L140.327 32.7259C140.344 32.682 140.375 32.6436 140.416 32.6162C140.457 32.5888 140.507 32.5737 140.558 32.5729C140.595 32.5729 140.63 32.5807 140.663 32.5957C140.695 32.6107 140.723 32.6325 140.744 32.6592C140.766 32.6859 140.781 32.717 140.787 32.7499C140.793 32.7828 140.791 32.8166 140.779 32.8483Z" fill="#367CFF"/>
<path d="M145.388 35.2285V35.4596C145.389 35.5021 145.375 35.544 145.349 35.5795C145.323 35.6151 145.286 35.6428 145.243 35.659L141.695 36.9105C141.66 36.9236 141.621 36.9285 141.584 36.9245C141.546 36.9205 141.51 36.9079 141.479 36.8879C141.447 36.8693 141.42 36.8439 141.402 36.8138C141.384 36.7837 141.374 36.75 141.374 36.7156V36.6385C141.373 36.5941 141.388 36.5506 141.415 36.514C141.443 36.4774 141.483 36.4496 141.529 36.4344L144.666 35.3828V35.3011L141.529 34.2491C141.483 34.2353 141.443 34.2085 141.415 34.1725C141.387 34.1366 141.373 34.0935 141.374 34.0496V33.9728C141.374 33.9378 141.384 33.9034 141.402 33.8725C141.42 33.8417 141.447 33.8154 141.479 33.7959C141.518 33.7731 141.563 33.7605 141.609 33.7595C141.638 33.7592 141.667 33.7639 141.695 33.7733L145.243 35.0278C145.287 35.0436 145.325 35.0714 145.351 35.1074C145.377 35.1433 145.39 35.1856 145.388 35.2285Z" fill="#367CFF"/>
<path d="M16.5086 179.968C14.4626 179.968 12.4469 179.521 10.6331 178.665C8.81936 177.81 7.2612 176.571 6.09125 175.055C4.92131 173.538 4.17421 171.789 3.91355 169.956C3.65289 168.122 3.88638 166.259 4.59414 164.525C5.31249 162.764 23.7381 119.793 26.9471 112.325L49.1206 123.982C47.3174 128.182 40.7829 144.099 35.5334 156.921L44.2547 156.065L46.9981 177.043L17.8826 179.901C17.4263 179.946 16.9676 179.968 16.5086 179.968Z" fill="#367CFF"/>
<path d="M89.0354 103.39C88.9575 103.381 86.8238 110.636 70.1708 109.507C58.6421 108.726 55.8311 101.637 55.5669 101.637C56.8099 101.398 58.8284 101.15 59.3804 100.884C61.1958 100.003 62.518 98.9302 63.1838 96.628C63.7044 94.8277 63.9696 87.8966 63.9696 84.4195L81.7097 88.0209C81.4625 91.9435 79.7318 101.037 85.7976 102.647C86.8068 102.911 87.894 103.156 89.0354 103.39Z" fill="#E98862"/>
<path d="M81.0956 95.7312C74.1022 96.2299 65.1183 93.5621 63.4117 85.1324L61.872 77.5264C60.1654 69.0967 63.683 61.4533 72.4684 60.0018C81.2534 58.5502 89.2036 64.2986 90.9099 72.7283L91.5917 76.0959C92.2463 79.3301 93.5736 94.842 81.0956 95.7312Z" fill="#E98862"/>
<path d="M47.9913 102.802C41.7067 103.224 35.2985 103.838 30.6741 107.706C25.1049 112.364 24.0956 118.092 27.6487 133.854C30.7056 147.417 29.4928 153.343 31.5381 178.37C31.5984 179.107 31.7274 180.632 31.7274 180.632L98.9557 180.531C98.9557 180.531 105.255 147.327 108.733 132.013C111.378 120.37 118.325 106.236 89.034 103.388C88.9581 103.38 65.4672 101.631 47.9913 102.802Z" fill="#367CFF"/>
<path d="M31.7285 180.785C31.6847 180.785 31.6426 180.77 31.611 180.743C31.5794 180.715 31.5609 180.678 31.5592 180.638L29.4523 131.23C29.4514 131.21 29.4549 131.19 29.4627 131.171C29.4704 131.152 29.4822 131.135 29.4973 131.12C29.5124 131.106 29.5306 131.094 29.5508 131.085C29.5711 131.077 29.5929 131.072 29.6152 131.071C29.6376 131.07 29.6602 131.072 29.6815 131.079C29.7028 131.086 29.7223 131.096 29.7388 131.11C29.7553 131.124 29.7685 131.141 29.7774 131.159C29.7864 131.178 29.791 131.198 29.791 131.219L31.8979 180.626C31.8995 180.667 31.8833 180.706 31.8528 180.736C31.8222 180.766 31.7798 180.783 31.735 180.785L31.7285 180.785Z" fill="#0C0C0C"/>
<path d="M139.604 120.443L144.328 110.871C144.431 110.661 144.582 110.473 144.771 110.318C144.96 110.163 145.182 110.046 145.424 109.973C145.666 109.9 145.922 109.874 146.176 109.895C146.429 109.917 146.675 109.986 146.898 110.098C147.302 110.317 147.602 110.663 147.74 111.07C147.877 111.477 147.842 111.916 147.642 112.301L146.629 114.354L153.093 109.22C153.8 108.639 155.081 108.333 155.752 109.093C156.031 109.37 156.198 109.725 156.225 110.099C156.252 110.473 156.139 110.844 155.902 111.152C155.91 111.157 155.917 111.162 155.924 111.168C155.928 111.173 155.931 111.179 155.934 111.185L157.026 110.287C157.228 110.121 157.469 109.998 157.73 109.926C157.992 109.855 158.268 109.837 158.538 109.874C158.808 109.911 159.066 110.002 159.292 110.141C159.519 110.279 159.708 110.462 159.846 110.675C160.057 111.014 160.132 111.408 160.059 111.792C159.987 112.175 159.77 112.524 159.447 112.781L158.982 113.163C158.988 113.18 158.991 113.198 158.99 113.216C159.37 113.024 159.813 112.96 160.24 113.036C160.668 113.112 161.051 113.323 161.323 113.631C161.608 113.976 161.739 114.405 161.69 114.833C161.641 115.262 161.414 115.658 161.056 115.942L159.903 116.891C159.93 116.888 159.957 116.89 159.982 116.899C160.007 116.907 160.03 116.921 160.048 116.939C160.069 116.961 160.082 116.988 160.086 117.017C160.477 116.93 160.888 116.962 161.257 117.108C161.626 117.254 161.932 117.505 162.128 117.823C162.326 118.16 162.392 118.549 162.315 118.924C162.238 119.3 162.023 119.642 161.705 119.893L151.973 127.898C150.611 129.018 148.91 129.745 147.089 129.986C145.267 130.227 143.407 129.971 141.747 129.25C140.316 128.629 139.209 127.529 138.662 126.182C138.115 124.836 138.171 123.35 138.817 122.04L139.604 120.443Z" fill="#E98862"/>
<g opacity="0.2">
<path opacity="0.2" d="M149.531 116.261C149.561 116.291 149.602 116.308 149.647 116.31C149.691 116.312 149.734 116.299 149.768 116.272L155.908 111.383C155.942 111.356 155.963 111.318 155.965 111.278C155.968 111.237 155.953 111.197 155.923 111.167C155.894 111.136 155.852 111.118 155.807 111.115C155.762 111.113 155.718 111.126 155.684 111.153L149.544 116.042C149.527 116.056 149.513 116.072 149.504 116.09C149.494 116.108 149.488 116.127 149.487 116.147C149.485 116.168 149.488 116.188 149.495 116.207C149.503 116.226 149.514 116.243 149.529 116.258L149.531 116.261Z" fill="#0C0C0C"/>
</g>
<g opacity="0.2">
<path opacity="0.2" d="M151.842 118.767C151.872 118.797 151.914 118.814 151.958 118.816C152.003 118.818 152.046 118.805 152.079 118.778L158.932 113.322C158.949 113.309 158.963 113.292 158.972 113.274C158.982 113.256 158.988 113.237 158.989 113.217C158.991 113.197 158.988 113.177 158.98 113.158C158.973 113.139 158.962 113.121 158.947 113.106C158.917 113.077 158.875 113.059 158.831 113.056C158.786 113.054 158.742 113.067 158.708 113.092L151.855 118.549C151.838 118.562 151.825 118.578 151.815 118.596C151.805 118.614 151.8 118.634 151.798 118.654C151.797 118.674 151.8 118.694 151.807 118.713C151.814 118.732 151.826 118.75 151.84 118.765L151.842 118.767Z" fill="#0C0C0C"/>
</g>
<g opacity="0.2">
<path opacity="0.2" d="M154.33 121.495C154.36 121.524 154.401 121.542 154.446 121.544C154.49 121.546 154.533 121.532 154.567 121.506L160.033 117.153C160.067 117.126 160.087 117.088 160.09 117.048C160.093 117.007 160.078 116.967 160.048 116.937C160.018 116.907 159.976 116.888 159.931 116.886C159.887 116.883 159.843 116.897 159.809 116.924L154.342 121.276C154.326 121.289 154.312 121.306 154.302 121.324C154.293 121.342 154.287 121.361 154.285 121.381C154.284 121.401 154.287 121.422 154.294 121.441C154.302 121.46 154.313 121.477 154.328 121.492L154.33 121.495Z" fill="#0C0C0C"/>
</g>
<path d="M87.5786 87.0916C86.3742 81.6244 85.8218 77.9768 85.8852 74.1288C87.5813 71.4405 87.1356 68.3553 86.7498 67.0218C87.2359 67.272 87.7445 67.4847 88.2702 67.6577C88.5146 67.7345 88.7783 67.7466 89.0301 67.6927C89.2819 67.6389 89.5115 67.5211 89.6918 67.3534C89.8722 67.1857 89.9958 66.975 90.0481 66.746C90.1004 66.517 90.0793 66.2793 89.9873 66.0608C88.6746 62.99 85.3003 57.0228 78.3346 55.0232C76.5813 54.4067 72.1029 53.6279 66.16 54.3644C61.1042 54.9911 49.6575 59.3243 47.877 72.0001V72.0072C47.8181 72.4276 45.6055 83.1888 43.2198 88.7925C40.0128 96.3254 35.5101 98.6661 35.6242 107.357C35.7712 118.537 58.5191 120.025 72.2424 119.189C85.9658 118.353 93.6237 114.276 93.7229 106.22C93.831 97.1913 89.9873 98.0297 87.5786 87.0916Z" fill="#0A0A0A"/>
<path d="M87.5828 83.2148C84.9129 83.6561 82.2262 81.4331 81.7381 79.0211C81.2501 76.6091 82.4667 74.1288 85.885 74.1288L87.5828 83.2148Z" fill="#E98862"/>
<path d="M116.3 178.232C113.615 178.232 110.998 177.463 108.827 176.036C106.655 174.608 105.04 172.596 104.213 170.288L86.5669 120.984L110.736 113.924L120.016 139.857L136.053 116.815L157.558 129.031L127.049 172.866C125.905 174.508 124.32 175.862 122.44 176.801C120.56 177.739 118.448 178.232 116.3 178.232Z" fill="#367CFF"/>
<path d="M102.062 164.618C102.051 164.618 102.041 164.618 102.03 164.616C101.986 164.608 101.947 164.585 101.922 164.552C101.896 164.518 101.887 164.477 101.895 164.437L107.893 135.02C107.897 135.001 107.906 134.982 107.918 134.965C107.93 134.948 107.946 134.933 107.964 134.922C107.982 134.911 108.003 134.903 108.025 134.898C108.046 134.894 108.069 134.894 108.091 134.897C108.113 134.901 108.133 134.909 108.152 134.92C108.171 134.93 108.187 134.945 108.199 134.961C108.212 134.978 108.221 134.996 108.226 135.016C108.23 135.036 108.231 135.056 108.227 135.076L102.228 164.494C102.22 164.529 102.2 164.561 102.169 164.583C102.139 164.606 102.101 164.618 102.062 164.618Z" fill="#0C0C0C"/>
<path d="M122.175 146.8C122.137 146.8 122.101 146.788 122.071 146.768C122.042 146.747 122.02 146.718 122.011 146.685L120.013 139.732C120.001 139.692 120.008 139.651 120.031 139.616C120.053 139.581 120.091 139.555 120.134 139.545C120.178 139.535 120.224 139.541 120.263 139.561C120.301 139.582 120.329 139.615 120.341 139.655L122.339 146.608C122.345 146.631 122.346 146.655 122.341 146.678C122.335 146.7 122.324 146.722 122.309 146.74C122.293 146.759 122.272 146.774 122.249 146.784C122.226 146.794 122.2 146.8 122.175 146.8H122.175Z" fill="#0C0C0C"/>
<path d="M258.116 145.634H191.902C191.487 145.633 191.078 145.554 190.7 145.401C190.322 145.247 189.984 145.023 189.709 144.743C189.434 144.463 189.228 144.133 189.105 143.776C188.981 143.419 188.942 143.042 188.991 142.67L190.763 129.314C190.848 128.671 191.192 128.078 191.728 127.648C192.264 127.218 192.956 126.981 193.673 126.981H258.116C258.893 126.981 259.639 127.26 260.188 127.757C260.738 128.253 261.047 128.927 261.047 129.629V142.986C261.047 143.688 260.738 144.361 260.188 144.858C259.639 145.354 258.893 145.633 258.116 145.634Z" fill="#292A2E"/>
<path d="M209.813 145.759L212.645 135.942C212.707 135.726 212.719 135.501 212.68 135.281C212.641 135.061 212.551 134.85 212.417 134.663C212.282 134.476 212.107 134.316 211.9 134.194C211.694 134.072 211.461 133.989 211.218 133.953C209.203 133.609 208.958 136.117 208.576 137.319L207.122 129.907C206.9 127.908 203.925 127.842 203.705 129.834C203.69 129.832 203.673 129.834 203.659 129.841C203.729 126.2 199.268 126.482 200.031 129.673C200.015 129.683 200.001 129.695 199.99 129.709C199.245 127.944 196.191 128.77 196.603 130.642L196.84 131.988C196.826 131.975 196.809 131.964 196.79 131.956C196.771 131.948 196.75 131.944 196.73 131.944C196.709 131.944 196.688 131.947 196.669 131.954C196.65 131.96 196.632 131.971 196.617 131.984C195.593 130.673 193.081 131.634 193.467 133.275L195.472 144.642C196.618 151.995 208.594 154.462 209.813 145.759Z" fill="#E98862"/>
<g opacity="0.2">
<path opacity="0.2" d="M205.105 137.176C204.665 137.138 203.723 130.221 203.547 130.005C203.54 129.966 203.55 129.926 203.575 129.894C203.6 129.862 203.638 129.84 203.681 129.833C203.723 129.826 203.768 129.835 203.803 129.858C203.839 129.881 203.863 129.915 203.87 129.954L205.241 137.004C205.245 137.023 205.244 137.043 205.239 137.062C205.234 137.081 205.225 137.099 205.213 137.115C205.2 137.131 205.184 137.145 205.166 137.155C205.147 137.166 205.127 137.173 205.105 137.176Z" fill="#0C0C0C"/>
</g>
<g opacity="0.2">
<path opacity="0.2" d="M201.679 137.808C201.637 137.814 201.593 137.805 201.558 137.782C201.524 137.759 201.5 137.724 201.493 137.686L199.961 129.818C199.954 129.779 199.964 129.74 199.989 129.707C200.014 129.675 200.052 129.653 200.095 129.647C200.544 129.609 201.637 137.469 201.816 137.635C201.82 137.655 201.82 137.675 201.815 137.694C201.81 137.713 201.801 137.732 201.788 137.748C201.776 137.764 201.759 137.778 201.741 137.788C201.722 137.799 201.701 137.806 201.679 137.808Z" fill="#0C0C0C"/>
</g>
<g opacity="0.2">
<path opacity="0.2" d="M197.974 138.513C197.931 138.519 197.888 138.509 197.853 138.486C197.818 138.463 197.795 138.429 197.788 138.391L196.566 132.115C196.56 132.076 196.57 132.038 196.595 132.007C196.62 131.975 196.658 131.954 196.7 131.948C196.742 131.941 196.785 131.949 196.82 131.971C196.855 131.993 196.88 132.026 196.888 132.063L198.111 138.339C198.115 138.359 198.114 138.379 198.109 138.398C198.105 138.418 198.096 138.436 198.083 138.452C198.07 138.469 198.054 138.482 198.035 138.493C198.016 138.503 197.995 138.51 197.974 138.513Z" fill="#0C0C0C"/>
</g>
<path d="M109.156 180.785H30.4445L25.4422 146.063C25.3418 145.366 25.4071 144.658 25.6337 143.986C25.8602 143.314 26.2429 142.693 26.7561 142.165C27.2692 141.637 27.9011 141.214 28.6096 140.925C29.3181 140.635 30.0868 140.485 30.8645 140.485H98.5432C99.8716 140.485 101.155 140.921 102.153 141.713C103.151 142.504 103.797 143.597 103.969 144.787L109.156 180.785Z" fill="white"/>
<path d="M104.379 144.741C104.192 143.461 103.497 142.287 102.424 141.435C101.351 140.583 99.9719 140.111 98.5433 140.108H30.8646C30.1212 140.109 29.3846 140.237 28.6937 140.485C28.4014 140.589 28.1193 140.715 27.8504 140.861C26.8643 141.392 26.0718 142.172 25.5705 143.105C25.0692 144.038 24.881 145.083 25.0291 146.112L30.0281 180.785H30.8646L25.8555 146.017C25.7626 145.373 25.8228 144.719 26.032 144.098C26.2412 143.477 26.5946 142.903 27.0686 142.415C27.5427 141.927 28.1265 141.536 28.7811 141.268C29.4357 141 30.146 140.861 30.8646 140.861H98.5433C99.7696 140.864 100.953 141.268 101.875 141.999C102.796 142.73 103.394 143.738 103.556 144.836L108.738 180.785H109.578L104.379 144.741Z" fill="#292A2E"/>
<path d="M104.565 180.785H25.8524L20.8501 146.063C20.7495 145.366 20.8147 144.658 21.0412 143.986C21.2677 143.314 21.6503 142.693 22.1635 142.165C22.6767 141.637 23.3087 141.214 24.0173 140.924C24.7258 140.634 25.4946 140.485 26.2724 140.485H93.95C95.278 140.485 96.5605 140.921 97.5583 141.713C98.556 142.505 99.2009 143.597 99.3723 144.787L104.565 180.785Z" fill="#292A2E"/>
<path d="M99.7865 144.741C99.6708 143.943 99.3565 143.18 98.8673 142.508C98.3781 141.836 97.7266 141.273 96.9619 140.861C96.6926 140.715 96.4105 140.589 96.1185 140.485C95.4289 140.237 94.6934 140.109 93.951 140.108H26.2723C25.4352 140.108 24.6077 140.269 23.845 140.581C23.0823 140.893 22.402 141.348 21.8497 141.916C21.2973 142.484 20.8855 143.153 20.6419 143.876C20.3982 144.6 20.3283 145.362 20.4368 146.112L25.4324 180.785H26.2723L21.2632 146.017C21.1703 145.373 21.2304 144.719 21.4396 144.098C21.6488 143.477 22.0022 142.903 22.4763 142.415C22.9504 141.927 23.5342 141.536 24.1887 141.268C24.8433 141 25.5536 140.861 26.2723 140.861H93.95C95.1762 140.864 96.3597 141.268 97.2813 141.999C98.203 142.73 98.8002 143.738 98.9625 144.836L104.144 180.785H104.984L99.7865 144.741Z" fill="#292A2E"/>
<path d="M238.172 104.906C238.249 104.896 239.111 117.815 255.723 116.689C267.223 115.91 271.323 104.888 271.587 104.888C270.347 104.65 268.259 104.303 267.708 104.038C265.897 103.159 263.318 102.244 262.734 99.067C262.398 97.2357 262.969 87.8681 262.793 86.0151L245.479 89.5746C245.726 93.4877 247.452 102.559 241.402 104.164C240.396 104.43 239.311 104.675 238.172 104.906Z" fill="#E98862"/>
<path d="M245.966 95.6777C252.938 96.1639 261.887 93.4911 263.572 85.0868L265.092 77.5035C266.777 69.0988 263.257 61.4864 254.498 60.0532C245.739 58.6197 237.826 64.3617 236.141 72.766L235.468 76.1232C235.259 77.2795 235.138 78.4474 235.105 79.6187C234.992 82.7137 234.834 87.4211 236.527 90.8787C238.129 94.1444 241.514 95.3671 245.966 95.6777Z" fill="#E98862"/>
<path d="M261.6 59.6224C258.833 58.8427 255.962 58.4016 253.065 58.3106C252.784 57.3116 252.159 56.536 251.239 56.2104C249.708 55.6697 247.836 56.5405 246.592 58.2182C245.9 57.2599 244.962 56.3964 243.719 56.0458C240.29 55.081 240.12 59.5312 240.12 59.5312C240.12 59.5312 234.683 54.6842 234.513 60.8662C234.308 68.3458 235.828 70.5394 236.939 71.0932C239.13 72.1868 240.763 72.0019 241.63 73.6108C244.257 78.4829 241.682 92.2063 244.722 93.9247C249.379 96.5561 258.917 96.6479 262.015 96.4478C263.207 96.3707 264.322 95.1232 264.824 94.1438C266.444 90.9824 270.057 83.8152 271.063 80.8511C272.919 75.3821 272.779 62.9202 261.6 59.6224Z" fill="#0C0C0C"/>
<path d="M242.641 89.0232C245.33 88.7595 247.198 85.9463 246.906 83.5156C246.614 81.0849 244.273 79.9601 241.583 80.2236L240.393 81.9875L240.329 89.249L242.641 89.0232Z" fill="#E98862"/>
<path d="M287.564 178.759L287.647 178.763C287.647 178.763 287.587 177.313 287.564 178.759Z" fill="#333333"/>
<path d="M214.291 133.49C214.816 139.063 217.37 173.83 217.875 180.694H287.446C287.839 174.503 289.604 147.434 291.094 135.326C292.516 123.774 295.308 117.99 293.261 114.575C289.918 108.993 280.783 105.768 274.554 105.006C270.75 104.541 269.966 104.207 268.415 104.207H241.629C239.082 104.207 222.816 106.424 219.481 108.639C210.253 114.77 213.176 121.681 214.291 133.49Z" fill="#367CFF"/>
<path d="M302.3 180.33C304.346 180.33 306.362 179.883 308.176 179.027C309.991 178.172 311.549 176.933 312.719 175.417C313.889 173.9 314.636 172.15 314.897 170.316C315.158 168.483 314.924 166.619 314.216 164.885C313.497 163.124 296.647 122.813 293.439 115.343L269.687 124.038C271.49 128.237 278.025 144.156 283.275 156.979L274.553 156.122L271.808 178.938L300.925 180.262C301.382 180.307 301.841 180.33 302.3 180.33Z" fill="#367CFF"/>
<path d="M288.745 135.56L287.035 180.688L287.498 180.702L289.207 135.575L288.745 135.56Z" fill="#0C0C0C"/>
<path d="M204.227 180.33C202.181 180.33 200.165 179.883 198.351 179.027C196.537 178.172 194.978 176.933 193.808 175.416C192.638 173.9 191.891 172.15 191.63 170.316C191.37 168.483 191.603 166.619 192.312 164.885C193.03 163.124 210.586 122.634 213.794 115.165L236.84 124.038C235.037 128.238 228.502 144.157 223.252 156.98L231.974 156.123L234.719 178.939L205.601 180.263C205.145 180.308 204.686 180.33 204.227 180.33Z" fill="#367CFF"/>
<path d="M223.197 154.305C223.157 154.305 223.118 154.296 223.082 154.28C223.047 154.264 223.016 154.24 222.992 154.211C222.969 154.182 222.953 154.148 222.947 154.112C222.94 154.077 222.943 154.04 222.955 154.006L229.122 136.466C229.131 136.437 229.147 136.409 229.168 136.386C229.19 136.362 229.216 136.342 229.246 136.327C229.276 136.313 229.309 136.304 229.343 136.301C229.376 136.298 229.411 136.302 229.443 136.311C229.475 136.32 229.505 136.335 229.531 136.355C229.557 136.375 229.578 136.4 229.593 136.427C229.608 136.454 229.617 136.484 229.619 136.515C229.622 136.546 229.617 136.576 229.606 136.605L223.439 154.143C223.423 154.19 223.391 154.231 223.348 154.26C223.304 154.289 223.251 154.305 223.197 154.305Z" fill="#0C0C0C"/>
<path d="M302.219 146.063L297.214 180.785H218.504L223.693 144.787C223.865 143.598 224.509 142.505 225.507 141.713C226.505 140.922 227.787 140.485 229.115 140.485H296.794C297.572 140.484 298.341 140.634 299.05 140.924C299.759 141.213 300.391 141.636 300.904 142.164C301.418 142.692 301.801 143.313 302.028 143.985C302.254 144.658 302.32 145.366 302.219 146.063Z" fill="white"/>
<path d="M301.217 141.917C300.812 141.501 300.338 141.145 299.812 140.861C299.541 140.715 299.258 140.589 298.965 140.485C298.274 140.237 297.537 140.109 296.794 140.108H229.115C227.687 140.112 226.308 140.583 225.235 141.435C224.162 142.287 223.467 143.462 223.28 144.741L218.084 180.785H218.924L224.106 144.836C224.267 143.738 224.863 142.73 225.785 141.999C226.706 141.268 227.889 140.864 229.115 140.861H296.794C297.513 140.862 298.223 141.001 298.877 141.269C299.532 141.537 300.116 141.928 300.59 142.416C301.064 142.903 301.418 143.477 301.628 144.098C301.838 144.719 301.898 145.373 301.806 146.017L296.794 180.785H297.634L302.629 146.112C302.738 145.362 302.668 144.6 302.424 143.876C302.181 143.153 301.769 142.485 301.217 141.917Z" fill="#292A2E"/>
<path d="M306.811 146.063L301.806 180.785H223.096L228.285 144.787C228.409 143.926 228.782 143.11 229.367 142.421C229.951 141.731 230.727 141.194 231.614 140.861C232.277 140.611 232.989 140.483 233.707 140.485H301.389C302.167 140.485 302.935 140.635 303.644 140.925C304.352 141.215 304.984 141.638 305.497 142.165C306.01 142.693 306.393 143.314 306.62 143.986C306.846 144.658 306.912 145.366 306.811 146.063Z" fill="#292A2E"/>
<path d="M305.809 141.917C305.257 141.349 304.577 140.894 303.815 140.583C303.053 140.271 302.226 140.109 301.389 140.108H233.708C232.648 140.11 231.609 140.37 230.7 140.861C229.935 141.273 229.283 141.836 228.793 142.508C228.303 143.18 227.988 143.943 227.872 144.741L222.677 180.785H223.516L228.698 144.836C228.859 143.738 229.456 142.73 230.377 141.999C231.298 141.268 232.481 140.864 233.707 140.861H301.389C302.108 140.861 302.818 141 303.473 141.268C304.128 141.536 304.711 141.927 305.185 142.415C305.66 142.903 306.013 143.477 306.222 144.098C306.431 144.719 306.491 145.373 306.398 146.017L301.389 180.785H302.226L307.225 146.112C307.332 145.362 307.261 144.6 307.017 143.876C306.773 143.153 306.361 142.485 305.809 141.917Z" fill="#292A2E"/>
<path d="M4.04762 181H313.405C313.468 181 313.529 180.977 313.573 180.937C313.618 180.897 313.643 180.843 313.643 180.786C313.643 180.729 313.618 180.675 313.573 180.634C313.529 180.594 313.468 180.572 313.405 180.572H4.04762C3.98475 180.572 3.92445 180.594 3.87999 180.634C3.83552 180.675 3.81055 180.729 3.81055 180.786C3.81055 180.843 3.83552 180.897 3.87999 180.937C3.92445 180.977 3.98475 181 4.04762 181Z" fill="#292A2E"/>
<g opacity="0.65">
<path opacity="0.65" d="M4.04762 181H313.405C313.468 181 313.529 180.977 313.573 180.937C313.618 180.897 313.643 180.843 313.643 180.786C313.643 180.729 313.618 180.675 313.573 180.634C313.529 180.594 313.468 180.572 313.405 180.572H4.04762C3.98475 180.572 3.92445 180.594 3.87999 180.634C3.83552 180.675 3.81055 180.729 3.81055 180.786C3.81055 180.843 3.83552 180.897 3.87999 180.937C3.92445 180.977 3.98475 181 4.04762 181Z" fill="#292A2E"/>
</g>
<path d="M191.527 169.041L192.617 143.17L207.662 142.45L209.031 169.041H191.527Z" fill="#367CFF"/>
</g>
<defs>
<clipPath id="clip0_1210_83">
<rect width="315" height="181" fill="white"/>
</clipPath>
</defs>
</svg>
