<svg width="986" height="730" viewBox="0 0 986 730" fill="none" xmlns="http://www.w3.org/2000/svg">
<g clip-path="url(#clip0_228_11850)">
<path d="M26.041 554.4C-30.924 438.935 4.51004 307.928 142.794 261.912C249.048 226.553 412.005 223.591 479.814 114.974C589.731 -61.0951 864.266 -41.4071 962.871 218.938C1052.59 455.831 866.249 832.265 614.228 702.78C404.216 594.88 370.428 714.831 233.893 706.107C128.6 699.379 45.258 593.352 26.041 554.4Z" fill="#F3F5FD"/>
<path d="M26.041 554.4C-30.924 438.935 4.51004 307.928 142.794 261.912C249.048 226.553 412.005 223.591 479.814 114.974C589.731 -61.0951 864.266 -41.4071 962.871 218.938C1052.59 455.831 866.249 832.265 614.228 702.78C404.216 594.88 370.428 714.831 233.893 706.107C128.6 699.379 45.258 593.352 26.041 554.4Z" fill="#367CFF"/>
<g opacity="0.75">
<path opacity="0.75" d="M26.041 554.4C-30.924 438.935 4.51004 307.928 142.794 261.912C249.048 226.553 412.005 223.591 479.814 114.974C589.731 -61.0951 864.266 -41.4071 962.871 218.938C1052.59 455.831 866.249 832.265 614.228 702.78C404.216 594.88 370.428 714.831 233.893 706.107C128.6 699.379 45.258 593.352 26.041 554.4Z" fill="#292A2E"/>
</g>
<g opacity="0.18">
<path opacity="0.18" d="M326.365 267.494C328.622 267.494 330.452 265.664 330.452 263.407C330.452 261.15 328.622 259.32 326.365 259.32C324.108 259.32 322.278 261.15 322.278 263.407C322.278 265.664 324.108 267.494 326.365 267.494Z" fill="white"/>
<path opacity="0.18" d="M364.627 346.533C368.731 346.533 372.057 343.206 372.057 339.103C372.057 334.999 368.731 331.673 364.627 331.673C360.524 331.673 357.197 334.999 357.197 339.103C357.197 343.206 360.524 346.533 364.627 346.533Z" fill="white"/>
<path opacity="0.18" d="M599.522 139.336C603.626 139.336 606.952 136.01 606.952 131.906C606.952 127.803 603.626 124.476 599.522 124.476C595.419 124.476 592.092 127.803 592.092 131.906C592.092 136.01 595.419 139.336 599.522 139.336Z" fill="white"/>
<path opacity="0.18" d="M364 553.273C366.125 553.273 367.847 551.551 367.847 549.426C367.847 547.302 366.125 545.579 364 545.579C361.875 545.579 360.153 547.302 360.153 549.426C360.153 551.551 361.875 553.273 364 553.273Z" fill="white"/>
<path opacity="0.18" d="M703.133 465.862C709.113 465.862 713.96 461.015 713.96 455.035C713.96 449.055 709.113 444.208 703.133 444.208C697.154 444.208 692.306 449.055 692.306 455.035C692.306 461.015 697.154 465.862 703.133 465.862Z" fill="white"/>
<path opacity="0.18" d="M320.336 651.355C323.666 651.355 326.365 648.656 326.365 645.326C326.365 641.996 323.666 639.297 320.336 639.297C317.006 639.297 314.307 641.996 314.307 645.326C314.307 648.656 317.006 651.355 320.336 651.355Z" fill="white"/>
<path opacity="0.18" d="M783.716 100.908C789.656 100.908 794.471 96.0928 794.471 90.1529C794.471 84.2131 789.656 79.3979 783.716 79.3979C777.776 79.3979 772.961 84.2131 772.961 90.1529C772.961 96.0928 777.776 100.908 783.716 100.908Z" fill="white"/>
<path opacity="0.18" d="M714.03 290.933C717.039 290.933 719.478 288.494 719.478 285.485C719.478 282.476 717.039 280.037 714.03 280.037C711.021 280.037 708.582 282.476 708.582 285.485C708.582 288.494 711.021 290.933 714.03 290.933Z" fill="white"/>
<path opacity="0.18" d="M55.1521 410.784C58.161 410.784 60.6001 408.345 60.6001 405.336C60.6001 402.327 58.161 399.888 55.1521 399.888C52.1433 399.888 49.7041 402.327 49.7041 405.336C49.7041 408.345 52.1433 410.784 55.1521 410.784Z" fill="white"/>
<path opacity="0.18" d="M522.836 413.651C526.79 413.651 529.995 410.446 529.995 406.492C529.995 402.538 526.79 399.333 522.836 399.333C518.882 399.333 515.677 402.538 515.677 406.492C515.677 410.446 518.882 413.651 522.836 413.651Z" fill="white"/>
<path opacity="0.18" d="M448.682 615.161C451.652 615.161 454.059 612.753 454.059 609.784C454.059 606.814 451.652 604.407 448.682 604.407C445.713 604.407 443.305 606.814 443.305 609.784C443.305 612.753 445.713 615.161 448.682 615.161Z" fill="white"/>
<path opacity="0.18" d="M820.299 330.658C826.546 330.658 831.61 325.594 831.61 319.347C831.61 313.1 826.546 308.036 820.299 308.036C814.052 308.036 808.988 313.1 808.988 319.347C808.988 325.594 814.052 330.658 820.299 330.658Z" fill="white"/>
<path opacity="0.18" d="M880.852 177.842C884.527 177.842 887.506 174.863 887.506 171.188C887.506 167.513 884.527 164.534 880.852 164.534C877.177 164.534 874.198 167.513 874.198 171.188C874.198 174.863 877.177 177.842 880.852 177.842Z" fill="white"/>
<path opacity="0.18" d="M508.443 554.204C512.438 554.204 515.676 550.966 515.676 546.971C515.676 542.976 512.438 539.738 508.443 539.738C504.448 539.738 501.21 542.976 501.21 546.971C501.21 550.966 504.448 554.204 508.443 554.204Z" fill="white"/>
<path opacity="0.18" d="M740.337 666.208C745.056 666.208 748.882 662.382 748.882 657.663C748.882 652.944 745.056 649.118 740.337 649.118C735.618 649.118 731.792 652.944 731.792 657.663C731.792 662.382 735.618 666.208 740.337 666.208Z" fill="white"/>
<path opacity="0.18" d="M915.876 452.396C921.816 452.396 926.631 447.581 926.631 441.641C926.631 435.701 921.816 430.886 915.876 430.886C909.936 430.886 905.121 435.701 905.121 441.641C905.121 447.581 909.936 452.396 915.876 452.396Z" fill="white"/>
<path opacity="0.18" d="M899.533 298.472C903.208 298.472 906.187 295.493 906.187 291.818C906.187 288.143 903.208 285.164 899.533 285.164C895.858 285.164 892.879 288.143 892.879 291.818C892.879 295.493 895.858 298.472 899.533 298.472Z" fill="white"/>
<path opacity="0.18" d="M645.932 640.455C649.055 640.455 651.587 637.923 651.587 634.8C651.587 631.677 649.055 629.145 645.932 629.145C642.809 629.145 640.277 631.677 640.277 634.8C640.277 637.923 642.809 640.455 645.932 640.455Z" fill="white"/>
</g>
<path d="M733.06 224.668C747.535 229.645 762.298 233.739 777.269 236.926C770.495 243.595 762 248.249 752.733 250.367C743.466 252.486 733.793 251.985 724.794 248.921C715.796 245.857 707.827 240.35 701.778 233.017C695.729 225.684 691.839 216.813 690.543 207.396C704.352 214.009 718.551 219.777 733.06 224.668Z" fill="#0CBC8B"/>
<path d="M789.812 216.938C787.892 222.601 784.989 227.882 781.237 232.538C765.453 229.374 749.903 225.142 734.692 219.872C719.422 214.764 704.516 208.626 690.077 201.5C689.946 195.521 690.869 189.566 692.804 183.907C694.023 180.327 695.632 176.892 697.604 173.665C698.568 172.084 699.618 170.557 700.752 169.093C707.288 160.639 716.303 154.44 726.536 151.361C736.769 148.283 747.708 148.48 757.824 151.924C767.939 155.368 776.725 161.888 782.953 170.571C789.181 179.255 792.54 189.667 792.559 200.353C792.562 202.205 792.462 204.055 792.259 205.896C791.852 209.656 791.032 213.359 789.812 216.938Z" fill="#0CBC8B"/>
<path d="M829.25 233.549C826.092 242.824 804.38 242.533 777.269 236.926C778.679 235.545 780.004 234.08 781.237 232.54C806.946 237.509 822.898 236.495 824.457 231.917C825.979 227.447 814.562 217.301 792.257 205.897C792.46 204.056 792.56 202.206 792.557 200.354C816.157 212.107 832.306 224.573 829.25 233.549Z" fill="white"/>
<path d="M781.237 232.54C780.004 234.08 778.679 235.545 777.269 236.926C762.298 233.739 747.535 229.645 733.06 224.668C718.551 219.778 704.353 214.012 690.543 207.4C690.27 205.446 690.114 203.477 690.077 201.505C704.516 208.631 719.422 214.769 734.692 219.878C749.903 225.147 765.454 229.377 781.237 232.54Z" fill="white"/>
<path d="M690.543 207.4C665.643 195.3 648.266 182.28 651.424 173.005C654.48 164.029 674.893 164.012 700.75 169.098C699.616 170.562 698.566 172.089 697.602 173.67C672.975 169.096 657.739 170.17 656.217 174.637C654.659 179.215 666.689 189.757 690.077 201.505C690.114 203.478 690.27 205.446 690.543 207.4Z" fill="white"/>
<path d="M522.836 313.513C548.251 313.513 568.855 292.91 568.855 267.494C568.855 242.078 548.251 221.475 522.836 221.475C497.42 221.475 476.817 242.078 476.817 267.494C476.817 292.91 497.42 313.513 522.836 313.513Z" fill="#367CFF"/>
<g opacity="0.79">
<path opacity="0.79" d="M522.836 313.513C548.251 313.513 568.855 292.91 568.855 267.494C568.855 242.078 548.251 221.475 522.836 221.475C497.42 221.475 476.817 242.078 476.817 267.494C476.817 292.91 497.42 313.513 522.836 313.513Z" fill="white"/>
</g>
<g opacity="0.18">
<path opacity="0.18" d="M547.845 258.251C553.153 258.251 557.457 253.947 557.457 248.639C557.457 243.33 553.153 239.027 547.845 239.027C542.536 239.027 538.233 243.33 538.233 248.639C538.233 253.947 542.536 258.251 547.845 258.251Z" fill="#367CFF"/>
</g>
<g opacity="0.18">
<path opacity="0.18" d="M540.346 224.93C540.292 225.902 540.024 226.85 539.561 227.705C539.097 228.561 538.45 229.303 537.665 229.879C536.881 230.455 535.978 230.849 535.023 231.035C534.068 231.22 533.083 231.192 532.14 230.952C531.197 230.712 530.319 230.265 529.569 229.646C528.819 229.026 528.216 228.247 527.802 227.366C527.389 226.485 527.176 225.524 527.178 224.551C527.18 223.578 527.398 222.617 527.816 221.738C532.123 222.2 536.343 223.275 540.346 224.93Z" fill="#367CFF"/>
</g>
<g opacity="0.18">
<path opacity="0.18" d="M506.723 278.703C518.017 278.703 527.173 269.547 527.173 258.253C527.173 246.959 518.017 237.803 506.723 237.803C495.429 237.803 486.273 246.959 486.273 258.253C486.273 269.547 495.429 278.703 506.723 278.703Z" fill="#367CFF"/>
</g>
<path opacity="0.18" d="M556.78 298.565C552.276 303.51 546.739 307.402 540.561 309.965C539.672 308.91 539.013 307.681 538.625 306.357C538.237 305.034 538.128 303.643 538.306 302.275C538.484 300.907 538.944 299.591 539.658 298.41C540.371 297.23 541.323 296.21 542.451 295.417C543.58 294.624 544.861 294.074 546.214 293.802C547.566 293.531 548.961 293.543 550.308 293.839C551.655 294.135 552.927 294.708 554.041 295.522C555.155 296.335 556.088 297.372 556.78 298.565Z" fill="#367CFF"/>
<path d="M874.781 497.684C875.596 500.546 876.126 503.48 876.364 506.446C877.176 516.782 874.386 527.08 868.467 535.592C862.548 544.104 853.865 550.305 843.893 553.142C833.921 555.979 823.275 555.276 813.762 551.154C804.249 547.032 796.456 539.745 791.706 530.529C788.692 524.655 786.999 518.192 786.746 511.595C786.387 501.56 789.402 491.695 795.309 483.576C801.216 475.456 809.674 469.551 819.332 466.803C828.99 464.056 839.29 464.625 848.586 468.42C857.883 472.215 865.639 479.016 870.615 487.737C872.397 490.874 873.796 494.213 874.781 497.684Z" fill="#367CFF"/>
<g opacity="0.64">
<path opacity="0.64" d="M874.781 497.684C875.596 500.546 876.126 503.48 876.364 506.446C877.176 516.782 874.386 527.08 868.467 535.592C862.548 544.104 853.865 550.305 843.893 553.142C833.921 555.979 823.275 555.276 813.762 551.154C804.249 547.032 796.456 539.745 791.706 530.529C788.692 524.655 786.999 518.192 786.746 511.595C786.387 501.56 789.402 491.695 795.309 483.576C801.216 475.456 809.674 469.551 819.332 466.803C828.99 464.056 839.29 464.625 848.586 468.42C857.883 472.215 865.639 479.016 870.615 487.737C872.397 490.874 873.796 494.213 874.781 497.684Z" fill="white"/>
</g>
<g opacity="0.28">
<path opacity="0.28" d="M870.615 487.737L786.746 511.6C786.507 505.205 787.65 498.833 790.097 492.919L857.933 473.619C863.126 477.359 867.452 482.174 870.615 487.737Z" fill="white"/>
</g>
<g opacity="0.28">
<path opacity="0.28" d="M876.364 506.446C876.859 512.684 876.04 518.957 873.958 524.859L803.443 544.919C798.567 540.996 794.569 536.094 791.706 530.529L876.364 506.446Z" fill="white"/>
</g>
<path d="M311.712 355.136C311.419 355.098 308.172 408.98 245.576 404.282C202.241 401.036 186.79 355.06 185.797 355.06C190.47 354.067 196.244 352.56 198.538 352.043C206.162 350.325 215.679 344.034 217.878 330.782C219.146 323.145 216.996 284.071 217.657 276.344L284.176 291.191C283.246 307.511 276.741 345.346 299.541 352.042C303.335 353.15 307.421 354.168 311.712 355.136Z" fill="#E98862"/>
<path opacity="0.52" d="M285.108 336.58C284.067 333.222 283.396 329.76 283.108 326.256C282.377 318.26 282.523 310.208 283.543 302.244C270.023 300.419 257.286 294.839 246.779 286.137C245.544 290.699 238.751 310.631 240.632 314.966C244.186 323.161 260.892 336.58 285.108 336.58Z" fill="#0C0C0C"/>
<path d="M305.915 217.554C305.915 217.554 321.201 199.336 318.39 166.142C316.214 140.442 296.969 161.842 296.969 161.842C296.969 161.842 295.222 143.352 282.569 148.142C269.916 152.932 266.921 173.463 266.921 173.463" fill="#0C0C0C"/>
<path d="M215.474 165.786C215.474 165.786 152.21 187.663 195.88 270.163L201.708 269.227L213.538 267.327" fill="#0C0C0C"/>
<path d="M276.276 318.335C250.176 321.926 215.847 312.809 207.419 278.196L199.814 246.964C191.386 212.35 202.733 179.864 235.324 171.928C267.914 163.992 299.106 186.121 307.534 220.734L310.901 234.561C311.974 239.328 312.721 244.163 313.137 249.033C314.331 261.894 316.096 281.459 310.58 296.238C305.372 310.19 292.952 316.042 276.276 318.335Z" fill="#E98862"/>
<path opacity="0.52" d="M280.841 283.874C286.174 282.898 291.202 280.683 295.522 277.408C295.703 277.275 295.825 277.076 295.859 276.854C295.894 276.632 295.839 276.405 295.706 276.224C295.573 276.042 295.374 275.921 295.152 275.887C294.93 275.852 294.703 275.907 294.522 276.04C285.16 282.855 275.585 284.375 266.834 280.44C266.656 280.355 266.474 280.28 266.289 280.214C266.075 280.153 265.847 280.179 265.652 280.285C265.457 280.392 265.312 280.571 265.247 280.783C265.183 280.996 265.205 281.225 265.308 281.422C265.411 281.618 265.587 281.767 265.798 281.835C265.866 281.859 265.98 281.912 266.139 281.984C270.742 284.063 275.861 284.721 280.841 283.874Z" fill="#0C0C0C"/>
<path opacity="0.52" d="M282.394 291.751C283.361 291.59 284.313 291.347 285.238 291.025C285.441 290.944 285.604 290.789 285.695 290.591C285.786 290.393 285.798 290.167 285.727 289.961C285.656 289.755 285.508 289.585 285.314 289.485C285.121 289.385 284.896 289.363 284.687 289.425C279.114 291.347 275.787 289.357 275.646 289.271C275.456 289.16 275.231 289.128 275.017 289.18C274.804 289.233 274.62 289.366 274.503 289.553C274.386 289.739 274.346 289.963 274.392 290.178C274.437 290.393 274.564 290.582 274.746 290.705C277.098 291.926 279.8 292.296 282.394 291.751Z" fill="#0C0C0C"/>
<path d="M301.98 238.079C304.262 238.079 306.111 236.229 306.111 233.948C306.111 231.666 304.262 229.817 301.98 229.817C299.699 229.817 297.849 231.666 297.849 233.948C297.849 236.229 299.699 238.079 301.98 238.079Z" fill="#0C0C0C"/>
<path d="M262.706 247.343C264.987 247.343 266.837 245.493 266.837 243.212C266.837 240.93 264.987 239.081 262.706 239.081C260.424 239.081 258.575 240.93 258.575 243.212C258.575 245.493 260.424 247.343 262.706 247.343Z" fill="#0C0C0C"/>
<path d="M212.011 288.248C202.111 290.659 191.498 282.019 189.086 272.115C186.674 262.211 193.374 254.794 203.278 252.382L210 257.776L220.529 286.176L212.011 288.248Z" fill="#E98862"/>
<path d="M218.221 270.013C218.221 270.013 210.274 220.119 224.471 213.659C233.926 209.359 261.22 217.893 282.525 208.517C291.846 204.417 301.656 204.699 303.656 209.087C304.449 210.825 304.494 183.227 284.656 166.854C268.856 153.819 228.056 158.499 211.156 167.854C164.356 193.754 201.732 255.017 201.732 255.017L207.863 271.438L218.221 270.013Z" fill="#0C0C0C"/>
<g opacity="0.52">
<path opacity="0.52" d="M284.179 270.9L284.243 270.887C287.436 270.119 292.707 268.473 292.135 266.087C291.657 264.108 281.095 244.044 279.891 241.763C279.784 241.572 279.607 241.431 279.398 241.37C279.189 241.308 278.964 241.33 278.771 241.432C278.578 241.534 278.432 241.707 278.365 241.915C278.298 242.122 278.314 242.348 278.411 242.544C283.097 251.428 290.183 265.134 290.511 266.479C290.333 267.119 287.162 268.468 283.855 269.264C283.646 269.315 283.465 269.446 283.349 269.627C283.234 269.809 283.193 270.029 283.235 270.24C283.277 270.451 283.399 270.638 283.575 270.762C283.752 270.885 283.969 270.936 284.182 270.904L284.179 270.9Z" fill="#0C0C0C"/>
</g>
<path d="M289.046 226.889C291.314 225.148 294.002 224.036 296.837 223.665C298.279 223.464 299.743 223.483 301.179 223.721C302.643 223.957 304.071 224.375 305.431 224.967L305.537 225.009C305.884 225.149 306.272 225.148 306.619 225.008C306.966 224.867 307.245 224.598 307.398 224.256C307.55 223.914 307.564 223.526 307.436 223.174C307.308 222.822 307.049 222.534 306.713 222.369C305.164 221.55 303.517 220.93 301.813 220.524C300.08 220.105 298.293 219.948 296.513 220.059C294.728 220.151 292.963 220.488 291.269 221.059C289.52 221.629 287.862 222.447 286.344 223.486C285.868 223.812 285.542 224.315 285.436 224.882C285.331 225.449 285.455 226.035 285.781 226.51C286.108 226.986 286.61 227.313 287.177 227.418C287.744 227.524 288.33 227.399 288.806 227.073C288.851 227.042 288.895 227.009 288.938 226.973L289.046 226.889Z" fill="#0C0C0C"/>
<path d="M264.548 228.385C262.738 228.059 260.89 227.993 259.061 228.19C257.281 228.362 255.534 228.778 253.867 229.426C252.2 230.054 250.636 230.929 249.228 232.021C247.838 233.09 246.59 234.33 245.512 235.713C245.273 236 245.155 236.369 245.182 236.742C245.209 237.115 245.38 237.463 245.658 237.713C245.936 237.963 246.3 238.095 246.674 238.082C247.048 238.069 247.402 237.912 247.662 237.644L247.746 237.557C248.743 236.46 249.874 235.493 251.113 234.679C252.325 233.872 253.653 233.255 255.051 232.847C257.789 232.024 260.696 231.936 263.478 232.594L263.607 232.628C264.165 232.775 264.758 232.694 265.257 232.403C265.755 232.113 266.117 231.636 266.264 231.078C266.411 230.52 266.33 229.927 266.039 229.428C265.749 228.93 265.272 228.568 264.714 228.421C264.66 228.407 264.6 228.4 264.548 228.385Z" fill="#0C0C0C"/>
<path d="M271.522 187.814C278.521 184.586 280.343 173.618 275.592 163.317C270.841 153.015 261.316 147.28 254.318 150.508C247.319 153.736 245.497 164.703 250.248 175.005C254.998 185.307 264.523 191.041 271.522 187.814Z" fill="#0C0C0C"/>
<path d="M371.908 364.282C358.538 356.362 309.108 352.042 299.538 352.042C299.248 352.042 303.188 393.672 244.148 390.892C200.768 388.842 198.948 352.042 198.948 352.042C198.948 352.042 177.468 353.432 163.178 355.362C139.788 358.532 118.078 372.272 104.928 395.142C91.7481 418.062 95.7281 433.372 101.068 481.392C105.938 525.172 111.588 616.021 113.938 655.841C116.698 657.991 119.505 660.102 122.358 662.172C124.11 663.442 125.88 664.696 127.669 665.932C127.799 666.022 127.927 666.114 128.058 666.203C129.815 667.417 131.59 668.612 133.381 669.789C133.468 669.846 133.552 669.904 133.638 669.961C163.201 689.368 197.213 703.775 233.893 706.112C292.863 709.882 332.663 689.642 375.773 674.132C375.683 671.422 375.633 669.971 375.633 669.971L375.308 669.961H376.023C377.913 641.431 384.443 496.922 386.423 473.762C390.608 424.672 408.338 385.862 371.908 364.282Z" fill="#367CFF"/>
<path d="M614.588 419.94C614.966 418.9 615.551 417.947 616.309 417.14C617.067 416.334 617.981 415.69 618.996 415.248C620.011 414.807 621.105 414.577 622.212 414.572C623.318 414.567 624.414 414.788 625.433 415.221C627.375 416.127 628.901 417.737 629.702 419.725C630.503 421.713 630.52 423.931 629.748 425.931L626 436.273L649.572 412.238C652.502 409.161 658.065 407.26 661.299 410.773C664.099 413.441 670.577 414.263 671.628 419.263C671.664 419.289 671.598 465.051 668.881 467.904C657.351 480.012 629.481 482.354 613.933 476.204L589.462 466.528L614.588 419.94Z" fill="#E98862"/>
<g opacity="0.1">
<path opacity="0.1" d="M614.588 419.94C614.966 418.9 615.551 417.947 616.309 417.14C617.067 416.334 617.981 415.69 618.996 415.248C620.011 414.807 621.105 414.577 622.212 414.572C623.318 414.567 624.414 414.788 625.433 415.221C627.375 416.127 628.901 417.737 629.702 419.725C630.503 421.713 630.52 423.931 629.748 425.931L626 436.273L649.572 412.238C652.502 409.161 658.065 407.26 661.299 410.773C664.099 413.441 670.577 414.263 671.628 419.263C671.664 419.289 671.598 465.051 668.881 467.904C657.351 480.012 629.481 482.354 613.933 476.204L589.462 466.528L614.588 419.94Z" fill="#0C0C0C"/>
</g>
<path d="M708.581 379.453C708.581 378.085 708.297 376.733 707.747 375.481C707.197 374.229 706.393 373.104 705.386 372.179C704.378 371.254 703.19 370.549 701.896 370.107C700.601 369.666 699.23 369.498 697.867 369.614L650.256 373.679C646.006 374.042 642.047 375.987 639.162 379.128C636.277 382.27 634.676 386.38 634.676 390.646V471.8C634.676 474.419 635.716 476.93 637.568 478.782C639.42 480.634 641.931 481.675 644.55 481.675C645.847 481.675 647.131 481.419 648.329 480.923C649.527 480.427 650.615 479.7 651.532 478.783C652.449 477.866 653.177 476.777 653.673 475.579C654.169 474.381 654.424 473.097 654.424 471.8V408.506C654.424 407.103 654.723 405.717 655.301 404.439C655.879 403.161 656.722 402.02 657.775 401.094C658.828 400.167 660.066 399.476 661.407 399.065C662.749 398.654 664.162 398.534 665.553 398.712L697.453 402.796C698.844 402.974 700.258 402.854 701.599 402.443C702.94 402.032 704.178 401.34 705.231 400.413C706.284 399.486 707.127 398.346 707.705 397.068C708.283 395.789 708.581 394.403 708.581 393V379.453Z" fill="#F2F2F2"/>
<path d="M644.55 482.674C641.667 482.671 638.903 481.524 636.864 479.485C634.826 477.447 633.679 474.683 633.676 471.8V390.646C633.651 386.122 635.339 381.756 638.399 378.424C641.459 375.092 645.666 373.041 650.176 372.682L697.787 368.618C699.288 368.489 700.799 368.674 702.224 369.16C703.65 369.647 704.959 370.424 706.068 371.442C707.177 372.461 708.063 373.699 708.669 375.078C709.275 376.457 709.587 377.947 709.587 379.453V393C709.587 394.544 709.258 396.072 708.622 397.479C707.986 398.887 707.057 400.143 705.897 401.163C704.738 402.184 703.374 402.946 701.897 403.398C700.42 403.85 698.863 403.982 697.331 403.786L665.431 399.701C664.181 399.541 662.911 399.65 661.707 400.019C660.502 400.388 659.389 401.009 658.443 401.842C657.497 402.674 656.739 403.699 656.22 404.847C655.701 405.995 655.432 407.241 655.431 408.501V471.8C655.427 474.684 654.28 477.448 652.24 479.487C650.2 481.526 647.434 482.672 644.55 482.674ZM698.733 370.574C698.474 370.574 698.214 370.586 697.952 370.608L650.341 374.672C646.332 374.992 642.593 376.816 639.873 379.778C637.154 382.74 635.654 386.621 635.676 390.643V471.8C635.701 474.137 636.647 476.37 638.308 478.014C639.97 479.658 642.213 480.58 644.55 480.58C646.888 480.58 649.131 479.658 650.793 478.014C652.454 476.37 653.4 474.137 653.425 471.8V408.506C653.425 406.961 653.754 405.434 654.39 404.026C655.026 402.619 655.955 401.363 657.114 400.343C658.274 399.322 659.638 398.56 661.115 398.108C662.591 397.656 664.148 397.523 665.68 397.72L697.58 401.805C698.83 401.964 700.1 401.856 701.304 401.486C702.509 401.117 703.621 400.496 704.567 399.663C705.513 398.831 706.271 397.806 706.791 396.658C707.31 395.51 707.579 394.265 707.58 393.005V379.453C707.58 377.103 706.649 374.85 704.99 373.186C703.332 371.523 701.081 370.584 698.732 370.577L698.733 370.574Z" fill="#0C0C0C"/>
<path d="M637.675 448.556C638.071 447.157 638.912 445.925 640.072 445.049C641.232 444.172 642.646 443.699 644.1 443.7C644.081 443.584 643.955 443.315 644.157 443.294L639.15 440.862C637.659 440.177 636.466 438.977 635.792 437.481C635.118 435.986 635.007 434.297 635.481 432.727C636 431.192 637.071 429.904 638.485 429.113C639.9 428.322 641.557 428.084 643.137 428.446C643.115 428.385 643.147 428.317 643.145 428.251L641.088 427.251C639.686 426.6 638.552 425.485 637.878 424.094C637.204 422.703 637.031 421.122 637.388 419.618C637.632 418.679 638.08 417.807 638.702 417.063C639.324 416.319 640.103 415.723 640.983 415.316C641.863 414.91 642.822 414.704 643.791 414.713C644.761 414.722 645.716 414.947 646.588 415.37L651.337 417.676C651.345 417.648 651.328 417.621 651.337 417.595C651.346 417.569 651.394 417.553 651.413 417.523C650.255 416.597 649.447 415.305 649.119 413.858C648.792 412.412 648.966 410.898 649.613 409.564C651.058 406.01 655.779 405.876 658.849 407.364L668.156 412.812C669.592 413.653 670.798 414.836 671.667 416.256C672.535 417.676 673.039 419.288 673.133 420.95C673.963 435.328 675.233 472.932 665.433 468.174L641.311 456.46C639.913 455.734 638.796 454.562 638.138 453.131C637.479 451.7 637.317 450.09 637.675 448.556Z" fill="#E98862"/>
<path d="M596.576 428.853L474.29 526.583L390.688 383.7L308.212 431.957L419.712 622.512L420.552 623.965C424.077 629.9 428.875 634.979 434.6 638.835C440.325 642.691 446.835 645.229 453.66 646.264C460.485 647.3 467.454 646.807 474.066 644.823C480.677 642.839 486.766 639.411 491.892 634.789L648.381 495.323L596.576 428.853Z" fill="#367CFF"/>
<path d="M484.508 463.792C484.508 462.424 484.224 461.072 483.674 459.82C483.124 458.568 482.32 457.444 481.312 456.519C480.305 455.594 479.117 454.888 477.822 454.447C476.528 454.005 475.156 453.837 473.794 453.954L426.183 458.018C421.933 458.381 417.974 460.326 415.089 463.467C412.204 466.609 410.603 470.719 410.603 474.985V556.138C410.603 558.757 411.643 561.268 413.495 563.12C415.346 564.972 417.858 566.013 420.477 566.013C421.774 566.013 423.058 565.757 424.256 565.261C425.454 564.765 426.542 564.037 427.459 563.12C428.376 562.203 429.103 561.115 429.599 559.917C430.096 558.719 430.351 557.435 430.351 556.138V492.845C430.351 491.442 430.65 490.056 431.228 488.778C431.806 487.5 432.649 486.359 433.702 485.433C434.755 484.506 435.993 483.814 437.334 483.404C438.675 482.993 440.089 482.873 441.48 483.051L473.38 487.135C474.771 487.313 476.184 487.193 477.525 486.782C478.866 486.371 480.104 485.68 481.157 484.753C482.21 483.826 483.054 482.686 483.631 481.408C484.209 480.13 484.508 478.743 484.508 477.341V463.792Z" fill="#F2F2F2"/>
<path d="M420.477 567.013C417.593 567.011 414.829 565.864 412.789 563.826C410.75 561.787 409.603 559.022 409.6 556.139V474.985C409.575 470.461 411.262 466.095 414.323 462.763C417.383 459.431 421.59 457.38 426.1 457.021L473.711 452.957C475.211 452.829 476.722 453.014 478.148 453.5C479.573 453.986 480.882 454.764 481.991 455.782C483.1 456.801 483.986 458.039 484.592 459.417C485.198 460.796 485.511 462.286 485.511 463.792V477.341C485.511 478.886 485.182 480.412 484.546 481.82C483.909 483.227 482.981 484.483 481.821 485.504C480.662 486.524 479.298 487.286 477.821 487.738C476.344 488.191 474.788 488.323 473.256 488.127L441.356 484.042C440.106 483.882 438.836 483.99 437.631 484.359C436.426 484.728 435.314 485.35 434.367 486.182C433.421 487.015 432.663 488.039 432.144 489.188C431.625 490.336 431.356 491.582 431.356 492.842V556.136C431.353 559.02 430.206 561.786 428.166 563.825C426.127 565.864 423.361 567.011 420.477 567.013ZM474.659 454.913C474.401 454.913 474.141 454.925 473.879 454.947L426.268 459.011C422.258 459.33 418.518 461.155 415.797 464.118C413.076 467.08 411.577 470.962 411.6 474.985V556.139C411.625 558.476 412.571 560.709 414.232 562.353C415.894 563.998 418.137 564.92 420.474 564.92C422.812 564.92 425.055 563.998 426.717 562.353C428.378 560.709 429.324 558.476 429.349 556.139V492.845C429.349 491.3 429.678 489.773 430.314 488.366C430.95 486.958 431.879 485.702 433.039 484.682C434.199 483.661 435.562 482.899 437.039 482.447C438.516 481.995 440.073 481.863 441.605 482.059L473.505 486.143C474.755 486.303 476.025 486.195 477.23 485.826C478.435 485.456 479.547 484.835 480.493 484.002C481.439 483.17 482.197 482.145 482.717 480.997C483.236 479.849 483.505 478.603 483.505 477.343V463.792C483.505 461.442 482.573 459.189 480.915 457.525C479.256 455.861 477.005 454.923 474.656 454.916L474.659 454.913Z" fill="#0C0C0C"/>
<path d="M398.234 488.589C398.589 487.61 399.14 486.713 399.853 485.954C400.567 485.195 401.427 484.589 402.382 484.174C403.337 483.758 404.367 483.541 405.408 483.537C406.45 483.532 407.481 483.74 408.44 484.147C410.268 485 411.704 486.515 412.458 488.386C413.212 490.257 413.227 492.345 412.501 494.227L410.436 499.919L427.071 490.437C430.91 487.762 436.522 486.671 440.171 488.72C443.997 490.868 446.841 495.858 447.83 500.564C447.864 500.589 450.595 521.851 445.839 532.55C439.446 546.927 410.226 559.584 395.594 553.798L372.564 544.692L398.234 488.589Z" fill="#E98862"/>
<path d="M384.007 522.633H383.978C383.864 522.629 383.751 522.603 383.647 522.556C383.543 522.509 383.449 522.441 383.371 522.358C383.293 522.274 383.232 522.176 383.192 522.069C383.152 521.961 383.134 521.847 383.138 521.733L384.875 468.557C384.888 468.328 384.989 468.113 385.156 467.956C385.324 467.8 385.546 467.714 385.775 467.717C385.889 467.72 386.002 467.747 386.106 467.794C386.21 467.841 386.304 467.909 386.382 467.992C386.46 468.076 386.521 468.174 386.561 468.281C386.601 468.388 386.619 468.503 386.615 468.617L384.878 521.793C384.871 522.019 384.775 522.233 384.613 522.389C384.45 522.546 384.233 522.633 384.007 522.633Z" fill="#0C0C0C"/>
<path d="M389.026 493.314L245.162 535.914L196.062 406.304L100.268 444.94L171.886 612.171L172.87 614.471C177.542 625.286 186.158 633.916 196.967 638.605C207.775 643.293 219.964 643.688 231.053 639.709L415.3 573.607L389.026 493.314Z" fill="#367CFF"/>
<path d="M215.462 643.3C206.24 643.303 197.218 640.607 189.509 635.546C181.799 630.485 175.739 623.279 172.075 614.816L171.091 612.516L107.32 479.863C107.226 479.656 107.216 479.42 107.294 479.206C107.371 478.993 107.529 478.818 107.734 478.719C107.939 478.621 108.174 478.606 108.39 478.679C108.605 478.752 108.783 478.907 108.886 479.11L172.672 611.8L173.672 614.136C178.267 624.739 186.723 633.199 197.325 637.797C207.927 642.396 219.881 642.79 230.763 638.9L414.208 573.078L388.463 494.39L245.409 536.751C245.206 536.81 244.988 536.794 244.796 536.704C244.604 536.615 244.451 536.459 244.366 536.265L204.4 444.53C204.314 444.319 204.313 444.084 204.398 443.873C204.484 443.662 204.648 443.494 204.857 443.403C205.065 443.312 205.301 443.307 205.513 443.387C205.726 443.468 205.898 443.629 205.993 443.836L245.648 534.867L388.775 492.481C388.992 492.416 389.225 492.439 389.426 492.544C389.626 492.649 389.778 492.828 389.848 493.044L416.118 573.337C416.189 573.552 416.172 573.786 416.073 573.989C415.974 574.192 415.799 574.348 415.586 574.425L231.35 640.531C226.253 642.363 220.878 643.299 215.462 643.3Z" fill="#0C0C0C"/>
<path d="M220.526 544.486C220.317 544.488 220.113 544.415 219.953 544.28C219.793 544.144 219.688 543.956 219.656 543.748C219.625 543.541 219.669 543.33 219.781 543.153C219.894 542.976 220.066 542.845 220.267 542.786L244.903 535.086C245.12 535.026 245.353 535.052 245.551 535.16C245.748 535.268 245.897 535.449 245.964 535.664C246.031 535.879 246.012 536.112 245.911 536.314C245.81 536.515 245.634 536.669 245.421 536.744L220.784 544.444C220.701 544.471 220.614 544.485 220.526 544.486Z" fill="#0C0C0C"/>
<path d="M244.963 247.773L197.982 253.65C197.384 253.725 196.778 253.681 196.197 253.521C195.617 253.362 195.073 253.089 194.598 252.72C194.123 252.35 193.725 251.89 193.427 251.367C193.129 250.843 192.938 250.266 192.863 249.669C192.712 248.462 193.047 247.245 193.794 246.285C194.54 245.325 195.637 244.701 196.844 244.55L243.825 238.673L244.963 247.773Z" fill="#F2F2F2"/>
<path d="M197.409 254.685C195.988 254.684 194.621 254.142 193.585 253.168C192.55 252.195 191.925 250.863 191.837 249.445C191.75 248.027 192.206 246.628 193.113 245.534C194.02 244.441 195.31 243.734 196.72 243.558L243.701 237.681C243.831 237.663 243.963 237.672 244.09 237.706C244.217 237.74 244.336 237.8 244.439 237.881C244.543 237.961 244.63 238.062 244.695 238.176C244.76 238.29 244.802 238.416 244.818 238.546L245.956 247.646C245.989 247.909 245.916 248.174 245.753 248.384C245.59 248.593 245.351 248.729 245.088 248.762L198.106 254.639C197.875 254.668 197.642 254.684 197.409 254.685ZM242.957 239.785L196.968 245.539C196.024 245.657 195.166 246.145 194.583 246.895C193.999 247.646 193.737 248.598 193.855 249.541C193.973 250.485 194.461 251.343 195.212 251.927C195.963 252.51 196.914 252.772 197.858 252.654L243.847 246.901L242.957 239.785Z" fill="#0C0C0C"/>
<path d="M324.663 242.454L322.134 222.233C321.702 218.785 319.919 215.649 317.175 213.515C314.431 211.381 310.953 210.425 307.504 210.856L242.748 218.956C242.243 219.022 241.742 219.116 241.248 219.24L231.694 220.435C229.986 220.648 228.337 221.196 226.841 222.046C225.345 222.897 224.031 224.034 222.975 225.393C221.918 226.752 221.14 228.305 220.684 229.965C220.228 231.624 220.104 233.357 220.318 235.065L222.847 255.286C223.06 256.994 223.608 258.643 224.458 260.139C225.309 261.635 226.446 262.949 227.805 264.006C229.163 265.062 230.717 265.84 232.377 266.296C234.036 266.752 235.769 266.876 237.477 266.662L302.232 258.562C302.737 258.496 303.238 258.401 303.732 258.278L313.285 257.078C314.992 256.865 316.641 256.318 318.137 255.468C319.633 254.618 320.947 253.481 322.003 252.123C323.06 250.765 323.839 249.212 324.295 247.553C324.751 245.894 324.876 244.161 324.663 242.454Z" fill="#F2F2F2"/>
<path d="M235.842 267.765C232.407 267.758 229.093 266.5 226.518 264.226C223.944 261.953 222.287 258.819 221.856 255.411L219.326 235.19C218.862 231.478 219.892 227.734 222.188 224.781C224.484 221.828 227.859 219.909 231.571 219.444L241.071 218.256C241.584 218.129 242.103 218.032 242.627 217.965L307.383 209.865C309.221 209.634 311.086 209.768 312.873 210.259C314.659 210.75 316.331 211.588 317.793 212.725C319.255 213.862 320.479 215.276 321.395 216.886C322.31 218.497 322.9 220.272 323.129 222.11L325.658 242.33C325.889 244.168 325.755 246.034 325.264 247.82C324.773 249.606 323.936 251.278 322.798 252.741C321.661 254.203 320.247 255.427 318.637 256.343C317.026 257.258 315.251 257.848 313.413 258.077L303.913 259.265C303.4 259.39 302.881 259.488 302.357 259.556L237.601 267.656C237.017 267.729 236.43 267.765 235.842 267.765ZM309.155 211.753C308.644 211.755 308.134 211.788 307.628 211.853L242.872 219.953C242.406 220.014 241.943 220.102 241.487 220.216C241.449 220.225 241.411 220.232 241.373 220.237L231.819 221.432C228.635 221.834 225.74 223.483 223.77 226.016C221.801 228.55 220.916 231.761 221.311 234.946L223.84 255.167C224.242 258.351 225.891 261.245 228.424 263.215C230.958 265.185 234.169 266.07 237.354 265.675L302.11 257.575C302.577 257.514 303.039 257.426 303.496 257.312C303.534 257.303 303.572 257.296 303.61 257.291L313.162 256.096C316.346 255.694 319.241 254.046 321.211 251.512C323.181 248.979 324.066 245.767 323.671 242.582L321.142 222.362C320.775 219.44 319.355 216.751 317.149 214.8C314.942 212.849 312.1 211.769 309.155 211.762V211.753Z" fill="#0C0C0C"/>
<path d="M319.149 209.498L254.395 217.598C247.213 218.496 242.119 225.047 243.017 232.228L245.547 252.449C246.445 259.63 252.995 264.724 260.177 263.826L324.931 255.726C332.113 254.827 337.207 248.277 336.308 241.095L333.779 220.875C332.881 213.693 326.331 208.6 319.149 209.498Z" fill="#F2F2F2"/>
<path d="M258.523 264.927C255.09 264.919 251.778 263.66 249.207 261.385C246.636 259.111 244.982 255.977 244.556 252.571L242.027 232.35C241.796 230.511 241.929 228.646 242.42 226.859C242.91 225.072 243.748 223.4 244.885 221.937C246.022 220.474 247.436 219.25 249.047 218.334C250.657 217.418 252.432 216.829 254.271 216.6L319.027 208.5C322.738 208.04 326.479 209.071 329.431 211.367C332.383 213.662 334.304 217.035 334.773 220.745L337.302 240.966C337.762 244.677 336.732 248.419 334.436 251.371C332.141 254.323 328.768 256.243 325.058 256.712L260.302 264.812C259.712 264.887 259.118 264.925 258.523 264.927ZM320.786 210.393C320.281 210.393 319.776 210.424 319.275 210.488L254.519 218.588C252.941 218.784 251.418 219.29 250.036 220.076C248.655 220.861 247.441 221.912 246.465 223.166C245.489 224.421 244.77 225.856 244.349 227.389C243.928 228.922 243.813 230.522 244.011 232.1L246.54 252.321C246.737 253.898 247.242 255.421 248.028 256.803C248.814 258.185 249.864 259.399 251.119 260.375C252.374 261.351 253.809 262.07 255.342 262.491C256.875 262.912 258.476 263.027 260.054 262.829L324.81 254.729C327.994 254.326 330.888 252.678 332.858 250.144C334.828 247.611 335.713 244.399 335.318 241.215L332.788 221C332.419 218.074 330.997 215.384 328.788 213.432C326.579 211.479 323.734 210.399 320.786 210.393Z" fill="#0C0C0C"/>
</g>
<defs>
<clipPath id="clip0_228_11850">
<rect width="985.74" height="729.187" fill="white"/>
</clipPath>
</defs>
</svg>
